<?xml version="1.0" encoding="UTF-8"?>
<svg id="Capa_2" data-name="Capa 2" xmlns="http://www.w3.org/2000/svg" viewBox="0 0 346 346">
  <defs>
    <style>
      .cls-1 {
        fill: #7eac2e;
      }

      .cls-2 {
        fill: #fff;
      }

      .cls-3 {
        fill: #17110e;
      }

      .cls-4 {
        fill: #5f8421;
      }

      .cls-5 {
        fill: #eee0d8;
      }
    </style>
  </defs>
  <g id="Capa_7" data-name="Capa 7">
    <g id="ojo">
      <g>
        <path class="cls-2" d="M173,341c-92.64,0-168-75.36-168-168S80.36,5,173,5s168,75.36,168,168-75.36,168-168,168Z"/>
        <path class="cls-2" d="M173,10c90.02,0,163,72.98,163,163s-72.98,163-163,163S10,263.02,10,173,82.98,10,173,10M173,0c-23.35,0-46.01,4.58-67.34,13.6-20.6,8.71-39.1,21.19-54.99,37.07-15.88,15.88-28.36,34.39-37.07,54.99C4.58,126.99,0,149.65,0,173s4.58,46.01,13.6,67.34c8.71,20.6,21.19,39.1,37.07,54.99,15.88,15.88,34.39,28.36,54.99,37.07,21.33,9.02,43.99,13.6,67.34,13.6s46.01-4.58,67.34-13.6c20.6-8.71,39.1-21.19,54.99-37.07,15.88-15.88,28.36-34.39,37.07-54.99,9.02-21.33,13.6-43.99,13.6-67.34s-4.58-46.01-13.6-67.34c-8.71-20.6-21.19-39.1-37.07-54.99-15.88-15.88-34.39-28.36-54.99-37.07C219.01,4.58,196.35,0,173,0h0Z"/>
      </g>
      <g>
        <circle class="cls-5" cx="173" cy="173" r="163"/>
        <g>
          <path class="cls-3" d="M289.04,236.26c12.27-20.5,11.87-60.43,2.85-82.44-33.02-80.59-175.9-98.64-224.54-23.61,58.63-115.21,270.82-54.71,237.34,80.16-1.64,6.6-8.86,22.3-15.66,25.88Z"/>
          <g>
            <path class="cls-2" d="M289.04,236.26c-27.58,46.08-127.43,34.41-170.49,24.63-12.57-2.85-70.82-20.65-74.11-31.81-5.36-18.17,11.61-81.43,22.92-98.87,48.64-75.03,191.51-56.98,224.54,23.61,9.02,22.01,9.41,61.94-2.85,82.44Z"/>
            <g>
              <path class="cls-2" d="M164.21,262.02c59.02-1.15,86.95-58.82,71.71-111.88-.65-2.25-1.87-6.1-2.65-8.2-2.4-6.5-4.53-10.92-9.25-16.04,25.7,2.14,66.16,63.4,66.76,86.26,1.32,50.46-89.77,64.68-126.57,49.87Z"/>
              <path class="cls-4" d="M233.27,141.93c.78,2.11,2,5.96,2.65,8.2l-7.91.74c-.99-10.88-21.05-25.83-33.58-22.68-61.12-38.1-118.45,24.98-81.55,86.98-10.02,10.75-14.24,15.17-6.28,28.29-16.49-11.98-32.33-37.56-32-58.52,1.39-88.03,112.85-112.22,158.67-43.01Z"/>
              <path class="cls-1" d="M235.91,150.14c15.25,53.07-12.68,110.73-71.71,111.88-21.83.43-39.86-5.66-57.61-18.56-7.97-13.12-3.74-17.54,6.28-28.29,37.91,63.68,119.19,14.01,106.79-48.02,5.93-2.28,8.88-10.36,8.34-16.27l7.91-.74Z"/>
              <path class="cls-3" d="M194.42,128.19c-27.81,6.98-1.62,49.27,25.24,38.96,12.4,62.03-68.88,111.7-106.79,48.02-36.9-62,20.43-125.08,81.55-86.98Z"/>
              <path class="cls-2" d="M228,150.88c.54,5.91-2.41,14-8.34,16.27-26.86,10.31-53.05-31.98-25.24-38.96,12.53-3.15,32.59,11.81,33.58,22.68Z"/>
            </g>
          </g>
        </g>
      </g>
    </g>
  </g>
</svg>