<?xml version="1.0" encoding="UTF-8"?>
<svg id="Capa_2" data-name="Capa 2" xmlns="http://www.w3.org/2000/svg" xmlns:xlink="http://www.w3.org/1999/xlink" viewBox="0 0 356.27 231.01"><metadata><c2pa:manifest xmlns:c2pa="http://c2pa.org/manifest">AAA0RWp1bWIAAAAeanVtZGMycGEAEQAQgAAAqgA4m3EDYzJwYQAAADQfanVtYgAAAEdqdW1kYzJtYQARABCAAACqADibcQN1cm46dXVpZDphNzM4MjQ3ZS02YWNjLTQwNmItYTViZS1lNzc2YWYyODAzOTUAAAABtGp1bWIAAAApanVtZGMyYXMAEQAQgAAAqgA4m3EDYzJwYS5hc3NlcnRpb25zAAAAANdqdW1iAAAAJmp1bWRjYm9yABEAEIAAAKoAOJtxA2MycGEuYWN0aW9ucwAAAACpY2JvcqFnYWN0aW9uc4GjZmFjdGlvbmtjMnBhLmVkaXRlZG1zb2Z0d2FyZUFnZW50bUFkb2JlIEZpcmVmbHlxZGlnaXRhbFNvdXJjZVR5cGV4U2h0dHA6Ly9jdi5pcHRjLm9yZy9uZXdzY29kZXMvZGlnaXRhbHNvdXJjZXR5cGUvY29tcG9zaXRlV2l0aFRyYWluZWRBbGdvcml0aG1pY01lZGlhAAAArGp1bWIAAAAoanVtZGNib3IAEQAQgAAAqgA4m3EDYzJwYS5oYXNoLmRhdGEAAAAAfGNib3KlamV4Y2x1c2lvbnOBomVzdGFydBj0Zmxlbmd0aBlFtGRuYW1lbmp1bWJmIG1hbmlmZXN0Y2FsZ2ZzaGEyNTZkaGFzaFgg+eupNArW3oSg66/OSa59O4s5fyhAd1p2lsLME3ZGYUljcGFkSQAAAAAAAAAAAAAAAgxqdW1iAAAAJGp1bWRjMmNsABEAEIAAAKoAOJtxA2MycGEuY2xhaW0AAAAB4GNib3KoaGRjOnRpdGxlb0dlbmVyYXRlZCBJbWFnZWlkYzpmb3JtYXRtaW1hZ2Uvc3ZnK3htbGppbnN0YW5jZUlEeCx4bXA6aWlkOjhjZDQ0MTNhLWQ3ODItNGE5Mi05YWE1LThkMDllZmM0ZjM4ZW9jbGFpbV9nZW5lcmF0b3J4N0Fkb2JlX0lsbHVzdHJhdG9yLzI5LjQgYWRvYmVfYzJwYS8wLjEyLjIgYzJwYS1ycy8wLjMyLjV0Y2xhaW1fZ2VuZXJhdG9yX2luZm+Bv2RuYW1lcUFkb2JlIElsbHVzdHJhdG9yZ3ZlcnNpb25kMjkuNP9pc2lnbmF0dXJleBlzZWxmI2p1bWJmPWMycGEuc2lnbmF0dXJlamFzc2VydGlvbnOComN1cmx4J3NlbGYjanVtYmY9YzJwYS5hc3NlcnRpb25zL2MycGEuYWN0aW9uc2RoYXNoWCBKacG9/6jeQTB4viTtzPgxOsHRZJU0VnGgDWsGszfUr6JjdXJseClzZWxmI2p1bWJmPWMycGEuYXNzZXJ0aW9ucy9jMnBhLmhhc2guZGF0YWRoYXNoWCDmLHXuQE6nu3jG91JiredYqWuuR2f3CV5pJd6pzdm4bWNhbGdmc2hhMjU2AAAwEGp1bWIAAAAoanVtZGMyY3MAEQAQgAAAqgA4m3EDYzJwYS5zaWduYXR1cmUAAAAv4GNib3LShFkM76IBOCQYIYJZBj0wggY5MIIEIaADAgECAhAVjf8nrCPSuCVLTmM3Hh2eMA0GCSqGSIb3DQEBCwUAMHUxCzAJBgNVBAYTAlVTMSMwIQYDVQQKExpBZG9iZSBTeXN0ZW1zIEluY29ycG9yYXRlZDEdMBsGA1UECxMUQWRvYmUgVHJ1c3QgU2VydmljZXMxIjAgBgNVBAMTGUFkb2JlIFByb2R1Y3QgU2VydmljZXMgRzMwHhcNMjQxMDE1MDAwMDAwWhcNMjUxMDE1MjM1OTU5WjCBqzETMBEGA1UEAwwKQWRvYmUgQzJQQTEoMCYGA1UECwwfQ29udGVudCBBdXRoZW50aWNpdHkgSW5pdGlhdGl2ZTETMBEGA1UECgwKQWRvYmUgSW5jLjERMA8GA1UEBwwIU2FuIEpvc2UxEzARBgNVBAgMCkNhbGlmb3JuaWExCzAJBgNVBAYTAlVTMSAwHgYJKoZIhvcNAQkBFhFjYWktb3BzQGFkb2JlLmNvbTCCASIwDQYJKoZIhvcNAQEBBQADggEPADCCAQoCggEBAMMQwYHQfT1y6TFz8OaDYGJBVgzz9Wkn7YfU2TyDTrTkJYadb+IfoTMWVhY5Gd0SUbqEga7EkmAWhH4gzCorIv7DsbhRygVf/5da790q464sQDVyJaoxnSGMnWjGhWv+aLxc/5uPklM9HHGM6sPr0gM7kckhp6YJvBpo/khCXC/xiB86lPW1MtzbIs2NqGNvMo99q25DqngA0jOdTqiCSpaBARRXsczLp86VPitrC6oXqEfBSTGkdHxl2v4Kkc4ZIgRYcFISz0vbOvkwp89PVGTJV23Rv4hSo91DxVA46odMLRYHM9uA61JWlnopbSh6LspgR7oq875jhtFbUj3qcTkCAwEAAaOCAYwwggGIMAwGA1UdEwEB/wQCMAAwDgYDVR0PAQH/BAQDAgeAMB4GA1UdJQQXMBUGCSqGSIb3LwEBDAYIKwYBBQUHAwQwgY4GA1UdIASBhjCBgzCBgAYJKoZIhvcvAQIDMHMwcQYIKwYBBQUHAgIwZQxjWW91IGFyZSBub3QgcGVybWl0dGVkIHRvIHVzZSB0aGlzIExpY2Vuc2UgQ2VydGlmaWNhdGUgZXhjZXB0IGFzIHBlcm1pdHRlZCBieSB0aGUgbGljZW5zZSBhZ3JlZW1lbnQuMF0GA1UdHwRWMFQwUqBQoE6GTGh0dHA6Ly9wa2ktY3JsLnN5bWF1dGguY29tL2NhXzdhNWMzYTBjNzMxMTc0MDZhZGQxOTMxMmJjMWJjMjNmL0xhdGVzdENSTC5jcmwwNwYIKwYBBQUHAQEEKzApMCcGCCsGAQUFBzABhhtodHRwOi8vcGtpLW9jc3Auc3ltYXV0aC5jb20wHwYDVR0jBBgwFoAUVyl6Mk3M/uQ1TsAfJHPOc1Or32owDQYJKoZIhvcNAQELBQADggIBAKq5ehS0PnPS2Gn9IoMk4BKzS/V5ponok96IShXrydwTe5FpGQ9c521cN151+bYEGiqvgIkgpXTcWBCqlPkavS69uhhoJQUgNLPw7NpMPti5Z05qIwBwh9wr1UW4Rhx62rIZp34MJhdU0pGlpOzcRIW7fcEKIhDJC0kHjOEuArvte+hcxHcvs85A5EVqnkjkDv6htlkbaP7yKt9BAn+r+hbWsySNQliKoQSuaCYqEjWy7AlSYWq91HGvQ9dbo3mVuJNozwrJ864k5halX7Xd5Nkl1EIO8EHEHF3ygSLVmbfM7Z9CGKGcyWtcfZfXb1ygCbzbA6M+Lg3q0vM/a8y7BEL8y9cj206ePv+pk0wFrKGg7ZpGYJt1/rH3z1918zBZn8yB4mH1I2uZyitm7OD+9bYrf9VPxQ9sXZac2UrqUagjBs/lE3lyPCKzeWUf/hfK0rJkQErY54IM/8A7nMHA5SW2OP0SqtwawIuC2pizCH8KP3Wy+eUw5SDnexwn5koGm3NVjtCo4ty1v1WZz/VRvFolBvlqrTdTkCAGZhVDlnV0Bi2oPiNTmmdQVyQzbCYl3INkxjQUhD6OOAJH5/TMxRisgeVLqzDeDR9KpWpoa4SoldPm+9xY8d99D/368QZs8eTaQEITSpLMfheM9UvAMtaNkwSJJHgBWw88vH/xcbsrWQalMIIGoTCCBImgAwIBAgIQDKi2VHuJ5tIGiXXNi5uJ4jANBgkqhkiG9w0BAQsFADBsMQswCQYDVQQGEwJVUzEjMCEGA1UEChMaQWRvYmUgU3lzdGVtcyBJbmNvcnBvcmF0ZWQxHTAbBgNVBAsTFEFkb2JlIFRydXN0IFNlcnZpY2VzMRkwFwYDVQQDExBBZG9iZSBSb290IENBIEcyMB4XDTE2MTEyOTAwMDAwMFoXDTQxMTEyODIzNTk1OVowdTELMAkGA1UEBhMCVVMxIzAhBgNVBAoTGkFkb2JlIFN5c3RlbXMgSW5jb3Jwb3JhdGVkMR0wGwYDVQQLExRBZG9iZSBUcnVzdCBTZXJ2aWNlczEiMCAGA1UEAxMZQWRvYmUgUHJvZHVjdCBTZXJ2aWNlcyBHMzCCAiIwDQYJKoZIhvcNAQEBBQADggIPADCCAgoCggIBALcfLr29CbNcSGz+DIOubAHqUXglpIA+iaexsohk2vaJdoH5+R3zlfx4mI2Yjs/k7hxVPg1zWnfOsRKoFXhlTJbyBxnvxB3CgcbxA13ZU1wecyBJH5dP0hp+yer01/DDcm30oveXkA1DmfX4wmqvjwRY0uWX3jZs4v8kfjLANIyiqFmq0kQhRRQaVBUFnwIC8lzssTp10DkLnY8TY+lrtF9CAdd/iB9dVnCnFhFlzOI+I4eoS8tvQndxKFRt6MXFXpzBfxDIA9rV48eDVG0zQdf4PfjEejcOTIaeZP4N2rTRMQMYbboAvk90g0oUhCX7NqrookVB7V90YTnCtbNTiYE+bNrPcRsuf7sVaXACGitiogyV1t8cTfJ1z5pNTUlbv5sbX2qa+E70iW4a1O1AN6oUGPZ+Dp9rGx9V9U8Puy03pPCggOWQ4IThET4iKfybfPd6qL9WxOayZGoHFYNFqo4fPTYQmgQPFckbd6L5RsginTVdlC925+b3RbE5O6qpqfZmpM9f0rlV2MSH+i+vvEVzmrV1mj5JrnLixNUzznj+0tTeSU6BQrPNJdg9hLcaEFxgkePCv3E1Eec1f30PoXSDs6KNJxZ++2PGHXdpO/8fQRO/KZqHjJ8OlV2H1wrlhII+qe46Wy6MUDKFjAlc5YO9llTYSRZUsOGg/H3Ons3hAgMBAAGjggE0MIIBMDASBgNVHRMBAf8ECDAGAQH/AgEAMDUGA1UdHwQuMCwwKqAooCaGJGh0dHA6Ly9jcmwuYWRvYmUuY29tL2Fkb2Jlcm9vdGcyLmNybDAOBgNVHQ8BAf8EBAMCAQYwFAYDVR0lBA0wCwYJKoZIhvcvAQEHMFcGA1UdIARQME4wTAYJKoZIhvcvAQIDMD8wPQYIKwYBBQUHAgEWMWh0dHBzOi8vd3d3LmFkb2JlLmNvbS9taXNjL3BraS9wcm9kX3N2Y2VfY3BzLmh0bWwwJAYDVR0RBB0wG6QZMBcxFTATBgNVBAMTDFNZTUMtNDA5Ni0zMzAdBgNVHQ4EFgQUVyl6Mk3M/uQ1TsAfJHPOc1Or32owHwYDVR0jBBgwFoAUphzhbVQkTKiPSHK/bqmM1eTsMdQwDQYJKoZIhvcNAQELBQADggIBAHHO5QeMptwt3MjgO2VeAJKBleuVICSvn2k4Xcl88bjapU0AZTslwRhcnr5Zt9wbBjtZgyX6M7si8k9vuyFcVhb1ucmDFfuUtTXgoTFyGZws1jV57oiEEnZjw/NkxFQpJ3kKRRE+DQ8EsaPP8pH8Oh8fH4bis9MI4Y5FjF5it3TWVyLmFXG8pxy8iTswPr1lN7B9k9Iz7RaexTd/RmZ3uGBtGlTJZx4bR4cWl1Qor9kVaEeMNULbyh0Kc3zzm0edwpe+Ii0rRlRSj8Ai2EUqWEReyer1Uv18VuC87zdm+lRCjnLyZjdy4acRUZd2GM1vncJ8LW7h1uliZZo332y5tTMSxRpRveWgs99V/MM6mDbL2/fuQF3L/C5evbS15jtTrbGP98CCzVBKeFS2UxN8Kpt5/ITJwpWYoismQkuy+BNJgpW8fgUUjB93laOo4L3uNf3ytxUDOEAjSJKRrOxY4y8vqbQvicslqnH7zkaxVfxjoAeYQ/huYISXCKXooA/5R7AkWLDmubBXakRIcCFi5klrTcHy2XSd3ZAnO8kaZt4GpeqkX05GKcUzccSsrym5GiQ6MUfb7Vqwt4ja0HfVb8Qt017bs6B26rpnqoHAKnn1hfburJ0OEPRZF83riQKzbkrzyIYAY1bYIB9MNL5v5ZgkGIgv2NdhngsX4GJS9927o2ZzaWdUc3ShaXRzdFRva2Vuc4GhY3ZhbFkOOjCCDjYwAwIBADCCDi0GCSqGSIb3DQEHAqCCDh4wgg4aAgEDMQ8wDQYJYIZIAWUDBAIBBQAwgYIGCyqGSIb3DQEJEAEEoHMEcTBvAgEBBglghkgBhv1sBwEwMTANBglghkgBZQMEAgEFAAQgCpj+RThB5bd2N8fP3PKm3qp/rVOwmGzGVKzDnyLAOuoCEB32H4fsq9Gpoq9I96tmnxwYDzIwMjUwNTAxMDM1ODEwWgIJANGShePE8UfqoIILwDCCBQowggLyoAMCAQICEAwLL8d6eM+67WVWVMGaJAMwDQYJKoZIhvcNAQELBQAwYzELMAkGA1UEBhMCVVMxFzAVBgNVBAoTDkRpZ2lDZXJ0LCBJbmMuMTswOQYDVQQDEzJEaWdpQ2VydCBUcnVzdGVkIEc0IFJTQTQwOTYgU0hBMjU2IFRpbWVTdGFtcGluZyBDQTAeFw0yNDExMjAwMDAwMDBaFw0zNjAyMTkyMzU5NTlaMFsxCzAJBgNVBAYTAlVTMREwDwYDVQQKEwhEaWdpQ2VydDE5MDcGA1UEAxMwRUNDMjU2X1NIQTI1Nl9UaW1lc3RhbXBfUmVzcG9uZGVyX0Fkb2JlX05PVl8yMDI0MFkwEwYHKoZIzj0CAQYIKoZIzj0DAQcDQgAE0PwehfiBmKYqkEC8Tn6pFJnk5kkVmc8UgrcDPNrIlv0m12s5LUchFpsCFbPvDyY4VfQuH1CdtyBkcbH8yTPJXqOCAYswggGHMA4GA1UdDwEB/wQEAwIHgDAMBgNVHRMBAf8EAjAAMBYGA1UdJQEB/wQMMAoGCCsGAQUFBwMIMCAGA1UdIAQZMBcwCAYGZ4EMAQQCMAsGCWCGSAGG/WwHATAfBgNVHSMEGDAWgBS6FtltTYUvcyl2mi91jGogj57IbzAdBgNVHQ4EFgQU7NEcb3znoE3kMT+HAAjUrdR9NrswWgYDVR0fBFMwUTBPoE2gS4ZJaHR0cDovL2NybDMuZGlnaWNlcnQuY29tL0RpZ2lDZXJ0VHJ1c3RlZEc0UlNBNDA5NlNIQTI1NlRpbWVTdGFtcGluZ0NBLmNybDCBkAYIKwYBBQUHAQEEgYMwgYAwJAYIKwYBBQUHMAGGGGh0dHA6Ly9vY3NwLmRpZ2ljZXJ0LmNvbTBYBggrBgEFBQcwAoZMaHR0cDovL2NhY2VydHMuZGlnaWNlcnQuY29tL0RpZ2lDZXJ0VHJ1c3RlZEc0UlNBNDA5NlNIQTI1NlRpbWVTdGFtcGluZ0NBLmNydDANBgkqhkiG9w0BAQsFAAOCAgEAouzBIPJ5Ly2riyO3AI9tQ4JzBK4dJp7QreHOLbFvciUGXWb9Z/BNXbnmsm+iImfJmGpmyJq03rlSsBqlEiE2U4lYbRUT980Q/Q6RZPhMeD9NdCErR/3g9ZYCum1X2mNIL83CEUD9wsCM6gWQBPNXOUCDYz7PNXLySzhSnf3F+8zoaEL684jQ8teVDU+X7lEXtn4qADULETWDplVwHYNkyuzpLWA/hB/w/IFq+5x0IUSTLg+eBjY4mZzT52F8+hd4+wbtmlZYq70BgALK1tuy6oYPZLFufmi/oPf5cqkaDK1i0suCg0Gs7TwfjyrJHnDtUe3WyW8O1ARVZfhmxmlHOMeh71SzTS+YR44i63/QOM8XudnvWaqUlO5A7u3bEV75vriyzF4xxUsf49LLSHMZ0B8Di+AOUUblB9V8NcM9gohryBzXKGK5Kn5G+k7CiVO57Q6jShSmd+PbARK03V8FaCHeM0v3FfwOaztSsOWjTv81EwrUJG3DIPPFxlqiJmmJiB4SLx2hNZ0XT1gmtEIa8b4qHj+OaeP86nfya1WzbKBLhAUkSDwd/lYi2qBZYpmUVHj88CmL8k63eoO9plbReD62278tZKglJrGQzBap99w0dDfEM6pM4q927nzciOZPeUatzV3G3zWA8famfIIwruDR7UsQHSSrMM2/YIuo8hUwggauMIIElqADAgECAhAHNje3JFR82Ees/ShmKl5bMA0GCSqGSIb3DQEBCwUAMGIxCzAJBgNVBAYTAlVTMRUwEwYDVQQKEwxEaWdpQ2VydCBJbmMxGTAXBgNVBAsTEHd3dy5kaWdpY2VydC5jb20xITAfBgNVBAMTGERpZ2lDZXJ0IFRydXN0ZWQgUm9vdCBHNDAeFw0yMjAzMjMwMDAwMDBaFw0zNzAzMjIyMzU5NTlaMGMxCzAJBgNVBAYTAlVTMRcwFQYDVQQKEw5EaWdpQ2VydCwgSW5jLjE7MDkGA1UEAxMyRGlnaUNlcnQgVHJ1c3RlZCBHNCBSU0E0MDk2IFNIQTI1NiBUaW1lU3RhbXBpbmcgQ0EwggIiMA0GCSqGSIb3DQEBAQUAA4ICDwAwggIKAoICAQDGhjUGSbPBPXJJUVXHJQPE8pE3qZdRodbSg9GeTKJtoLDMg/la9hGhRBVCX6SI82j6ffOciQt/nR+eDzMfUBMLJnOWbfhXqAJ9/UO0hNoR8XOxs+4rgISKIhjf69o9xBd/qxkrPkLcZ47qUT3w1lbU5ygt69OxtXXnHwZljZQp09nsad/ZkIdGAHvbREGJ3HxqV3rwN3mfXazL6IRktFLydkf3YYMZ3V+0VAshaG43IbtArF+y3kp9zvU5EmfvDqVjbOSmxR3NNg1c1eYbqMFkdECnwHLFuk4fsbVYTXn+149zk6wsOeKlSNbwsDETqVcplicu9Yemj052FVUmcJgmf6AaRyBD40NjgHt1biclkJg6OBGz9vae5jtb7IHeIhTZgirHkr+g3uM+onP65x9abJTyUpURK1h0QCirc0PO30qhHGs4xSnzyqqWc0Jon7ZGs506o9UD4L/wojzKQtwYSH8UNM/STKvvmz3+DrhkKvp1KCRB7UK/BZxmSVJQ9FHzNklNiyDSLFc1eSuo80VgvCONWPfcYd6T/jnA+bIwpUzX6ZhKWD7TA4j+s4/TXkt2ElGTyYwMO1uKIqjBJgj5FBASA31fI7tk42PgpuE+9sJ0sj8eCXbsq11GdeJgo1gJASgADoRU7s7pXcheMBK9Rp6103a50g5rmQzSM7TNsQIDAQABo4IBXTCCAVkwEgYDVR0TAQH/BAgwBgEB/wIBADAdBgNVHQ4EFgQUuhbZbU2FL3MpdpovdYxqII+eyG8wHwYDVR0jBBgwFoAU7NfjgtJxXWRM3y5nP+e6mK4cD08wDgYDVR0PAQH/BAQDAgGGMBMGA1UdJQQMMAoGCCsGAQUFBwMIMHcGCCsGAQUFBwEBBGswaTAkBggrBgEFBQcwAYYYaHR0cDovL29jc3AuZGlnaWNlcnQuY29tMEEGCCsGAQUFBzAChjVodHRwOi8vY2FjZXJ0cy5kaWdpY2VydC5jb20vRGlnaUNlcnRUcnVzdGVkUm9vdEc0LmNydDBDBgNVHR8EPDA6MDigNqA0hjJodHRwOi8vY3JsMy5kaWdpY2VydC5jb20vRGlnaUNlcnRUcnVzdGVkUm9vdEc0LmNybDAgBgNVHSAEGTAXMAgGBmeBDAEEAjALBglghkgBhv1sBwEwDQYJKoZIhvcNAQELBQADggIBAH1ZjsCTtm+YqUQiAX5m1tghQuGwGC4QTRPPMFPOvxj7x1Bd4ksp+3CKDaopafxpwc8dB+k+YMjYC+VcW9dth/qEICU0MWfNthKWb8RQTGIdDAiCqBa9qVbPFXONASIlzpVpP0d3+3J0FNf/q0+KLHqrhc1DX+1gtqpPkWaeLJ7giqzl/Yy8ZCaHbJK9nXzQcAp876i8dU+6WvepELJd6f8oVInw1YpxdmXazPByoyP6wCeCRK6ZJxurJB4mwbfeKuv2nrF5mYGjVoarCkXJ38SNoOeY+/umnXKvxMfBwWpx2cYTgAnEtp/Nh4cku0+jSbl3ZpHxcpzpSwJSpzd+k1OsOx0ISQ+UzTl63f8lY5knLD0/a6fxZsNBzU+2QJshIUDQtxMkzdwdeDrknq3lNHGS1yZr5Dhzq6YBT70/O3itTK37xJV77QpfMzmHQXh6OOmc4d0j/R0o08f56PGYX/sr2H7yRp11LB4nLCbbbxV7HhmLNriT1ObyF5lZynDwN7+YAN8gFk8n+2BnFqFmut1VwDophrCYoCvtlUG3OtUVmDG0YgkPCr2B2RP+v6TR81fZvAT6gt4y3wSJ8ADNXcL50CN/AAvkdgIm2fBldkKmKYcJRyvmfxqkhQ/8mJb2VVQrH4D6wPIOK+XW+6kvRBVK5xMOHds3OBqhK/bt1nz8MYIBuTCCAbUCAQEwdzBjMQswCQYDVQQGEwJVUzEXMBUGA1UEChMORGlnaUNlcnQsIEluYy4xOzA5BgNVBAMTMkRpZ2lDZXJ0IFRydXN0ZWQgRzQgUlNBNDA5NiBTSEEyNTYgVGltZVN0YW1waW5nIENBAhAMCy/HenjPuu1lVlTBmiQDMA0GCWCGSAFlAwQCAQUAoIHRMBoGCSqGSIb3DQEJAzENBgsqhkiG9w0BCRABBDAcBgkqhkiG9w0BCQUxDxcNMjUwNTAxMDM1ODEwWjArBgsqhkiG9w0BCRACDDEcMBowGDAWBBT3EwJUZBucztJRLWLFv58phIz8+DAvBgkqhkiG9w0BCQQxIgQgxHJf5dIEhZGZQ0U+AyxJ+AHMvSPdJjLvs7cLUmYM2BAwNwYLKoZIhvcNAQkQAi8xKDAmMCQwIgQguXomaB0Y6bl8Yz74SDlkVXWXltpQQ0Qsj4zN5SfgAKkwCgYIKoZIzj0EAwIESDBGAiEAoFPMaOv2MqL1GSKrb2qqn1/eI3vuBQ4eQmumkSVAxj0CIQDKM5xbeY48s4+tYaFKguPN3bLf5KPcEOklvVd9W8njIGVyVmFsc6Fob2NzcFZhbHOBWQjYMIII1AoBAKCCCM0wggjJBgkrBgEFBQcwAQEEggi6MIIItjCBnqIWBBQ0/gl1LZPsFQALEWbCnKjOEiFd8BgPMjAyNTA0MjcyMTA1MzBaMHMwcTBJMAkGBSsOAwIaBQAEFLvfcyV72yOix06JXd/8EYWom4sBBBRXKXoyTcz+5DVOwB8kc85zU6vfagIQFY3/J6wj0rglS05jNx4dnoAAGA8yMDI1MDQyNzIxMDUzMFqgERgPMjAyNTA1MDQyMTA1MzBaMA0GCSqGSIb3DQEBCwUAA4ICAQCwhWiT6cw40dh2BpAtP6MeHzya0FJbb2zHzPDxhZ6U7NUze8CIQZKUAE+NvTKytRPdt2tLczHF6CLtqzfeVCuDCZnSyvWQ5YARjYODCyRoh2nm0ZkcOg9i2EkvujbMaAoa57/siWfBw5inw5J/5LP4JHjZSyM0bWIrL/qifsh8Fd2nBfnpZOu2JJbKdVhp/buJ2/qyvJAZePmDEIHxN0iwOoyHuLGwQfdmsHM/crzxgEUmH1jIudxYqQwLhLznBd5rGk/HewvWlO6i52PswbdpfgxzEv8jTdpMD8/qgdM2wSb0VG7MXF077J/uUua0/yi1jo2IIsTsJumVn/zfujcKUllW4j07UQ6DdLfp1UVV4kaGOJmmZ65ZEQsKl8hrOto7C3TstPtDa5bMdS9yscEpuGCeyrYmylVpM/dSuzXBMfh4hdFe6ZFeB1gDgF2lyr/NBTc/gGDOGenG4sJXDOJDKXh1fHTedDDPWJrGE1Z56aDIxY9Ny3ykcTInhJVqHp/dKcXCLTmdbUDdTiy/GoBSbUkmC8AEzMgL2S6l56FZv2kWftcrcugBpWQC5kvliKL3UhUBwseXf9p2Q44At7hBYqR/nKCyQgkFj43q5bt6u/neaZqwSC8uYZvfx3+MW0TS51M6DtPtKadK+sMacdH3apSf9ajSMk6RgPK7Zngm3KCCBf0wggX5MIIF9TCCA92gAwIBAgIUJ8YtPJ512krbltSMoji9I9sPW/AwDQYJKoZIhvcNAQELBQAwdTELMAkGA1UEBhMCVVMxIzAhBgNVBAoTGkFkb2JlIFN5c3RlbXMgSW5jb3Jwb3JhdGVkMR0wGwYDVQQLExRBZG9iZSBUcnVzdCBTZXJ2aWNlczEiMCAGA1UEAxMZQWRvYmUgUHJvZHVjdCBTZXJ2aWNlcyBHMzAeFw0yNTAyMTMyMDIzMzFaFw0yNTA1MTQyMDIzMzFaMHoxCzAJBgNVBAYTAlVTMSMwIQYDVQQKExpBZG9iZSBTeXN0ZW1zIEluY29ycG9yYXRlZDFGMEQGA1UEAxM9QWRvYmUgUHJvZHVjdCBTZXJ2aWNlcyBHMyBPQ1NQIFJlc3BvbmRlciAyMDI1LTAyLTEzVDIwOjIzOjMxWjCCAiIwDQYJKoZIhvcNAQEBBQADggIPADCCAgoCggIBANQ0o7POcbX6Ws5sGzc1IihCYMUOWC/D80yw5gEA8rbB1s4Aia6OF1yiT3c+PhAKQx5YrzevWG4JUlJAeffkyhtG1kg/hZ/k4WSjgxGsSXgMpvr+sK6Ns7G0P4xwdeXe/MrWT10woNlFamEA4ZFbAA13KcJeDY/ep6qtWrGrDM/t3l+R5RH5/+v0rCLTY782LpMS57Oi/yuzck+F0QVd9YkZpOkmm25ue77xFeWd+s28i+lQX67LEzhQxCsBS+QEVJ6EkVzZQsRqjNCi9UJuiHYlH0q5aVSCIfBEPtT1xBP7OZwh1ZS4Y95B1fDlxM2Fd9xrpHFUis37sXr56x8rBqpg8crTh0fyvOLGfEAF/1zySiBuSAwZ4fGBEFARjOeuBgbGSy87AyOhvbcOCht6PVR6NXi/anCFyXLJ9YhOkhzskGgOyhcgwkoUMgZbHOL4FunOVm4XCFHxZx8aTPmsQIg/brt/+u88bv+OhO9FB8f17RGL6PUIqst2Dkhu5N9LQU94SzxciIdmePBsLJnz3fvACVH9z4prBxjiAvKYvbKDM/sZmBXQ26qX9ATsDWsVb3d2NUH4iLK3t+lxXKocqWvTt/I/O2RUPK1zvVYeZrC3SIO4vB7+n/o08KbVKs/Of2a2OCvo+udERO/cAyiKBDq8aeBlSHF+o5Tkc1818maNAgMBAAGjeDB2MB0GA1UdDgQWBBQ0/gl1LZPsFQALEWbCnKjOEiFd8DAfBgNVHSMEGDAWgBRXKXoyTcz+5DVOwB8kc85zU6vfajAOBgNVHQ8BAf8EBAMCB4AwEwYDVR0lBAwwCgYIKwYBBQUHAwkwDwYJKwYBBQUHMAEFBAIFADANBgkqhkiG9w0BAQsFAAOCAgEAMY/zIflyAdevSlpP58uq207Jbqjl04ZnPsA/+U39i9N37xLZdzTcDRAjEcSRnll/bEbu//SH3GDwFebRvWh5Q7YGj6AdmBQ685oqgPgVzxuZHRD/JB3PxcJLtAOqEO6WZ0n5XU2SDmQuyWDLSL3vYaSG4C2CYqYkxs9fo6OPoSM8rebzEBbNHUDOmdx5KhFHMZUkH6b3OAzPz/UcYZ5QHBdIW9m3wDtRLKgQdClLZq+3ANW6DSlK32NjU8kxHG+XuMZX9ukHOYym6e7jDrxHNpagQh26BU10JiKBsNoCxcAGPtjmIn6RUvrpqtz9uJAeQoVkYXMS40+bdXGSqAMPqDb37ZcTm3Vf3IYTN9/vciW15xPv5EV2FJvDzGpw2hXYEckomNSecHfFn1Ow3qYQQdIcDcoJr914PzxhGe7o9kBK+6w+fPLgeHIyQWQPO57nekHv5AuxUARgwTgLXTUmo/SKzpSBElLPnNZ1F+NrXTARGXkMslGdqQH178rhPAZD7E0AALtX7H16WWMYgWcRc3oTVQE1NyJgW/YGJKv87cYDo/eqC3coM0mkbV0/zju8rgls5pH8ci8r1T0NBq5jbwYDxDVY2LnQlDp1tVVp2P7cfsEXac/BRc5FsDOxuPlxS6VC9kAdi+2tH7HEeY4EjZ5y6RytdPnN2mgVTBB6lMdjcGFkWQqXAAAAAAAAAAAAAAAAAAAAAAAAAAAAAAAAAAAAAAAAAAAAAAAAAAAAAAAAAAAAAAAAAAAAAAAAAAAAAAAAAAAAAAAAAAAAAAAAAAAAAAAAAAAAAAAAAAAAAAAAAAAAAAAAAAAAAAAAAAAAAAAAAAAAAAAAAAAAAAAAAAAAAAAAAAAAAAAAAAAAAAAAAAAAAAAAAAAAAAAAAAAAAAAAAAAAAAAAAAAAAAAAAAAAAAAAAAAAAAAAAAAAAAAAAAAAAAAAAAAAAAAAAAAAAAAAAAAAAAAAAAAAAAAAAAAAAAAAAAAAAAAAAAAAAAAAAAAAAAAAAAAAAAAAAAAAAAAAAAAAAAAAAAAAAAAAAAAAAAAAAAAAAAAAAAAAAAAAAAAAAAAAAAAAAAAAAAAAAAAAAAAAAAAAAAAAAAAAAAAAAAAAAAAAAAAAAAAAAAAAAAAAAAAAAAAAAAAAAAAAAAAAAAAAAAAAAAAAAAAAAAAAAAAAAAAAAAAAAAAAAAAAAAAAAAAAAAAAAAAAAAAAAAAAAAAAAAAAAAAAAAAAAAAAAAAAAAAAAAAAAAAAAAAAAAAAAAAAAAAAAAAAAAAAAAAAAAAAAAAAAAAAAAAAAAAAAAAAAAAAAAAAAAAAAAAAAAAAAAAAAAAAAAAAAAAAAAAAAAAAAAAAAAAAAAAAAAAAAAAAAAAAAAAAAAAAAAAAAAAAAAAAAAAAAAAAAAAAAAAAAAAAAAAAAAAAAAAAAAAAAAAAAAAAAAAAAAAAAAAAAAAAAAAAAAAAAAAAAAAAAAAAAAAAAAAAAAAAAAAAAAAAAAAAAAAAAAAAAAAAAAAAAAAAAAAAAAAAAAAAAAAAAAAAAAAAAAAAAAAAAAAAAAAAAAAAAAAAAAAAAAAAAAAAAAAAAAAAAAAAAAAAAAAAAAAAAAAAAAAAAAAAAAAAAAAAAAAAAAAAAAAAAAAAAAAAAAAAAAAAAAAAAAAAAAAAAAAAAAAAAAAAAAAAAAAAAAAAAAAAAAAAAAAAAAAAAAAAAAAAAAAAAAAAAAAAAAAAAAAAAAAAAAAAAAAAAAAAAAAAAAAAAAAAAAAAAAAAAAAAAAAAAAAAAAAAAAAAAAAAAAAAAAAAAAAAAAAAAAAAAAAAAAAAAAAAAAAAAAAAAAAAAAAAAAAAAAAAAAAAAAAAAAAAAAAAAAAAAAAAAAAAAAAAAAAAAAAAAAAAAAAAAAAAAAAAAAAAAAAAAAAAAAAAAAAAAAAAAAAAAAAAAAAAAAAAAAAAAAAAAAAAAAAAAAAAAAAAAAAAAAAAAAAAAAAAAAAAAAAAAAAAAAAAAAAAAAAAAAAAAAAAAAAAAAAAAAAAAAAAAAAAAAAAAAAAAAAAAAAAAAAAAAAAAAAAAAAAAAAAAAAAAAAAAAAAAAAAAAAAAAAAAAAAAAAAAAAAAAAAAAAAAAAAAAAAAAAAAAAAAAAAAAAAAAAAAAAAAAAAAAAAAAAAAAAAAAAAAAAAAAAAAAAAAAAAAAAAAAAAAAAAAAAAAAAAAAAAAAAAAAAAAAAAAAAAAAAAAAAAAAAAAAAAAAAAAAAAAAAAAAAAAAAAAAAAAAAAAAAAAAAAAAAAAAAAAAAAAAAAAAAAAAAAAAAAAAAAAAAAAAAAAAAAAAAAAAAAAAAAAAAAAAAAAAAAAAAAAAAAAAAAAAAAAAAAAAAAAAAAAAAAAAAAAAAAAAAAAAAAAAAAAAAAAAAAAAAAAAAAAAAAAAAAAAAAAAAAAAAAAAAAAAAAAAAAAAAAAAAAAAAAAAAAAAAAAAAAAAAAAAAAAAAAAAAAAAAAAAAAAAAAAAAAAAAAAAAAAAAAAAAAAAAAAAAAAAAAAAAAAAAAAAAAAAAAAAAAAAAAAAAAAAAAAAAAAAAAAAAAAAAAAAAAAAAAAAAAAAAAAAAAAAAAAAAAAAAAAAAAAAAAAAAAAAAAAAAAAAAAAAAAAAAAAAAAAAAAAAAAAAAAAAAAAAAAAAAAAAAAAAAAAAAAAAAAAAAAAAAAAAAAAAAAAAAAAAAAAAAAAAAAAAAAAAAAAAAAAAAAAAAAAAAAAAAAAAAAAAAAAAAAAAAAAAAAAAAAAAAAAAAAAAAAAAAAAAAAAAAAAAAAAAAAAAAAAAAAAAAAAAAAAAAAAAAAAAAAAAAAAAAAAAAAAAAAAAAAAAAAAAAAAAAAAAAAAAAAAAAAAAAAAAAAAAAAAAAAAAAAAAAAAAAAAAAAAAAAAAAAAAAAAAAAAAAAAAAAAAAAAAAAAAAAAAAAAAAAAAAAAAAAAAAAAAAAAAAAAAAAAAAAAAAAAAAAAAAAAAAAAAAAAAAAAAAAAAAAAAAAAAAAAAAAAAAAAAAAAAAAAAAAAAAAAAAAAAAAAAAAAAAAAAAAAAAAAAAAAAAAAAAAAAAAAAAAAAAAAAAAAAAAAAAAAAAAAAAAAAAAAAAAAAAAAAAAAAAAAAAAAAAAAAAAAAAAAAAAAAAAAAAAAAAAAAAAAAAAAAAAAAAAAAAAAAAAAAAAAAAAAAAAAAAAAAAAAAAAAAAAAAAAAAAAAAAAAAAAAAAAAAAAAAAAAAAAAAAAAAAAAAAAAAAAAAAAAAAAAAAAAAAAAAAAAAAAAAAAAAAAAAAAAAAAAAAAAAAAAAAAAAAAAAAAAAAAAAAAAAAAAAAAAAAAAAAAAAAAAAAAAAAAAAAAAAAAAAAAAAAAAAAAAAAAAAAAAAAAAAAAAAAAAAAAAAAAAAAAAAAAAAAAAAAAAAAAAAAAAAAAAAAAAAAAAAAAAAAAAAAAAAAAAAAAAAAAAAAAAAAAAAAAAAAAAAAAAAAAAAAAAAAAAAAAAAAAAAAAAAAAAAAAAAAAAAAAAAAAAAAAAAAAAAAAAAAAAAAAAAAAAAAAAAAAAAAAAAAAAAAAAAAAAAAAAAAAAAAAAAAAAAAAAAAAAAAAAAAAAAAAAAAAAAAAAAAAAAAAAAAAAAAAAAAAAAAAAAAAAAAAAAAAAAAAAAAAAAAAAAAAAAAAAAAAAAAAAAAAAAAAAAAAAAAAAAAAAAAAAAAAAAAAAAAAAAAAAAAAAAAAAAAAAAAAAAAAAAAAAAAAAAAAAAAAAAAAAAAAAAAAAAAAAAAAAAAAAAAAAAAAAAAAAAAAAAAAAAAAAAAAAAAAAAAAAAAAAAAAAAAAAAAAAAAAAAAAAAAAAAAAAAAAAAAAAAAAAAAAAAAAAAAAAAAAAAAAAAAAAAAAAAAAAAAAAAAAAAAAAAAAAAAAAAAAAAAAAAAAAAAAAAAAAAAAAAAAAAAAAAAAAAAAAAAAAAAAAAAAAAAAAAAAAAAAAAAAAAAAAAAAAAAAAAAAAAAAAAAAAAAAAAAAAAAAAAAAAAAAAAAAAAAAAAAAAAAAAAAAAAAAAAAAAAAAAAAAAAAAAAAAAAAAAAAAAAAAAAAAAAAAAAAAAAAAAAAAAAAAAAAAAAAAAAAAAAAAAAAAAAAAAAAAAAAAAAAAAAAAAAAAAAAAAAAAAAAAAAAAAAAAAAAAAAAAAAAAAAAAAAAAAAAAAAAAAAAAAAAAAAAAAAAAAAAAAAAAAAAAAAAAAAAAAAAAAAAAAAAAAAAAAAAAAAAAAAAAAAAAAAAAAAAAAAAAAAAAAAAAAAAAAAAAAAAAAAAAAAD2WQEAtDNOekNwUT6de+hBFpxCOwGHbFJt9jRcgA3LxoZTinjmq7PDpKodwQxDcycGq995PPjP7AqdfkPgMj86dPrriS95ctiG0e7HEvozqMmhLv9lQ04SuaWh+5VkjaP+tXHuRIuPaoX/iHlBVMehyH4TctjjGrdE8JKDM2f/0ONsXoMy16klpTrAP4PA3mtSd/QBUymgZ0PcuXMtcztmcl5tpL8opK25V72FeaDfmL7/GHm8IeTBMEEyfUBNZr4OjjrRdW0WFSkKnlKKhtk2FJ5hP4otJeXD8C2tO5pGvmReNlIMuaXHzoN9Be5cJ4z7+1Up/sk6A/he22jtlP26pS14Sw==</c2pa:manifest></metadata>
  <defs>
    <style>
      .cls-1 {
        fill: #fbc35d;
      }

      .cls-2 {
        fill: #fcfbe6;
      }

      .cls-3 {
        fill: #bce3fc;
      }

      .cls-4 {
        fill: #7ef5c9;
      }

      .cls-5 {
        fill: #f4faff;
      }

      .cls-6 {
        fill: #fef7ba;
      }

      .cls-7 {
        fill: url(#Degradado_sin_nombre_1217);
      }

      .cls-8 {
        fill: #fdfbd5;
      }

      .cls-9 {
        fill: #fff;
      }

      .cls-10 {
        fill: #ffe555;
      }

      .cls-11 {
        fill: #9ad4f8;
      }

      .cls-12 {
        fill: #4deba4;
      }

      .cls-13 {
        fill: #c81e1c;
      }

      .cls-14 {
        fill: #fffb74;
      }

      .cls-15 {
        fill: #ffd316;
      }

      .cls-16 {
        fill: #d84242;
      }

      .cls-17 {
        fill: #f5d29e;
      }

      .cls-18 {
        fill: #2b5f81;
      }

      .cls-19 {
        fill: #6290a5;
      }

      .cls-20 {
        fill: #437b97;
      }

      .cls-21 {
        fill: #f23d3b;
      }

      .cls-22 {
        fill: #68aed2;
      }
    </style>
    <linearGradient id="Degradado_sin_nombre_1217" data-name="Degradado sin nombre 1217" x1="143.09" y1="24.39" x2="208.63" y2="113.1" gradientUnits="userSpaceOnUse">
      <stop offset=".09" stop-color="#d8f0fe"/>
      <stop offset="1" stop-color="#a6dafa"/>
    </linearGradient>
  </defs>
  <g id="Capa_7" data-name="Capa 7">
    <g id="ovni">
      <g>
        <path class="cls-19" d="M177.77,226.01c-1.17,0-2.32-.41-3.22-1.18-.69-.58-1.43-1.16-2.18-1.74-4.75-3.7-11.93-9.29-9.23-19.29.67-2.47,2.95-5.68,5.58-7.58-.01-.27-.03-.54-.06-.81-.21-1.91-.39-3.83-.58-5.74-.32-3.34-.65-6.75-1.13-10.09-.55-.03-1.1-.06-1.66-.09-6.27-.33-12.75-.67-19.11-1.47-3.58-.45-8.11-1.46-12.89-2.52-5.31-1.18-11.31-2.51-14.6-2.66l-12.58,18c1.17,2.17,1.76,4.65,1.67,7.19-.15,4.23-2.11,8.15-5.37,10.76-4.08,3.27-8.04,3.47-11.54,3.64h-.07c-.76.44-1.94.99-3.42.99-.63,0-1.26-.1-1.85-.29-.15-.05-.3-.11-.45-.17-2.51-1.1-4.79-3.66-4.29-7.68-.09-.19-.17-.37-.26-.55-1.84-3.93-4.35-9.31.5-16.22,1.97-2.81,5.21-4.68,9.14-5.35l7.49-15.13c-13.6-4.44-26.8-10.25-41.09-18.04-.42-.23-.97-.47-1.55-.72-1.39-.61-3.05-1.33-4.57-2.56l-.13-.03c-15.54-3.38-44.47-9.67-45.18-31.87-.02-.5-.05-.96-.07-1.39-.16-2.52-.35-5.65,2.62-9.04,1.25-1.43,2.71-2.15,3.77-2.68.28-.14.6-.3.74-.39,1.6-1.05,3.17-1.83,4.7-2.58.73-.36,1.47-.73,2.2-1.12.6-.33,1.18-.61,1.76-.89.32-.15.64-.31.96-.47,4.68-2.39,8.96-4.23,13.49-6.17l1.2-.51c.46-.2.91-.37,1.36-.55.29-.11.58-.22.87-.34.86-.36,1.84-.77,2.9-1.22,13.1-5.54,26.58-10.95,35.32-11.36,10.61-30.46,38.48-57.6,69.28-66.93,9.2-2.79,19.39-4.15,31.14-4.15.51,0,1.02,0,1.53,0,18.51.18,34.57,4.4,50.55,13.27,21.85,12.13,40.17,33.78,49.19,58.06,14.56,3.68,26.19,7.23,40.86,13.66,4.77,2.1,9.31,4.29,13.85,6.7.7.37,1.24.72,1.68.99.2.13.39.25.58.36.86.48,1.69.9,2.51,1.31,1.84.93,3.74,1.89,5.78,3.33.73.51,1.34.85,1.93,1.18,4.16,2.33,5.33,4.62,5.44,10.68.39,21.8-31.29,28.81-46.77,32.18-1.78,1.37-3.68,2.31-5.39,3.16-.64.32-1.27.63-1.89.97-11.92,6.49-24.94,12.18-39.64,17.33l6.57,14.85c4.21.59,6.74,2.61,8.18,4.35,3.05,3.69,3.92,9.16,2.56,16.26-.2,1.06-.66,1.94-1.1,2.64.63,6.28-3.8,7.9-5.23,8.26-.62.15-1.24.23-1.86.23-2.48,0-4.24-1.2-5.28-2.12-.38-.04-.77-.08-1.17-.12-3.2-.29-8.03-.72-11.57-6.59-2.94-4.87-3.03-10.18-.34-14.92l-11.97-18.14c-3.05.29-8.99,1.61-13.88,2.69-4.75,1.05-9.24,2.05-12.26,2.44-6.81.89-14.02,1.44-21.91,1.68l-1.96,16.58c1.94,1.54,3.77,3.51,4.45,5.01,4.96,10.91-3.56,18.17-8.3,21.9-.71,1.03-2.02,2.64-4.38,2.81-.12,0-.25.01-.37.01Z"/>
        <path class="cls-9" d="M177.37,10c.5,0,1,0,1.49,0,17.55.17,32.74,4.07,48.17,12.64,21.56,11.97,39.04,33.44,47.3,56.46l-5.23.22.87.44c1.1.23,2.97.2,3.92.44.58.14.91.34,1.31.44,15.64,3.89,27.48,7.45,42.29,13.95,4.65,2.04,9.03,4.16,13.51,6.54.91.48,1.53.95,2.18,1.31,2.74,1.52,5.21,2.51,7.85,4.36,4.03,2.82,5.12,1.55,5.23,7.85.32,18.22-30.15,24.44-44.03,27.47-2.14,1.96-4.91,3-7.41,4.36-14.08,7.66-28.8,13.68-44.03,18.75l10.03,22.67c.27-.01.53-.02.79-.02,8.92,0,9.75,7.61,8.37,14.84-.14.71-1.1,1.78-1.31,2.4-.27.79,1.29,3.93-1.31,4.58-.23.06-.45.08-.65.08-1.69,0-2.58-1.73-3.05-1.83-4.16-.86-7.73.32-10.68-4.58-2.42-4.01-2.02-7.95.87-11.55.09-.11.38-.81.44-.87l-14.82-22.45c-.39-.58-.78-.66-1.26-.66-.18,0-.38.01-.6.01-.03,0-.07,0-.1,0-.05,0-.11,0-.16,0-5.19,0-21.1,4.37-27.74,5.23-8.47,1.1-17.16,1.61-25.72,1.74l-2.83,23.98c1.25.37,4.65,3.3,5.23,4.58,3.36,7.39-2.2,12.28-7.41,16.35-.15.12-.78,1.28-1.09,1.31-4.88-4.11-11.97-7.9-9.81-15.91.47-1.76,2.96-4.83,4.8-5.45.03,0,.06-.01.09-.01.08,0,.18.02.26.02.03,0,.06,0,.09-.01.06-.21.81-.86.87-.87-.37-1.29-.29-2.62-.44-3.92-.74-6.67-1.14-13.46-2.4-20.05-8.11-.48-16.36-.73-24.41-1.74-7.79-.98-21.84-5.1-28.34-5.23-.39,0-.8-.06-1.19-.06-.63,0-1.22.12-1.64.71l-15.69,22.45c4.16,3.84,3.61,10.54-.65,13.95-3.15,2.52-6.07,2.4-9.81,2.62-.52.03-1.32.92-2.1.92-.1,0-.2-.01-.3-.05-2.34-1.02-.98-3.45-1.09-3.71-1.92-4.57-4.65-7.91-.87-13.3,1.82-2.59,5.31-3.48,8.28-3.49l11.33-22.89c-16.25-4.82-30.96-11.32-45.78-19.4-1.98-1.08-4.52-1.7-6.1-3.49-14.84-3.25-42.12-8.55-42.72-27.47-.1-3.16-.65-4.74,1.31-6.98.93-1.06,2.38-1.45,3.49-2.18,2.1-1.37,4.35-2.3,6.54-3.49.9-.49,1.73-.86,2.62-1.31,4.92-2.52,9.34-4.38,14.39-6.54.73-.32,1.46-.57,2.18-.87,8.66-3.61,27.98-12.22,37.32-12.22.21,0,.41,0,.61.01.02,0,.03,0,.05,0,.34,0,.26-.18.39-.18.07,0,.18.04.43.18.42.22.48.47.87.87,8.94-30.9,36.55-58.67,67.36-68.01,9.88-3,20.03-3.93,29.68-3.93M177.37,0c-12.24,0-22.9,1.43-32.58,4.36-16.72,5.07-32.65,14.9-46.08,28.45-11.37,11.47-20.05,24.69-25.38,38.62-9.34,1.38-21.66,6.34-33.64,11.4-1.05.44-2.02.85-2.88,1.21-.25.1-.5.2-.76.3-.5.2-1.01.39-1.52.61l-1.17.5c-4.62,1.98-8.99,3.85-13.83,6.32-.29.15-.58.29-.86.42-.58.28-1.23.6-1.97,1-.62.33-1.3.67-2.03,1.03-1.55.76-3.29,1.63-5.1,2.8-.11.06-.23.11-.34.17-1.27.63-3.4,1.69-5.3,3.86C-.4,106.01-.09,110.84.09,113.72c.02.38.05.79.07,1.24.26,8.2,4.08,19.69,20.78,27.87,9.08,4.44,19.53,6.81,27.41,8.53,1.72,1.2,3.41,1.93,4.69,2.49.44.19.93.4,1.15.53,12.65,6.9,24.48,12.28,36.47,16.54l-3.91,7.9c-4.09,1.21-7.51,3.55-9.8,6.8-6.21,8.85-3.2,16.31-1.22,20.61-.05,5.53,3.35,9.55,7.35,11.3.3.13.6.24.9.34,1.1.36,2.25.54,3.41.54,1.93,0,3.55-.51,4.74-1.04,3.71-.21,8.52-.76,13.42-4.68,4.4-3.52,7.04-8.8,7.24-14.49.08-2.33-.26-4.63-.98-6.78l9.3-13.3c3.11.48,7.44,1.44,11.1,2.25,4.91,1.09,9.54,2.12,13.35,2.6,5.68.72,11.39,1.07,16.95,1.37.21,1.89.4,3.82.59,5.79.13,1.31.25,2.64.39,3.99-2.56,2.53-4.47,5.71-5.19,8.37-1.59,5.88-.62,11.61,2.8,16.55,2.41,3.49,5.61,5.99,8.19,7.99.74.58,1.44,1.12,2.03,1.62,1.81,1.52,4.09,2.35,6.44,2.35.25,0,.5,0,.75-.03,4.01-.3,6.41-2.7,7.65-4.31,2.87-2.3,5.93-5.06,8.14-8.68,3.55-5.81,3.92-12.47,1.06-18.77-.73-1.61-2.09-3.37-3.73-4.97l1.15-9.71c6.4-.3,12.38-.81,18.09-1.56,3.24-.42,7.83-1.44,12.69-2.52,2.96-.66,7.26-1.61,10.36-2.17l8.69,13.17c-2.09,5.56-1.53,11.61,1.77,17.07,4.71,7.8,11.56,8.63,15.09,8.96,1.66,1.15,4.06,2.28,7.21,2.28,1.02,0,2.05-.13,3.06-.38,1.01-.25,9.19-2.58,9.09-11.98.38-.8.73-1.75.94-2.83,1.64-8.63.42-15.49-3.62-20.38-1.68-2.03-4.37-4.32-8.49-5.52l-3.36-7.61c12.9-4.75,24.52-9.96,35.29-15.82.51-.28,1.1-.57,1.72-.88,1.57-.78,3.41-1.69,5.26-2.98,7.57-1.65,18.34-4.12,27.82-8.54,18.33-8.53,22-20.15,21.86-28.39-.12-6.7-1.46-11.3-8-14.95-.53-.29-.98-.55-1.5-.91-2.34-1.64-4.49-2.73-6.39-3.69-.82-.42-1.59-.81-2.35-1.23-.09-.05-.2-.13-.32-.2-.48-.31-1.15-.73-2.01-1.19-4.65-2.47-9.29-4.72-14.19-6.87-14.03-6.16-25.72-9.82-39.13-13.29-9.73-24.37-28.38-45.95-50.5-58.23C215.15,4.61,198.33.2,178.96,0c-.53,0-1.06,0-1.59,0h0Z"/>
      </g>
      <g id="Objeto_generativo" data-name="Objeto generativo">
        <path class="cls-15" d="M281.31,137.74c8.88-1.23,18.09-2.73,26.81-4.8,7.91-1.87,35.84-9.09,36.84-18.31h1.31c.32,18.22-30.15,24.44-44.03,27.47-20.76,4.53-43.29,6.56-64.52,7.85-56.04,3.4-130.26,4.1-184.85-7.85-14.84-3.25-42.12-8.55-42.72-27.47,6.17,9.24,19.01,13.62,29.43,16.57,60.14,17.01,179.17,15.22,241.74,6.54Z"/>
        <path class="cls-19" d="M70.75,148.21c2.07.51,3.93,1.84,5.67.87,34.7,12.01,113.12,9.18,151.28,6.98.76,1.08.11.9-.65,1.31-14.36,7.63-30.7,11.99-45.99,17.44-2.05.73-3.03-.37-4.36,1.09-.06,5.45.11,10.92.44,16.35-1.34,1.96,1.09,5.75-2.4,5.67l-1.09-3.05c-.74-6.67-1.14-13.46-2.4-20.05-8.11-.48-16.36-.73-24.41-1.74-7.79-.98-21.84-5.1-28.34-5.23-1-.02-2.14-.31-2.83.65l-15.69,22.45c-.53-.49-1.98-.99-2.62-1.74-.03-.35-.27.22,0-.87.29-1.15,11.3-19.25,12.21-20.27,2.5-2.81,3.29-.36,6.54-.87-2.71-1.43-8.76-3.67-11.33-1.31-.84.77-10.07,19.35-10.03,20.49s1.25,1.26,1.74,1.96c-1.24,0-1.98-.44-3.05-.44l11.33-22.89c-16.25-4.82-30.96-11.32-45.78-19.4,3.97.61,7.88,1.66,11.77,2.62Z"/>
        <path class="cls-5" d="M269.11,79.32c-6.94-14.82-16.57-28.91-28.99-39.67-1.97-1.71-17.1-12.84-18.31-12.64-1.42.23-.47,3.52-2.18,3.49-.96-.02-13.71-8.38-16.57-9.59-12.97-5.48-24.58-6.72-38.58-4.8-24.26,3.33-47.13,17.8-62.34,37.06-5.43,6.87-10.2,14.29-13.95,22.23-1.52,3.22-2.79,6.65-3.92,10.03-3.95-2.16-1.76-1.28-3.92-3.49,8.94-30.9,36.55-58.67,67.36-68.01,10.4-3.15,21.07-4.02,31.17-3.92,17.55.17,32.74,4.07,48.17,12.64,21.56,11.97,39.04,33.44,47.3,56.46l-5.23.22Z"/>
        <path class="cls-17" d="M218.97,138.18c19.49-.61,39.98-1.41,59.29-3.92.98,2.98-.46,2.78,3.05,3.49-62.57,8.68-181.6,10.47-241.74-6.54-10.42-2.95-23.26-7.33-29.43-16.57-.1-3.16-.65-4.74,1.31-6.98,1.64,12.09,18.75,16.78,28.99,19.62,51.18,14.2,125.02,12.57,178.53,10.9Z"/>
        <path class="cls-19" d="M294.83,146.46c-14.08,7.66-28.8,13.68-44.03,18.75-1.17.39-3.17-.08-4.58.44l-1.09,1.09,12.64,22.02c-.06.02-.81.84-.87.87-.65.33-2.12.82-2.62,1.31l-14.82-22.45c-.56-.84-1.11-.64-1.96-.65-5.01-.09-21.19,4.36-27.9,5.23-8.47,1.1-17.16,1.61-25.72,1.74l-2.83,23.98c-.34-.1-.9.07-1.31,0-1.54-.27-4.21-.31-5.67,0-.37-1.29-.29-2.62-.44-3.92l1.09,3.05c3.49.09,1.05-3.71,2.4-5.67.06,1.02-.2,5.09,0,5.45.05.09,1.5-.22,1.96-.22.18,0,.9,1.75,1.53-1.53.83-4.36.46-11.81.87-16.57.02-.26,1.89-3.8-.44-4.58,15.29-5.45,31.64-9.81,45.99-17.44.76-.41,1.42-.22.65-1.31.29-.02.59.02.87,0,18.66-1.12,35.34-3.38,52.97-7.41,4.21-.96,8.96-2.85,13.3-2.18Z"/>
        <path class="cls-18" d="M237.72,149.95c.79.87,2.83.04,1.09,1.74-2.54,2.48-7.34,2.57-10.25,4.36-.29.02-.59-.02-.87,0-38.15,2.21-116.58,5.03-151.28-6.98-.31-.11-5.76-4-5.67-.87-3.89-.96-7.8-2.01-11.77-2.62-1.98-1.08-4.52-1.7-6.1-3.49,54.59,11.95,128.81,11.25,184.85,7.85Z"/>
        <path class="cls-3" d="M269.11,79.32l.87.44.87,4.8c-2.85,2.36-4.76,2.89-8.28,3.92.42-.88.15-2.54,0-3.49-.16-1.03-.62-2.44-.87-3.49-2.49-10.3-5.99-15.77-12.21-23.98-7.83-10.34-17.27-18.95-28.12-26.16l-1.09.22-3.92,11.12c-15.69-14.37-29.67-20.78-50.35-25.29-1.03-.22-1.76.57-1.53-1.31,14-1.92,25.62-.68,38.58,4.8,2.86,1.21,15.61,9.57,16.57,9.59,1.71.04.76-3.26,2.18-3.49,1.21-.19,16.34,10.93,18.31,12.64,12.42,10.76,22.05,24.85,28.99,39.67Z"/>
        <path class="cls-14" d="M169.71,134.69c4.35.02,8.73.02,13.08,0,13.38-.06,26.72.05,40.11-.44.93,5.26-2.64,1.56-3.92,3.92-53.51,1.68-127.34,3.3-178.53-10.9-10.24-2.84-27.35-7.53-28.99-19.62.93-1.06,2.38-1.45,3.49-2.18-.47,9.73,13.57,14.14,21.14,16.57,39.73,12.74,91.92,12.43,133.62,12.64Z"/>
        <path class="cls-10" d="M275.21,80.63c.81,3.02,3.89,5.66.87,8.72.08-.15,1.03-3.47-.22-3.49-1.45,1.37-3.4,2.73-5.23,3.49-37.19,15.41-127.84,12.96-167.84,5.23-7.59-1.47-22.41-3.48-25.5-10.9.33-1.02,1.8-1.58,2.18-2.62.42.22.48.47.87.87,2.16,2.2-.02,1.33,3.92,3.49,11.09,6.05,38.91,8.86,52.1,10.03,39.13,3.46,79.88,2.26,118.36-5.23,2.46-.04,5.47-1.05,7.85-1.74,3.53-1.03,5.43-1.56,8.28-3.92,1.55-1.28,3.19-1.45,3.05-4.36.58.14.91.34,1.31.44Z"/>
        <path class="cls-14" d="M346.27,114.64h-1.31c.07-.6.17-3.53-.65-3.49-.45.47-.8,2.06-1.09,2.4-10.62,12.33-48.71,18.59-64.96,20.71-19.31,2.52-39.8,3.31-59.29,3.92,1.28-2.37,4.86,1.33,3.92-3.92,31-1.12,73.77-3.43,102.67-14.39,5.46-2.07,15.99-6.01,15.48-13.08,4.03,2.82,5.12,1.55,5.23,7.85Z"/>
        <path class="cls-20" d="M317.5,94.58c.96,3.71,10.85,9.92,13.51,6.54.91.48,1.53.95,2.18,1.31v.44c-3.55,5.24-15.04-3.82-18.75-6.76-.22-.17-.51-2.11-1.53-2.83-1.92-1.35-16.1-6.43-19.18-7.41-5.53-1.77-11.4-2.84-17-4.36l6.32,6.54c.24,4.97-6.22,7.63-10.25,9.16-30.8,11.64-110.78,9.43-145.39,7.41,2.08-1.64,9.92,1.3,10.03-1.74,27.08,2.31,54.66,2.44,81.74,0,9.53-.86,52.69-5.54,56.89-13.51,3.01-3.06-.06-5.7-.87-8.72,15.64,3.89,27.48,7.45,42.29,13.95Z"/>
        <path class="cls-18" d="M302.24,142.1c-2.14,1.96-4.91,3-7.41,4.36-4.33-.67-9.08,1.22-13.3,2.18-17.63,4.03-34.31,6.3-52.97,7.41,2.91-1.79,7.71-1.88,10.25-4.36,1.74-1.7-.3-.88-1.09-1.74,21.23-1.29,43.77-3.32,64.52-7.85Z"/>
        <path class="cls-20" d="M79.46,81.07c-.38,1.04-1.85,1.59-2.18,2.62-.5,1.53-.28,3.59.44,5.01,4.54,9.06,49.27,13.28,59.73,14.17-.11,3.05-7.95.1-10.03,1.74-10.92-.64-45.25-4.49-52.97-11.33-5.76-5.11-.03-8.95,4.14-12.21.59.03.1-.41.87,0Z"/>
        <path class="cls-19" d="M250.8,165.21l10.03,22.67c-.16,0-2.56.71-3.05.87l-12.64-22.02,1.09-1.09c1.41-.51,3.41-.05,4.58-.44Z"/>
        <path class="cls-13" d="M269.98,202.7c-.14.71-1.1,1.78-1.31,2.4-.27.79,1.29,3.93-1.31,4.58-1.48-2.41-.12-1.92,0-2.62,1.08-6.36-2.27-16.77-9.59-17-.14,0-.3-.02-.44,0-.33.05-.48-.11-.44-.44.06-.03.81-.85.87-.87.49-.16,2.89-.86,3.05-.87,9.66-.45,10.57,7.38,9.16,14.82Z"/>
        <path class="cls-19" d="M40.66,93.28c2.05,1.67-1.15,4.61-2.4,5.67-1.93,1.62-11.21,6.27-13.51,5.67s-.46-2.79-3.27-2.62c.9-.49,1.73-.86,2.62-1.31,3.25,4.17,4.28.71,5.01.44,2.77-1.05,3.06-.67,5.89-2.62,1.09-.75,1.09-.48,2.18-1.74.68-.79,1.58-1.24,1.31-2.62.73-.32,1.46-.57,2.18-.87Z"/>
        <path class="cls-4" d="M38.48,94.15c.27,1.38-.63,1.83-1.31,2.62-1.16-.94-1.35.82-2.18,1.74-2.82,1.94-3.11,1.57-5.89,2.62-.73.28-1.77,3.74-5.01-.44,4.92-2.52,9.34-4.38,14.39-6.54Z"/>
        <path class="cls-12" d="M331.01,101.12c-2.66,3.38-12.56-2.83-13.51-6.54,4.65,2.04,9.03,4.16,13.51,6.54Z"/>
        <path class="cls-22" d="M273.9,80.2c.13,2.91-1.5,3.08-3.05,4.36l-.87-4.8c1.1.23,2.97.2,3.92.44Z"/>
        <path class="cls-21" d="M179.73,198.78c-1.26,1.35,1.89,4.24,2.18,5.89,1.03,5.79-1.78,9.74-3.05,15.04-.15.12-.78,1.28-1.09,1.31-4.88-4.11-11.97-7.9-9.81-15.91.47-1.76,2.96-4.83,4.8-5.45-3.04,5.27-5.34,12.43,1.31,15.91-1.39-4.91-2.53-8.82.44-13.3-.79,2.58-1.54,4.84-1.31,7.63.11,1.3,2.44,8.68,3.92,7.41,1.13-.96-.16-14.89.87-17.44-1.07-1.56-1.54.25-2.18.22-.13,0-2.47-.48-2.62-.44.06-.21.81-.86.87-.87,1.46-.31,4.13-.27,5.67,0Z"/>
        <path class="cls-21" d="M267.36,207.06c-.12.69-1.48.21,0,2.62-2.12.53-3.17-1.63-3.71-1.74-4.16-.86-7.73.32-10.68-4.58-2.42-4.01-2.02-7.95.87-11.55-1.82,7.15.9,13.06,8.07,15.26.97-.79.45-.54.22-1.09-.66-1.56-4.47-5.13-5.23-7.41-.81-2.43-1.67-6.59.44-8.5.14-.02.3,0,.44,0,4.16,4.35,2.44,14.91,9.59,17Z"/>
        <path class="cls-13" d="M99.95,190.93c4.16,3.84,3.61,10.54-.65,13.95-3.15,2.52-6.07,2.4-9.81,2.62,4.23-4.22,9.47-7.84,9.16-14.6-.05-1.05-1.24-2.88-1.31-3.71.64.75,2.09,1.26,2.62,1.74Z"/>
        <path class="cls-13" d="M181.04,198.78c1.25.37,4.65,3.3,5.23,4.58,3.36,7.39-2.2,12.28-7.41,16.35,1.27-5.3,4.09-9.25,3.05-15.04-.29-1.65-3.44-4.53-2.18-5.89.41.07.97-.1,1.31,0Z"/>
        <path class="cls-21" d="M256.9,189.62c-.05.33.11.48.44.44-2.1,1.91-1.25,6.07-.44,8.5.77,2.28,4.57,5.85,5.23,7.41.23.55.76.3-.22,1.09-7.16-2.2-9.89-8.11-8.07-15.26.09-.11.38-.81.44-.87.5-.48,1.96-.98,2.62-1.31Z"/>
        <path class="cls-21" d="M175.81,200.09c-.57.66-.85,1.49-1.31,2.18-2.96,4.48-1.82,8.38-.44,13.3-6.65-3.49-4.35-10.64-1.31-15.91.13-.04.3.04.44,0,.14-.04,2.48.43,2.62.44Z"/>
        <path class="cls-20" d="M333.19,102.87c5.05,3.54,10.77,3.89,4.14,10.03-1.86,1.72-16.47,8.38-17.87,7.85-.58-.22-.76-3.16-1.09-3.92,3.38-1.14,4.85-6.48.87-7.41-.22-2.4-2.3-4.21-3.92-5.67-.55-.5-1.12-.91-1.74-1.31-4.98-3.23-11.56-5.01-17-2.18,1.43-1.81,2.65-2.46,5.23-2.83,1.21-1.73-16.41-10.06-18.75-9.37l-6.32-6.54c5.61,1.52,11.48,2.59,17,4.36,3.08.99,17.27,6.06,19.18,7.41,1.02.72,1.31,2.66,1.53,2.83,3.71,2.94,15.2,12,18.75,6.76Z"/>
        <path class="cls-10" d="M313.57,102.43l-1.31,1.53,1.74.44-1.09,1.53c-1.31-2.13-4.26-3.77-6.76-3.92-1.65-3.87-10.28-.96-6.98,4.58,2.21,3.71,2.51,1.09,4.36,1.09,2.55,0,6.11,1.64,7.63,1.31,1.72-.38,2.06-2.49,3.05-3.92.33-.47.99,1.57,1.09-1.31,1.63,1.46,3.71,3.27,3.92,5.67.98,10.91-24.9,4.17-24.41-5.67.49-1.26.89-2.4,1.74-3.49,5.44-2.83,12.02-1.05,17,2.18Z"/>
        <path class="cls-19" d="M182.79,134.69c-4.35.02-8.73.02-13.08,0l1.53-.87c-9.44-3.39-13.07-10.88-5.01-18.31-9.26,24.82,36.85,18.37,19.62-2.62,7.51,4.06,10.22,13.42,2.4,18.75-1.4.95-5.73,1.4-5.45,3.05Z"/>
        <path class="cls-20" d="M319.24,109.41c3.98.93,2.51,6.27-.87,7.41-6,2.02-21.74-2.99-24.41-8.94-1.43-3.19.39-2.88.87-4.14-.49,9.83,25.39,16.57,24.41,5.67Z"/>
        <path class="cls-17" d="M344.96,114.64c-1,9.22-28.93,16.44-36.84,18.31-8.72,2.07-17.93,3.56-26.81,4.8-3.51-.7-2.07-.51-3.05-3.49,16.25-2.12,54.33-8.38,64.96-20.71.29-.34.64-1.92,1.09-2.4.83-.04.72,2.89.65,3.49Z"/>
        <path class="cls-19" d="M97.34,188.31h-.87c-.49-.71-1.7-.84-1.74-1.96s9.19-19.72,10.03-20.49c2.57-2.36,8.63-.12,11.33,1.31-3.25.51-4.04-1.94-6.54.87-.91,1.02-11.92,19.12-12.21,20.27Z"/>
        <path class="cls-19" d="M181.04,174.8c2.33.78.46,4.32.44,4.58-.42,4.76-.04,12.21-.87,16.57-.63,3.28-1.35,1.53-1.53,1.53-.46,0-1.91.3-1.96.22-.2-.36.06-4.43,0-5.45-.33-5.43-.5-10.9-.44-16.35,1.33-1.46,2.31-.36,4.36-1.09Z"/>
        <path class="cls-19" d="M76.41,149.08c-1.74.97-3.6-.36-5.67-.87-.09-3.13,5.35.76,5.67.87Z"/>
        <path class="cls-7" d="M164.48,16.11c-.23,1.87.5,1.08,1.53,1.31,20.68,4.5,34.67,10.92,50.35,25.29,7.99,7.32,14.75,16.14,21.14,24.85,1.46-6.65,5.07-9.77,11.99-10.03,6.22,8.21,9.72,13.68,12.21,23.98-13.26,5.95-30.48,6.89-45.12,7.85-27.27,1.78-59.19,1.95-86.32-.87-8.05-.84-19.28-1.4-25.94-5.67.31-.77.85-.81.87-.87l60.16-53.84c.2-3.86-4.21-2.42-6.76-1.96-15.91,2.87-36.12,17.02-44.25,30.95l-12.21-3.92c15.21-19.26,38.09-33.72,62.34-37.06Z"/>
        <path class="cls-3" d="M93.42,80.2c-1.41,5.71.93,9.25,7.19,7.41,3.21-.94,2.84-1.97,3.71-3.92.08-.18-.08-.67,0-.87,6.66,4.27,17.89,4.83,25.94,5.67,27.13,2.82,59.05,2.65,86.32.87,14.64-.95,31.86-1.89,45.12-7.85.25,1.05.71,2.46.87,3.49-2.48.35-17.23,5.39-7.85,5.23-38.48,7.49-79.24,8.69-118.36,5.23-13.19-1.17-41.01-3.97-52.1-10.03,1.13-3.38,2.4-6.81,3.92-10.03,2.3,1.23,2.66,3.18,5.23,4.8Z"/>
        <path class="cls-3" d="M114.34,57.09c-.22.38-.56,1.17-.87,1.74-3.42.12-6.87-2.11-9.59.65-1.18,1.2-9.95,18.62-10.46,20.71-2.57-1.62-2.93-3.56-5.23-4.8,3.75-7.94,8.52-15.36,13.95-22.23l12.21,3.92Z"/>
        <path class="cls-11" d="M249.49,57.53c-6.92.26-10.53,3.37-11.99,10.03-6.4-8.7-13.15-17.53-21.14-24.85l3.92-11.12,1.09-.22c10.84,7.21,20.29,15.82,28.12,26.16Z"/>
        <path class="cls-3" d="M262.57,84.99c.15.95.42,2.6,0,3.49-2.38.7-5.39,1.7-7.85,1.74-9.38.16,5.36-4.88,7.85-5.23Z"/>
        <path class="cls-1" d="M276.08,89.35c-4.21,7.98-47.36,12.65-56.89,13.51-27.09,2.44-54.66,2.31-81.74,0-10.45-.89-55.18-5.11-59.73-14.17-.71-1.42-.94-3.48-.44-5.01,3.09,7.42,17.91,9.43,25.5,10.9,40.01,7.73,130.66,10.18,167.84-5.23,1.84-.76,3.78-2.11,5.23-3.49,1.25.02.3,3.33.22,3.49Z"/>
        <g>
          <path class="cls-21" d="M93.42,187.88c1.07,0,1.81.44,3.05.44h.87c-.27,1.09-.03.52,0,.87.07.83,1.26,2.65,1.31,3.71.31,6.77-4.92,10.39-9.16,14.6-.59.03-1.53,1.16-2.4.87-2.34-1.02-.98-3.45-1.09-3.71-1.92-4.57-4.65-7.91-.87-13.3,1.82-2.59,5.31-3.48,8.28-3.49Z"/>
          <path class="cls-16" d="M92.76,188.75c1.33-.07,2.27,0,1.53,1.53-4.92,2.86-6.31,6.63-8.5,11.55-2.56-4.56,1.93-12.81,6.98-13.08Z"/>
        </g>
        <path class="cls-21" d="M267.36,207.06c-7.15-2.09-5.43-12.66-9.59-17,7.32.23,10.68,10.64,9.59,17Z"/>
        <path class="cls-12" d="M37.18,96.76c-1.09,1.26-1.09.99-2.18,1.74.83-.92,1.02-2.68,2.18-1.74Z"/>
        <path class="cls-21" d="M174.5,202.27c.46-.69.74-1.52,1.31-2.18.64.03,1.11-1.78,2.18-.22-1.04,2.54.25,16.48-.87,17.44-1.48,1.26-3.81-6.11-3.92-7.41-.24-2.79.51-5.05,1.31-7.63Z"/>
        <path class="cls-2" d="M306.16,101.99c2.5.15,5.44,1.79,6.76,3.92l1.09-1.53-1.74-.44,1.31-1.53c.62.4,1.19.81,1.74,1.31-.1,2.87-.76.84-1.09,1.31-.99,1.44-1.33,3.55-3.05,3.92-1.52.33-5.08-1.31-7.63-1.31-3.07-3.79-2.58-5.98,2.62-5.67Z"/>
        <g>
          <path class="cls-14" d="M185.84,112.89c17.23,20.99-28.88,27.44-19.62,2.62,5.93-5.47,12.32-6.56,19.62-2.62Z"/>
          <path class="cls-2" d="M176.03,113.33c8.84-1.36,7.37,9-.44,7.41-3.8-.77-4.22-6.7.44-7.41Z"/>
        </g>
        <path class="cls-14" d="M306.16,101.99c-5.2-.32-5.69,1.88-2.62,5.67-1.85,0-2.15,2.62-4.36-1.09-3.3-5.53,5.33-8.45,6.98-4.58Z"/>
        <g>
          <path class="cls-19" d="M78.59,81.07c-4.17,3.25-9.9,7.1-4.14,12.21,7.71,6.84,42.05,10.7,52.97,11.33,34.61,2.02,114.59,4.23,145.39-7.41,4.03-1.52,10.49-4.19,10.25-9.16,2.34-.68,19.95,7.64,18.75,9.37-2.58.37-3.8,1.03-5.23,2.83-.86,1.08-1.26,2.23-1.74,3.49s-2.3.96-.87,4.14c2.67,5.95,18.42,10.96,24.41,8.94.33.76.51,3.7,1.09,3.92,1.4.54,16.02-6.13,17.87-7.85,6.63-6.14.9-6.49-4.14-10.03v-.44c2.74,1.52,5.21,2.51,7.85,4.36.51,7.07-10.02,11.01-15.48,13.08-28.9,10.95-71.67,13.27-102.67,14.39-13.39.48-26.73.38-40.11.44-.28-1.65,4.05-2.1,5.45-3.05,7.82-5.33,5.12-14.68-2.4-18.75s-13.69-2.86-19.62,2.62c-8.05,7.43-4.43,14.92,5.01,18.31l-1.53.87c-41.7-.21-93.89.1-133.62-12.64-7.57-2.43-21.61-6.83-21.14-16.57,2.1-1.37,4.35-2.3,6.54-3.49,2.81-.17.92,2.01,3.27,2.62s11.59-4.04,13.51-5.67c1.25-1.05,4.44-4,2.4-5.67,8.86-3.69,28.84-12.61,37.93-12.21Z"/>
          <path class="cls-19" d="M89.93,114.64c-7.12,17.42,23.55,14.7,21.36-.44,2.73,3.68,3.42,5.47.44,9.81-7.73,11.22-35.9,5.03-21.8-9.37Z"/>
          <path class="cls-20" d="M243.38,115.51c.29,16.99,32.27,13.39,19.18-3.05,2.21,1.38,5.66,4.63,6.1,7.19,2.74,15.68-32.84,12.05-25.29-4.14Z"/>
          <path class="cls-19" d="M37.18,107.23c-1.95,13.39,23.66,5.66,23.98-3.92,1.54,3.26,1.58,3.88-1.09,6.98-6.66,7.72-33.4,12.1-22.89-3.05Z"/>
          <path class="cls-19" d="M212,119c-1.52,10.48,14.34,8.74,10.9-1.31.72.75,1.99,1.7,2.18,2.83,2.1,12.77-21.91,11.25-13.08-1.53Z"/>
          <path class="cls-19" d="M131.34,119.87c-.41,9.55,13.89,7.72,11.33-1.31,9.88,13.46-17.22,14.83-11.33,1.31Z"/>
          <path class="cls-20" d="M286.54,112.89c.12.26,1.26.12.87,2.83-1.1,7.67-12.27,7.65-13.08,1.31-.34-2.64,1.43-5.58,3.49-7.19-.14.09-1.71,2.67-1.74,2.83-1.66,8.22,11.95,9.6,10.46.22Z"/>
          <path class="cls-19" d="M70.31,118.56c4.52,3.47,10.61-1.08,8.28-6.54,1-1.13,2.57,2.09,2.62,2.4.95,6.33-8.02,9.23-11.33,4.8-.38-.51.45-.62.44-.65Z"/>
          <path class="cls-20" d="M278.7,109.84c-.21.08-.75-.08-.87,0,.43-.34.79-1.72.87,0Z"/>
          <g>
            <path class="cls-14" d="M111.29,114.2c2.18,15.13-28.48,17.86-21.36.44,6.04-6.17,15.61-8.18,21.36-.44Z"/>
            <path class="cls-2" d="M99.3,112.02c10.44-1.64,5.58,10.61-2.62,8.72-5.1-1.18-2-7.99,2.62-8.72Z"/>
          </g>
          <g>
            <path class="cls-10" d="M262.57,112.46c13.09,16.44-18.89,20.04-19.18,3.05,3.91-8.38,12.34-7.33,19.18-3.05Z"/>
            <path class="cls-2" d="M252.98,112.02c-.1,3.02,3.07,4.11.87,7.19.63.71,4.18-.42,4.8-1.53,2.3-1.29,1.06,1.53.22,2.18-6.34,4.92-15.8-7.07-5.89-7.85Z"/>
            <path class="cls-8" d="M258.64,117.69c-.62,1.11-4.16,2.23-4.8,1.53,2.2-3.08-.97-4.17-.87-7.19,3.35-.26,7.6,2.2,5.67,5.67Z"/>
          </g>
          <g>
            <path class="cls-14" d="M61.15,103.3c-.32,9.59-25.93,17.31-23.98,3.92,4.51-6.5,19.44-13.55,23.98-3.92Z"/>
            <path class="cls-2" d="M49.17,101.56c7.47-1.1,6.72,4.55.44,6.54-10.28,3.26-6.13-5.7-.44-6.54Z"/>
          </g>
          <g>
            <path class="cls-10" d="M142.68,118.56c2.56,9.03-11.74,10.86-11.33,1.31,2.61-6,7.31-6.79,11.33-1.31Z"/>
            <path class="cls-6" d="M135.92,116.82c3.42-.93,3.65,3.8,1.31,4.36-3.15.75-3.63-3.73-1.31-4.36Z"/>
          </g>
          <g>
            <path class="cls-15" d="M222.89,117.69c3.44,10.05-12.42,11.78-10.9,1.31,3.17-4.59,6.8-5.63,10.9-1.31Z"/>
            <path class="cls-6" d="M217.45,116.82c2.71-.35,2.39,3.84,1.31,4.36-2.81,1.35-4.17-3.99-1.31-4.36Z"/>
          </g>
          <g>
            <path class="cls-15" d="M286.54,112.89c1.48,9.38-12.12,8-10.46-.22.03-.16,1.61-2.74,1.74-2.83.12-.08.66.08.87,0,3.29-1.23,6.28-.2,7.85,3.05Z"/>
            <path class="cls-2" d="M279.79,111.59c4.12-1.1,5.03,4.93,2.62,5.67-3.4,1.04-5.74-4.84-2.62-5.67Z"/>
          </g>
          <g>
            <path class="cls-14" d="M78.59,112.02c2.33,5.46-3.77,10.01-8.28,6.54-4.35-8.76,6.22-11.39,8.28-6.54Z"/>
            <path class="cls-2" d="M73.58,111.59c4.57-1.44,4.29,4.13,1.74,5.23-4.61,1.99-4.46-4.38-1.74-5.23Z"/>
          </g>
        </g>
        <path class="cls-5" d="M105.19,81.94c2.9-8.22,3.87-14.93,8.28-23.11.31-.58.65-1.36.87-1.74,8.13-13.93,28.34-28.08,44.25-30.95,2.55-.46,6.96-1.9,6.76,1.96l-60.16,53.84Z"/>
        <path class="cls-3" d="M113.47,58.83c-4.41,8.18-5.38,14.89-8.28,23.11-.02.06-.57.11-.87.87-.08.2.08.69,0,.87-3.32-.34-8.04-1.69-10.9-3.49.51-2.08,9.28-19.51,10.46-20.71,2.72-2.77,6.17-.54,9.59-.65Z"/>
        <path class="cls-3" d="M104.31,83.68c-.87,1.95-.5,2.98-3.71,3.92-6.26,1.84-8.6-1.7-7.19-7.41,2.86,1.8,7.58,3.15,10.9,3.49Z"/>
      </g>
    </g>
  </g>
</svg>