<?xml version="1.0" encoding="UTF-8"?>
<svg id="Capa_1" data-name="Capa 1" xmlns="http://www.w3.org/2000/svg" xmlns:xlink="http://www.w3.org/1999/xlink" viewBox="0 0 208.43 393">
  <defs>
    <style>
      .cls-1 {
        fill: #a59e96;
      }

      .cls-2 {
        fill: #ffd1b0;
      }

      .cls-3 {
        fill: #bdbec0;
      }

      .cls-4 {
        fill: #f0c7bc;
      }

      .cls-5 {
        fill: #d42719;
      }

      .cls-6 {
        fill: #01040e;
      }

      .cls-7 {
        fill: #7f8887;
      }

      .cls-8 {
        fill: #455;
      }

      .cls-9 {
        fill: #969d9c;
      }

      .cls-10 {
        fill: #fff;
      }

      .cls-11 {
        fill: #f58c41;
      }

      .cls-12 {
        fill: #eedddb;
      }

      .cls-13 {
        fill: #0c0504;
      }

      .cls-14 {
        fill: #657d84;
      }

      .cls-15 {
        fill: #627173;
      }

      .cls-16 {
        fill: url(#Degradado_sin_nombre_61);
      }

      .cls-17 {
        fill: #f8b9b8;
      }

      .cls-18 {
        fill: none;
      }

      .cls-19 {
        fill: #e3d100;
      }

      .cls-20 {
        fill: #ff9f5f;
      }

      .cls-21 {
        fill: #fbfbfb;
      }

      .cls-22 {
        fill: #424e56;
      }

      .cls-23 {
        fill: #864339;
      }

      .cls-24 {
        fill: #cdb49e;
      }

      .cls-25 {
        fill: #bb0d1b;
      }

      .cls-26 {
        fill: #009297;
      }

      .cls-27 {
        fill: #6d9b99;
      }

      .cls-28 {
        fill: #d3c6bf;
      }

      .cls-29 {
        fill: #140000;
      }

      .cls-30 {
        fill: #baafa6;
      }

      .cls-31 {
        fill: #ff6022;
      }

      .cls-32 {
        fill: #2f5a6a;
      }

      .cls-33 {
        fill: #ffa800;
      }

      .cls-34 {
        fill: #497361;
      }

      .cls-35 {
        fill: #7f7f79;
      }

      .cls-36 {
        fill: #ffb996;
      }

      .cls-37 {
        fill: #eaed00;
      }

      .cls-38 {
        fill: #ff7a37;
      }

      .cls-39 {
        fill: #526c79;
      }

      .cls-40 {
        fill: #e9cfbf;
      }

      .cls-41 {
        fill: #580000;
      }

      .cls-42 {
        fill: #970315;
      }

      .cls-43 {
        fill: #ff4d1c;
      }

      .cls-44 {
        fill: #e6c4c5;
      }

      .cls-45 {
        fill: #1e4b59;
      }

      .cls-46 {
        fill: #f82d13;
      }

      .cls-47 {
        fill: #9c6409;
      }

      .cls-48 {
        fill: #ff855c;
      }

      .cls-49 {
        fill: #865a34;
      }

      .cls-50 {
        fill: #626670;
      }

      .cls-51 {
        fill: #ede5da;
      }

      .cls-52 {
        fill: url(#Degradado_sin_nombre_60);
      }

      .cls-53 {
        fill: #001e2e;
      }

      .cls-54 {
        fill: #957800;
      }

      .cls-55 {
        fill: #ffc795;
      }

      .cls-56 {
        fill: #002e42;
      }
    </style>
    <linearGradient id="Degradado_sin_nombre_60" data-name="Degradado sin nombre 60" x1="57.37" y1="184.47" x2="122.2" y2="206.3" gradientTransform="translate(.59 -.55) rotate(.05)" gradientUnits="userSpaceOnUse">
      <stop offset="0" stop-color="#f3f1f1"/>
      <stop offset="1" stop-color="#d5cac4"/>
    </linearGradient>
    <linearGradient id="Degradado_sin_nombre_61" data-name="Degradado sin nombre 61" x1="137.55" y1="244.2" x2="65.04" y2="255.34" gradientTransform="translate(.59 -.55) rotate(.05)" gradientUnits="userSpaceOnUse">
      <stop offset="0" stop-color="#b3aaa2"/>
      <stop offset="1" stop-color="#dbcfc6"/>
    </linearGradient>
  </defs>
  <g id="astronauta_">
    <path class="cls-10" d="M196.89,162.48c-1.46-2.61-4.85-8.03-6.58-10.42-1.56-2.15-4.46-5.28-8.69-9.82-.73-.78-1.56-1.67-2.34-2.51.66-2.24,1.52-4.98,2.27-7.26,1-.19,2.04-.45,3.06-.81,11.21-3.99,18.32-14.53,19.51-28.91.36-4.4.01-9.51-.25-13.24-.07-1.02-.16-2.33-.19-3.12.01-.07.02-.13.03-.2.18-1.16.4-2.3.64-3.37.17-.75.25-1.52.24-2.29,0-.79,0-1.41.04-1.96.06-.78.02-1.57-.11-2.35,0-.42.12-1.4.21-2.12.75-6.17,2.52-20.63-19.04-29.09-2-.79-4.11-1.25-5.97-1.54-1.78-3.3-4.44-8.01-7.88-12.42C156.7,11.62,131.78,0,105.22,0c-23.34,0-45.22,9.05-60.05,24.84-6.95,7.4-10.74,14.52-12.88,19.09-4.98.71-12.05,2.42-17.49,7.28-11.73,10.47-7.87,32.6-6.01,43.23.11.61.2,1.16.28,1.64.03.19.07.39.11.58.2,2.87.68,5.54,1.13,7.83.3,1.51.93,2.89,1.81,4.05,4.82,13.52,12.09,18.57,18.67,20.96.81,3.08,1.33,5.05,1.84,6.38.51,1.34,1.18,2.65,1.93,3.92-1.73,2.27-3.86,4.93-5.16,6.56-2.23,2.79-3.43,4.29-4.14,5.34-.69,1.02-1.39,2.06-2.08,3.1-.32.48-.64.96-.95,1.43-1.08,1.61-2.1,3.78-3.18,6.09-.56,1.18-1.13,2.41-1.54,3.17-.6,1.11-.98,2.33-1.12,3.59-.02.18-.1.6-.38,1.31-.36.91-.77,1.76-1.24,2.54-.3.39-.56.81-.8,1.24-.28.47-.51.96-.71,1.47l-.4,1.02c-2.6,6.67-7.68,19.75-9.27,31.17-.42,1.02-.67,2.13-.73,3.28-.13,2.66-.43,5.38-.74,8.25-.37,3.42-.75,6.93-.88,10.59-.28.76-.47,1.56-.55,2.37-.76,7.03-1.61,15,1.78,20.92.81,1.42,1.83,2.66,3.05,3.71,1.24,8.21,4.25,23.62,15.48,31.49,3.96,2.77,8.53,4.3,12.88,4.3,1.18,0,2.31-.11,3.41-.33.18,19.02,1.33,38.24,8.41,56.49-4.66.48-9.8,1.12-14.83,1.94-17.77,2.88-29.04,6.66-30.32,16.63-.41,3.19.12,9.23,8.25,13.81,3.28,1.85,7.95,3.58,14.26,5.29,17.53,4.75,55.57,6.45,85.34,6.45,20.66,0,38.66-.77,49.38-2.1,2.93-.37,12.46-1.9,21.64-4.08,14.73-3.49,23.05-6.88,24.82-14.8.74-3.32.05-6.72-1.94-9.58-4.81-6.92-16.42-9.74-41.84-13.33,7.09-17.19,9.38-35.57,11.61-53.47.12-.97.24-1.94.36-2.91.35-.05.69-.12,1.03-.2,10.19-2.59,18.1-9.28,22.88-19.37,2.88-6.09,4.03-12.09,4.6-15.99,2.29-2.09,5.07-5.4,6.31-10.25,1.28-5.02.75-9.38.42-12,.36-1.23.48-2.53.35-3.81-.39-3.81-.34-7.96.14-13.04.05-.4.07-.81.07-1.22,0-.5-.04-.99-.11-1.47,1.55-19.04-2.21-36.82-11.2-52.89Z"/>
    <g>
      <path class="cls-52" d="M160.42,153.96c-.53,5.6-5.59,11.09-4.97,13.38-20.35,15.18-45.01,15.17-69.16,11.84-20.52-2.83-29.21-6.81-40.13-25.31,3.58,11.24,11.45,18.55,22.04,24.06-10.74,3.78-9.16,5.16-6.46,15.61-1.97,2.92-2.25,5.45-1.99,8.92-15.87,1.21-14.8,31.05-13.91,42.12-2.08-.48-1.64-13.07-1.47-16.11.14-2.68,3.19-13.44.51-13.63,6.77-16.17,14.26-25.46,2.52-46.84-7.08-12.89-12.08-6.41-.73-21.56,26.32,29.66,83.59,30.84,113.75,7.53Z"/>
      <path class="cls-51" d="M76.11,207.42c-2.07-.23,1.1-3.9-6.19-3.47l.25,1.98c-2.81-2.25-6.8-3.75-10.41-3.48-.26-3.47.02-6,1.99-8.92,10.77,10.76,14.15-2.53,14.36,13.89Z"/>
      <path class="cls-32" d="M155.45,167.34c-.62-2.29,4.44-7.78,4.97-13.38,3.58-2.77,5.24-9.33,8.92-3.21-4.36,8.18-6.62,11.17-13.89,16.59Z"/>
      <g>
        <g>
          <path class="cls-18" d="M104.56,270.4c-19.12,30.67-8.53,55.48-16.18,86.98q15.74.38,31.48.77c-5.7-28.99-3.34-59.81-13.31-87.75q-.99,0-1.98,0Z"/>
          <g>
            <path class="cls-18" d="M104.56,270.4c-19.12,30.67-8.53,55.48-16.18,86.98q15.74.38,31.48.77c-5.7-28.99-3.34-59.81-13.31-87.75q-.99,0-1.98,0Z"/>
            <path class="cls-6" d="M188.16,167.36c-1.28-2.3-4.44-7.36-5.94-9.42-2.61-3.59-13.64-14.61-13.87-15.63-.22-.96,5.17-18.24,5.96-18.83.63-.47,4.59-.4,6.94-1.23,8.57-3.05,12.18-11.57,12.9-20.31.55-6.69-.97-16.46-.32-17.29.21-1.34.46-2.67.76-3.99,0-.93,0-1.86.07-2.78-1.16-6.18,6.2-16.14-12.62-23.53-3.28-1.29-8.04-1.31-8.43-1.49-.82-.41-4.18-8.61-9.65-15.62C137.66,3.48,81.74.5,52.45,31.68c-10.27,10.93-12.48,21.03-13.65,21.55-.84.38-11.43.15-17.35,5.44-8.16,7.29-3.7,28.67-2.52,35.76.1.19.17.41.18.67.11,2.51.52,4.98,1.01,7.44.14,0,.27,0,.55,0,5.98,19.95,16.58,17.14,18.32,19.35.38.48,2.25,8.53,2.97,10.41,1.13,2.96,4.44,7.01,4.46,7.44.08,1.82-11.16,15.03-12.9,17.59-1,1.46-1.99,2.98-2.98,4.46-1.13,1.69-2.93,6-4.23,8.44-.15,1.32-.53,2.62-1.02,3.85-.63,1.6-1.4,3.13-2.32,4.58-.06.1-.14.19-.21.27-.05.12-.1.23-.18.32-2.51,6.47-8.79,22.11-9.42,33.33-.11-.33-.21-.65-.31-.98-.34,6.9-1.62,13.72-1.65,20.64,0,.53-.24.91-.57,1.15-.62,5.81-1.23,11.84.51,14.87,1.15,2,3.36,2.29,3.47,2.48.79,1.43,1.34,21.95,12.12,29.5,5.82,4.08,14.09,3.67,12.15-5.19-1.69-7.72-9.87-11.79,3.22-3.72,4.72-6.33-7.49-20.21-7.17-21.57.03-.12,1.82-.8,1.98-1.49,1.32-5.62,1.28-16.5,3.49-24.29,1.21-4.26,4.21-8.55,4.47-9.17,6.77-16.17,14.26-25.46,2.52-46.84-7.08-12.89-12.08-6.41-.73-21.56,26.32,29.66,83.59,30.84,113.75,7.53,3.58-2.77,5.24-9.33,8.92-3.21-4.36,8.18-6.62,11.17-13.89,16.59-20.35,15.18-45.01,15.17-69.16,11.84-20.52-2.83-29.21-6.81-40.13-25.31,3.58,11.24,11.45,18.55,22.04,24.06-10.74,3.78-9.16,5.16-6.46,15.61,10.77,10.76,14.15-2.53,14.36,13.89.16,12.21-.12,3.17-5.95-1.49-2.81-2.25-6.8-3.75-10.41-3.48-15.87,1.21-14.8,31.05-13.91,42.12,4.43,37.74-5.1,79.05,15.27,113.28-13.11.12-80.29,6.9-35.46,19.06,25.5,6.92,103.67,7.46,130.86,4.07,5.42-.68,36.78-5.97,37.93-11.12,1.72-7.7-43.09-11.25-49.06-12.93,12.23-20.47,14.45-44.7,17.4-67.89,1.69-13.27-3.21-12.49,8.2-22.55.25,5.68-9.49,14.32-.01,16.36,19.71-5,19.93-29.08,20.6-30.96.16-.46,4.73-2.63,5.95-7.43,1.23-4.82-.22-9.09,0-10.91.02-.16.21-.68.5-1.44-.52-5.1-.33-10.19.16-15.27-.14.36-.26.73-.4,1.09,2.09-17.92-.83-34.83-9.63-50.57ZM88.38,357.38c7.65-31.5-2.94-56.31,16.18-86.98q.99,0,1.98,0c9.97,27.94,7.61,58.76,13.31,87.75q-15.74-.38-31.48-.77Z"/>
          </g>
        </g>
        <g>
          <path class="cls-47" d="M165.14,140.58c-.74,11.2-24.53,21.84-34.22,24.26-27.48,6.85-63.03,1.59-83.01-20.14q.87-1.36,1.74-2.72c24.28,27.54,92.64,28.46,115.5-1.39Z"/>
          <path class="cls-45" d="M159.49,69.69c1.01-2.44-1.61-6.49-2.47-13.14-.34-2.65,2-10.68-5.43-24.05.03.03.2-.97.74-.5,17.65,15.15,21.82,31.74,19.78,54.54-3.07-6.81-7.08-11.92-12.63-16.86Z"/>
          <path class="cls-3" d="M105.98,45.36c1.32,3.9-2.15,2.23-.25,4.96,2.98-.21,9.83.12,9.66,1.49-18.14-2.02-46.96,1.13-61.97,12.34-2.78-.99-6.96,1.24-7.19-1,16.9-12.45,38.84-18.39,59.74-17.8Z"/>
          <path class="cls-15" d="M151.59,32.51c7.43,13.36,5.09,21.39,5.43,24.05.86,6.65,3.48,10.69,2.47,13.14-2.89-2.58-6.58-5.49-9.91-7.44.86-7.2-.97-6.08-.99-6.44-.02-.31.01-.94,0-1.49-.02-.86,1.3-3.72,1-7.93-.58-8.17-4.99-15.91-9.9-22.31,4.9,2.96,7.46,4.74,11.89,8.44Z"/>
          <path class="cls-30" d="M118.37,46.36c2.29.29,9.53,1.84,12.39,2.49-1.01,4.01-4.66,2.56,0,5.95-5.63-1.52-9.53-2.34-15.36-2.99.16-1.37-6.68-1.7-9.66-1.49-1.9-2.72,1.57-1.05.25-4.96,2.19.06,10.12.71,12.39,1Z"/>
          <path class="cls-7" d="M148.6,54.31c.01.55-.02,1.18,0,1.49l-2.48,4.46c-4.37-2.22-10.57-4.17-15.36-5.46-4.66-3.38-1-1.94,0-5.95,6.08,1.37,11.83,3.9,17.84,5.47Z"/>
          <g>
            <path class="cls-8" d="M63.58,373.47c-14.81-.39-30.47-1.03-44.61-5.49,14.62-4.37,30.15-5.21,45.36-5.42-2.45,4.48-4.32,6.07-.75,10.9Z"/>
            <path class="cls-56" d="M183.54,367.12c-13.19,3.75-26.67,5.99-40.16,8.39,1.23-2.74,8.11-6.02,11.41-8.17-2.79.42-5.35-2.06-6.19-4.71,11.76,0,23.59,1.36,34.94,4.49Z"/>
            <path class="cls-56" d="M110.68,361.11c-.55,3.64,2.8,5.24,2.97,9.42-6.79,5.08-15.32,3.58-14.88,6.93-3.96.09-7.94-.02-11.9,0,1.14-3.07,8.49-1.51,11.9-7.67.73-6.06-6.44-7.25-11.15-7.2v-.99c7.65-.42,15.4-.84,23.05-.48Z"/>
            <path class="cls-15" d="M134.46,379.47l.5-1.49c2.91-.33,5.52-1.95,8.43-2.47,13.48-2.4,26.97-4.65,40.16-8.39,1.29.36,4.05.3,5.45,1.74-12.87,7.34-39.17,9.99-54.53,10.61Z"/>
            <path class="cls-7" d="M18.97,367.98c14.14,4.45,29.8,5.1,44.61,5.49.85,1.15,4.56,3.61,5.95,3.97q-1.24.74-2.48,1.49c-11.48-.65-23.69-1.57-34.94-3.99-8.39-1.81-23.37-6.57-13.13-6.95Z"/>
            <path class="cls-22" d="M124.55,376.49c-8.56.49-17.21.78-25.78.97-.44-3.35,8.09-1.84,14.88-6.93,2.35-1.76,2.72.7,1.99-8.92,1.86.23,5.06-.55,5.45.75-4.09,4.32-.58,11.67,3.46,14.13Z"/>
            <path class="cls-9" d="M124.55,376.49c2.79,1.7,7.17,1.86,10.41,1.5l-.5,1.49c-15.25.62-52.03.32-67.41-.55q1.24-.74,2.48-1.49c4.13,1.07,12.52.03,17.35.01,3.96,0,7.94.1,11.9,0,8.57-.19,17.22-.48,25.78-.97Z"/>
            <path class="cls-45" d="M115.64,361.61c.73,9.63.36,7.16-1.99,8.92-.16-4.18-3.52-5.78-2.97-9.42,1.74.08,3.25.29,4.96.5Z"/>
          </g>
          <path class="cls-15" d="M149.58,62.25c-.92-.54-2.64-1.57-3.47-1.99l2.48-4.46c.02.36,1.85-.76.99,6.44Z"/>
          <g>
            <path class="cls-21" d="M139.7,24.07c4.91,6.4,9.31,14.15,9.9,22.31-.89-.41-2.36-3.79-3.96-6.45-1.83-3.04-1.9-2.95-3.96-5.46-2.97-3.6-5.87-6.69-9.66-9.43-.61,11.51-5.43,14.68-13.65,21.3-2.27-.29-10.2-.94-12.39-1-20.91-.6-42.85,5.35-59.74,17.8.22,2.24,4.41,0,7.19,1-16.67,12.46-19.53,34.27-16.15,53.52-4.04-12.78-1.15-42.75,2.28-55.27C50.89,21,98.35,1.27,135.99,21.09c1.09.57,2.54,2.27,3.72,2.98Z"/>
            <g>
              <path class="cls-28" d="M141.68,34.48c.76,6.52.32,19.88,4.94,18.1,1.07-1.57-4.33-10.73-.98-12.64,1.6,2.66,3.07,6.04,3.96,6.45.3,4.21-1.01,7.07-1,7.93-6.01-1.57-11.76-4.09-17.84-5.47-2.86-.65-10.1-2.19-12.39-2.49,8.22-6.63,13.04-9.79,13.65-21.3,3.79,2.74,6.69,5.82,9.66,9.43Z"/>
              <path class="cls-28" d="M145.64,39.94c-3.35,1.91,2.05,11.07.98,12.64-4.63,1.79-4.18-11.57-4.94-18.1,2.06,2.5,2.13,2.42,3.96,5.46Z"/>
            </g>
          </g>
          <g>
            <path class="cls-28" d="M23.17,78.01c.22,4.81-1.14,7.23,5.94,4.96,3.96-1.27,2.43-2.64,2.98-5.95h.99c-2.04,15.5-2.03,20.11-.52,35.19-1.71.3-1.08-4.76-1.48-6.2-.11-.39-.92,1.74-1.98-5.21-.14-.89.78-13.92-1.97-10.41-2.92,1.22-3.2,7.12-2.98,9.91-2.5-8.03-2.72-16.47-2.46-24.79l1.49,2.48Z"/>
            <path class="cls-51" d="M33.09,77.02h-.99c1.47-8.93,2.13-14.16-5.44-11.41-3.77.84-3.64,9.01-3.48,12.39l-1.49-2.48c.44-13.69-.06-14.94,15.13-18.33-1.59,6.67-2.84,13-3.73,19.82Z"/>
            <path class="cls-30" d="M29.1,100.81c1.06,6.94,1.87,4.82,1.98,5.21.4,1.44-.23,6.49,1.48,6.2.07.74.48,2.91.25,2.97-4.05-3.72-8-8.76-8.66-14.38l4.46-.49c-.04.38.11.55.5.5Z"/>
            <path class="cls-39" d="M28.61,100.32l-4.46.49c-.02-.16.01-.33,0-.5-.22-2.79.06-8.69,2.98-9.91.85,3.07,1.85,6.71,1.48,9.91Z"/>
            <g>
              <path class="cls-32" d="M26.65,65.62c8.06-.48,2.05,11.74,2.46,17.35-7.08,2.27-5.72-.15-5.94-4.96-.16-3.38-.29-11.55,3.48-12.39Z"/>
              <path class="cls-6" d="M32.09,77.02c-.54,3.31.98,4.68-2.98,5.95-.42-5.61,5.6-17.83-2.46-17.35,7.57-2.76,6.91,2.48,5.44,11.41Z"/>
            </g>
            <path class="cls-6" d="M29.1,100.81c-.38.05-.54-.12-.5-.5.37-3.21-.63-6.85-1.48-9.91,2.75-3.5,1.84,9.52,1.97,10.41Z"/>
          </g>
          <g>
            <path class="cls-45" d="M178.81,85.57c1.2.91,4.08,5.04,10.4,5.96-1.32,7.81-5.08,8.64-4.96,9.17.09.4,1.91.67,1.98.75,1.33,1.33,2.04,3.2,2.97,2.98-2.05,11.33-13.07,15.34-13.89,14.12,2.93-11.08.9-22.83,1.51-34.2.44.85,1.64.98,1.98,1.24Z"/>
            <path class="cls-40" d="M189.72,81.11c-.35-.25-.98-2.82-.99-2.97-.36-4.8,2.52-10.45-2.96-13.88-8.04-3.7-6.8,11.66-6.46,16.6.05.65,1.42,2.35,1.48,2.73.45,2.51-.57,1.52-1.98,1.98-3.61-2.11-.85-22.73-2.7-28.75,17.05,4.94,14.37,9.24,13.61,24.3Z"/>
            <path class="cls-35" d="M189.72,81.11c-.15,2.92-.07,7.82-.5,10.41-6.33-.92-9.2-5.04-10.4-5.96,1.41-.46,2.44.53,1.98-1.98,2.02,2.01,5.41,2.24,6.94-.49.82-1.46.52-3.36,1-4.96.01.16.64,2.73.99,2.97Z"/>
            <path class="cls-2" d="M189.21,104.41c-.93.22-1.64-1.65-2.97-2.98,4.66-5.68,3.93-2.29,2.97,2.98Z"/>
            <g>
              <path class="cls-45" d="M188.73,78.14c-.47,1.59-.17,3.49-1,4.96-10.18,3.29-8.7-16-1.97-18.84,5.48,3.43,2.6,9.08,2.96,13.88Z"/>
              <path class="cls-53" d="M185.77,64.26c-6.73,2.84-8.22,22.13,1.97,18.84-1.53,2.73-4.92,2.5-6.94.49-.07-.38-1.44-2.08-1.48-2.73-.34-4.94-1.59-20.3,6.46-16.6Z"/>
            </g>
          </g>
          <g>
            <path class="cls-21" d="M144.13,62.74l.49,6.94c-24.02-13.65-103.58-17.33-101.15,35.36,1.45,31.48,26.63,48.22,55.97,49.86.39,6.29,6.85,4.22,11.4,3.97,4.85,2.73,10.31-.95,15.37.01-20.66,4.08-51.17,1.87-68.15-11.95-22.92-18.65-28.49-70.47,6.02-85.75,22.75-10.07,57.92-10.16,80.05,1.55Z"/>
            <path class="cls-39" d="M168.37,126.7c-3.04,8.19-8.43,15.61-15.38,20.81-1.38.09-4.64-1.02-4.46-2.48,1.44-1.33,4.67-4.72,5.46-6.44,3.2-3.39,6.08-7.88,8.44-11.89.18-.3,1.82-2.11,2.48-3.47q1.73.37,3.47.75v2.73Z"/>
            <path class="cls-7" d="M161.47,76.63c-1.88-2.21-5.93.77-4.96,2.97-2.39-2.83-8.6-8.06-11.89-9.92l-.49-6.94c5.44,2.88,14.18,8.69,17.34,13.89Z"/>
            <path class="cls-32" d="M168.37,126.7v-2.73q-1.73-.37-3.47-.75c5.82-11.94,2.91-19.26,2-27.26l3.47-.99c2.38,11.03,1.95,21.05-2.01,31.72Z"/>
            <path class="cls-9" d="M143.56,152.95c-6.66,3.1-9.98,4.48-17.35,5.93-5.06-.96-10.51,2.72-15.37-.01,11.1-.6,21.83-2.76,31.24-8.9l1.48,2.98Z"/>
            <path class="cls-14" d="M152.99,147.51c-3.84,2.87-5.17,3.46-9.42,5.44l-1.48-2.98c2.26-1.47,4.47-3.12,6.45-4.95-.18,1.46,3.08,2.58,4.46,2.48Z"/>
            <path class="cls-39" d="M168.4,89.52c.62,1.82,1.56,3.54,1.98,5.45l-3.47.99c-.41-3.66-1.66-7.22,1.49-6.44Z"/>
            <path class="cls-51" d="M148.53,145.03c-1.98,1.83-4.19,3.48-6.45,4.95-9.41,6.13-20.14,8.3-31.24,8.9-4.54.25-11.01,2.32-11.4-3.97,17.77.99,41.77-2.79,54.54-16.31-.78,1.72-4.02,5.11-5.46,6.44Z"/>
            <g>
              <path class="cls-14" d="M161.47,76.63c4.03,3.26,5.35,8.28,6.93,12.89-3.16-.78-1.91,2.79-1.49,6.44.9,8,3.81,15.32-2,27.26-.66,1.35-2.31,3.17-2.48,3.47,7.34-15.86,5.39-33.7-5.91-47.09-.97-2.2,3.08-5.18,4.96-2.97Z"/>
              <g>
                <path class="cls-6" d="M144.62,69.68c3.29,1.87,9.5,7.09,11.89,9.92,11.3,13.4,13.25,31.24,5.91,47.09-2.36,4.01-5.24,8.5-8.44,11.89-12.77,13.52-36.77,17.31-54.54,16.31-29.34-1.64-54.52-18.38-55.97-49.86-2.43-52.69,77.13-49.01,101.15-35.36Z"/>
                <path class="cls-21" d="M81.42,71.11c2.64-.36,16.13-.32,16.11,2.24-14.94,24.54-5.4,48.48-5.99,51.05-.2.87-13.25,10.44-14.63,10.15-15.2-12.27-13.41-60.96,4.51-63.44Z"/>
              </g>
            </g>
          </g>
          <g>
            <path class="cls-16" d="M147.95,245.15c-.74,2.62-3.34,9.35-2.74,11.4.04.12,1.06-.12,1.24,0,.08.05-.27,1.06.49.99-9.37,6.5-19.63,10.42-30.99,11.38,17.57.54,34.74-7.5,46.36-20.53-6.94,12.9-29.9,25.04-43.39,26.98-10.44,1.5-5.7-5.35-9.16-8.19-2.84-2.32-8.95-.69-11.4,2.22-23.06-1.8-36.1-10.51-49.55-28.79-.43-3.96-.86-7.92-.24-11.9,6.6,19.99,43.75,19.53,46.08,20.86.94.54,2.8,11.17,18.34,6.46,2.96-.9,12.97-9.84,9.42-3.96-13.77,6.74-11.58,8.18-2.98,3.47,3.62-1.98,5.56-5.81,5.95-5.94,1.09-.38,12.24.31,22.56-4.44Z"/>
            <path class="cls-28" d="M172.31,160.41c-8.05,11.25-15.88,22.84-19.36,36.42-.29,1.11-.25,3.77-.5,4.71-1.96-5.08-3.38-9.08-8.42-11.9-2.37-1.33-6.68-2.5-9.42-2.98-1.46-3.14-13.3.46-9.41-5.46,19.54-2.45,25.85-7.4,40.66-18.8,1.91-1.47,3.77-3.01,5.7-4.46,1.19.61.48,1.78.74,2.48Z"/>
            <path class="cls-31" d="M80,290.7v.5c-10.9-4.92-7.3-.84-11.91,14.12l8.92,1.74c-.13.48-.49.58-.5.99-5.35-.58-18.58-2.94-22.8-5.47-.52-7.53.83-24.62.02-29.74,7.36,8.67,15.59,14.02,26.26,17.87Z"/>
            <path class="cls-31" d="M82.99,275.83c-.59,3.98-1.45,7.83-3.48,11.4-10.26-3-21.56-11.29-26.75-20.84q.5-4.46,1-8.92c9.35,9.34,17.14,13.55,29.23,18.36Z"/>
            <path class="cls-31" d="M147.42,286.79c.23-3.12-6.67,1.23-6.94,1.73-.46.84-3.27,16.02-3.73,18.59l2.23.5c-4,.76-14.82,1.26-18.34-.01l-1.48-14.87c6.67-1.99,12.26-.2,29.25-9.39-.39,1.25-.74,2.14-.99,3.47Z"/>
            <path class="cls-31" d="M138.5,285.3c-3.84,1.51-15.33,5.12-18.84,4.94.75-1.96-3.11-10.38-2.47-11.15.47-.57,4.36,0,3.97-1.73,9.65-2.69,16.22-4.33,25.29-9.4-.99,5.76-8.72,13.17-7.94,17.34Z"/>
            <path class="cls-45" d="M141.02,231.27c2.35-3.11,3.76-5.4,5.46-8.92,5.22-10.78,4.52-14.93,5.96-20.32l3.23-7.43c11.44,16.68,2.8,30.94-14.65,36.67Z"/>
            <path class="cls-30" d="M143,241.18c-3.15-.76-5.94,2.07-9.17,2.97-3.94,1.09-10.24-.04-10.16,3.46-8.32-.56-12.52-4.91-18.58-9.93,13.37-.23,31.83,1.17,43.87-4.92-1.1,3.27-4.26,5.6-5.96,8.42Z"/>
            <path class="cls-28" d="M97.87,269.9c-.53.68-1.79,6.18-4.22,5.94-12.37-2.44-32.62-13.07-40.38-22.59-3.24-3.97-3.71-6.08-4.45-11.16,12.61,17.21,26.94,27.61,49.05,27.8Z"/>
            <path class="cls-28" d="M125.2,181.19c-3.89,5.92,7.96,2.32,9.41,5.46-12.71-2.22-50.01-.08-53.29-1.03-.45-.13-5.61-5.7-6.93-6.45,16.86,1.71,33.88,4.15,50.81,2.02Z"/>
            <path class="cls-42" d="M145.92,305.13c.04-6.01.4-12.44,1.5-18.34.25-1.33.61-2.22.99-3.47,6.96-3.77,9.2-7.14,9.42-4.7-3.05,17.43,1.27,21.04-11.92,26.51Z"/>
            <path class="cls-31" d="M79.99,311.52c-1.31,2.76-3.21,6.05-5.95,7.43-6.44.05-12.61-1.63-17.84-5.47q-.25-3.47-.49-6.94c8.1,2.33,16.07,3.38,24.28,4.98Z"/>
            <path class="cls-28" d="M82.95,322.43l-.5,3.97c-9.78,3.44-22.38,2.18-29.74-5.72-1.81-11.45.87-3.1,10.16.26,6.64,2.4,13.14,2.15,20.07,1.5Z"/>
            <path class="cls-46" d="M147.42,286.79c-1.11,5.9-1.46,12.33-1.5,18.34-2.3.95-4.47,2-6.94,2.47l-2.23-.5c.46-2.56,3.28-17.75,3.73-18.59.27-.5,7.17-4.85,6.94-1.73Z"/>
            <path class="cls-45" d="M142,244.16c.23-.79.85-2.74.99-2.97,1.7-2.82,4.86-5.15,5.96-8.42,5.75-2.91,11.69-8.9,15.13-14.36-.3,13.3-10.28,21.55-22.08,25.76Z"/>
            <path class="cls-24" d="M178.25,160.91c-.83,3.63-4.71,6.98-2.98,8.42-16.9,21.02-24.68,38.11-9.42,3.21,2.69-3.65,3.84-7.01,7.44-10.16,4.7-4.11,3.37-2.78,4.96-1.48Z"/>
            <path class="cls-5" d="M76.52,308.05c0-.42.37-.51.5-.99,1.27-4.64,1.54-10.95,2.99-15.86v-.5c1.61.58,7.56,1.2,7.93,2.24.26.74-2.78,8.59-2.49,15.36-.65,1.46-5.82.08-8.92-.26Z"/>
            <path class="cls-45" d="M146.95,257.54c-.76.07-.42-.94-.49-.99l5.96-13.87c3.75-2.37,9.45-8.2,12.15-11.89-1.75,11.87-7.95,20.04-17.62,26.75Z"/>
            <g>
              <path class="cls-15" d="M174.2,272.44c5.63-5.4,3.61-16.39,4.98-23.79,2.44.03,4.97.65,7.43.75.23,10.05-4.25,21.67-13.16,27-.96-.67.62-3.31.75-3.96Z"/>
              <path class="cls-28" d="M179.18,248.65c-1.37,7.39.65,18.39-4.98,23.79,3.24-17.05,5.58-18.9-8.17-6.45-2.45-8.23,4.8-10.12,10.42-17.84,1.15-.28,1.78.49,2.73.5Z"/>
            </g>
            <path class="cls-31" d="M135,317.51c-2.6.25-7.25,1.58-12.89-.01q-.25-3.22-.49-6.44c8.71.15,11.13.61,20.32-.97.13,1.74-1.09-.25-3.97,2.72-.35.36-2.22,3.61-2.98,4.71Z"/>
            <path class="cls-25" d="M147.43,280.84c-.63-1.69.15-5.16.5-7.43,1.28.23,2.13-.78,2.98-1.48,4.3-3.6,9.64-14.94,4.47-7.93l-.99-1.49c2.59-1.77,4.37-3.99,4.96-3.22-.84,12.96-.9,14.6-11.91,21.55Z"/>
            <path class="cls-46" d="M79.51,287.23c2.03-3.57,2.89-7.42,3.48-11.4,1.33.53,8.71,2.53,8.92,3.23l-5.71,10.16c-2.29-.44-4.47-1.34-6.69-1.99Z"/>
            <path class="cls-15" d="M152.45,201.54c-.04.15.04.34,0,.5-1.44,5.39-.75,9.53-5.96,20.32-2.06,1.28-.37-1.82-.49-4.46,4.54-7.59,2.56-20.75-1.96-28.26,5.03,2.82,6.46,6.82,8.42,11.9Z"/>
            <path class="cls-46" d="M135,317.51c.76-1.09,2.63-4.34,2.98-4.71,2.87-2.97,4.1-.98,3.97-2.72,4.23-.73,8.24-1.56,12.15-3.46-.84,6.26-9.99,10.33-15.87,11.39-2.05.37-3.06-.51-3.22-.5Z"/>
            <path class="cls-51" d="M124.31,364.59c9.23,7.23,16.62,2.9,16.6,5.71-14.2,11.18-21.04-4.89-16.6-5.71Z"/>
            <path class="cls-46" d="M148.92,266.47c.15,1.94-.64,4.68-1,6.94-.36,2.28-1.13,5.75-.5,7.43-3,1.89-5.63,3.15-8.93,4.45-.78-4.18,6.95-11.58,7.94-17.34.79-.44,1.68-1.01,2.48-1.49Z"/>
            <path class="cls-4" d="M53.75,272.84c.8,5.12-.55,22.21-.02,29.74-.67-.4-2.25-1.02-2.48-1.74-.65-2.1.51-26.16.03-32.22,1.27.98,2.23,2.64,2.48,4.22Z"/>
            <path class="cls-21" d="M66.81,366.53c1.8-.87,5.36,3.88,15.36,2,1.91,7.13-18.76,7.89-15.36-2Z"/>
            <path class="cls-13" d="M98.36,269.4c-.32.38-.47.47-.5.5-22.11-.19-36.44-10.59-49.05-27.8-.07-.48.05-1,0-1.49,13.45,18.28,26.49,26.98,49.55,28.79Z"/>
            <path class="cls-9" d="M143,241.18c-.14.23-.76,2.18-.99,2.97-6.26,2.23-11.61,3.91-18.34,3.46-.08-3.5,6.23-2.37,10.16-3.46,3.23-.89,6.02-3.73,9.17-2.97Z"/>
            <g>
              <path class="cls-28" d="M138.46,328.92c1.03,7.12-5.16,19.61-1.5,20.32-1.91,5.14-4.13,10.19-5.96,15.36-1.21-.44-1.5-.66-2.48-1.49q-1.47-17.1-2.95-34.2c4.93.28,7.76.71,12.89.01Z"/>
              <path class="cls-45" d="M131,364.6c1.83-5.17,4.05-10.22,5.96-15.36,2.58-6.96,5.39-13.96,6.46-21.31,2.41-.67,8.7-4.14,8.93-3.71,1.64,3.07-14.39,36.69-17.63,41.38-3.01.37-3.54-.93-3.72-.99Z"/>
              <path class="cls-51" d="M125.58,328.91q1.47,17.1,2.95,34.2c-6.55-5.56-8.26-25.69-8.89-34.46.34-1.06,2.7.07,5.95.25Z"/>
              <path class="cls-28" d="M142.44,320.99l.49,4.96c-6.62,2.05-16.98,3.27-23.3.23l-.24-5.7c7.65,1.83,15.27,2.08,23.05.51Z"/>
              <path class="cls-1" d="M136.96,349.24c-3.66-.71,2.53-13.2,1.5-20.32,2.08-.28,2.89-.41,4.96-.99-1.07,7.34-3.88,14.35-6.46,21.31Z"/>
              <path class="cls-15" d="M142.93,325.95l-.49-4.96c12.46-2.51,11.8-9.69,10.91-.73-.68,1.52-8.47,5.09-10.41,5.69Z"/>
            </g>
            <path class="cls-5" d="M74.03,318.95c2.74-1.38,4.64-4.67,5.95-7.43,11.57,2.25,5.26,7.35-5.95,7.43Z"/>
            <path class="cls-5" d="M155.37,263.99c-1.69,2.29-2.86,5.51-4.47,7.93-.84.71-1.69,1.72-2.98,1.48.35-2.26,1.14-5,1-6.94,1.3-.78,3.79-2.83,5.46-3.96l.99,1.49Z"/>
            <path class="cls-7" d="M152.41,242.68l-5.96,13.87c-.18-.12-1.2.12-1.24,0-.6-2.05,2-8.78,2.74-11.4,1.33-.61,3.22-1.69,4.46-2.47Z"/>
            <g>
              <path class="cls-22" d="M98.38,246.1c.81.6,5.33,4.47,5.7,4.47.27,0,.67-2.87,4.46-2.47-1.1-2.18-5.44-2.72-4.21-5.46.9.09,7.41,5.46,8.92,6.7-4.08,7.46-19.69,3.85-14.87-3.23Z"/>
              <path class="cls-21" d="M104.33,242.64c-1.23,2.74,3.11,3.28,4.21,5.46-3.8-.4-4.19,2.47-4.46,2.47-.36,0-4.89-3.87-5.7-4.47.55-.81,4.79-3.58,5.95-3.46Z"/>
            </g>
            <path class="cls-48" d="M119.66,290.24c-4.69-.24-2.77-3.1-4.95-11.16.14-.34,5.44-1.45,6.45-1.73.39,1.73-3.5,1.16-3.97,1.73-.64.78,3.22,9.19,2.47,11.15Z"/>
            <path class="cls-45" d="M173.3,162.39c-1.62.11-.42-.49-.99-1.98-.26-.7.45-1.87-.74-2.48-1.94,1.44-3.79,2.98-5.7,4.46-.73-1.42,3.73-5.61,5.71-8.92,6.92,6.75,2.81,4.44,1.73,8.92Z"/>
            <path class="cls-24" d="M76.11,207.42c.16,12.21-.12,3.17-5.95-1.49l-.25-1.98c7.29-.42,4.13,3.24,6.19,3.47Z"/>
            <path class="cls-36" d="M119.16,292.72l1.48,14.87c-4.73-1.71-1.67-9.76-3.46-14.13.68-1.08,1.45-.58,1.98-.74Z"/>
            <path class="cls-12" d="M53.76,257.47q-.5,4.46-1,8.92c-3.34-6.15-1.25-6.03-2.47-12.64,1.31-.07,2.22,2.48,3.47,3.72Z"/>
            <path class="cls-44" d="M55.7,306.54q.25,3.47.49,6.94c-3.71-2.72-5.38-2.7-4.21-8.43.32-.23,3.07,1.3,3.72,1.49Z"/>
            <path class="cls-17" d="M121.63,311.06q.25,3.22.49,6.44c-3.36-.95-3.57-1.34-3.22-6.94,3.06-.28,2.59.5,2.73.5Z"/>
            <path class="cls-15" d="M175.27,169.34c-1.73-1.44,2.15-4.8,2.98-8.42,4.47,3.64.56,4.02-2.98,8.42Z"/>
            <path class="cls-50" d="M170.01,239.22l.74,5.21c-6.14,19.74-2.8,5.1-.74-5.21Z"/>
            <g>
              <path class="cls-28" d="M81.46,329.37c-.8,11.94-3.09,23.73-6.47,35.19-2.36.92-3.3-1.36-3.47-1.49-4.7-11.2-10.55-22.15-10.38-34.71,6.66,2.19,13.48,1.37,20.32,1.01Z"/>
              <path class="cls-51" d="M61.14,328.36c-.17,12.56,5.68,23.51,10.38,34.71-7.1-5.34-18.37-29.18-18.31-38.93.22-.39,7.02,3.92,7.93,4.22Z"/>
              <path class="cls-32" d="M74.99,364.55c3.39-11.45,5.67-23.25,6.47-35.19.2-.01,1.68-1.09,3.97-.24-1.7,8.99.1,35.86-10.44,35.43Z"/>
              <path class="cls-15" d="M82.45,326.39l.5-3.97c1.71-.16,2.82-3.44,2.48,3.22-1.38,1.04-2.63.62-2.97.74Z"/>
            </g>
            <g>
              <g>
                <path class="cls-51" d="M25.51,249.52c-.53,3.73.63,7.28.98,10.91.45,4.58-.01,9.46,1.97,13.88-6.73-5.29-8.35-14.04-9.9-22.07-.92-2.87,4.54-2.68,6.94-2.72Z"/>
                <path class="cls-30" d="M27.98,259.93c-.07.04-.74-.07-1.49.49-.36-3.63-1.51-7.18-.98-10.91.88-.01,2-.88,3.22-.49.97.31,11.64,16.16,9.9,17.36-3.41-1.93-7.12-8.41-10.65-6.45Z"/>
                <path class="cls-50" d="M27.98,259.93c3.87,13.08,9.16,21.2.48,14.38-1.98-4.42-1.52-9.3-1.97-13.88.75-.56,1.42-.46,1.49-.49Z"/>
              </g>
              <g>
                <path class="cls-31" d="M32.49,206.4q-1.99,13.88-3.99,27.76c-3.79.27-8.14.2-11.9-.51,1.25-10.81,3.21-21.49,4.98-32.22,3.48,1.98,7.31,3.23,10.9,4.97Z"/>
                <path class="cls-31" d="M31.52,173.68q1.74-3.22,3.47-6.44c6.7,7.06,13.22,15.74,12.37,26.03-.75,9.12-2.46.06-7.92-8.43-2.42-3.76-5.86-7.24-7.92-11.16Z"/>
                <path class="cls-5" d="M28.5,234.15q1.99-13.88,3.99-27.76c1.76.85,5.95,2.26,6.19,2.48,1.8,1.69-2.32,7.36-3.73,12.14-3.59,12.21,1.11,12.59-6.45,13.13Z"/>
                <path class="cls-43" d="M38.94,195.99c-1.43,1.2-2.63,2.35-4.46,2.97-2.06-1.06-9.92-5.69-10.9-6.95,1.69-2.03,2.5-6.3,4.47-10.9,4.66,3.1,6.21,11.25,10.89,14.88Z"/>
                <path class="cls-31" d="M41.42,194.01c-.87.58-1.68,1.31-2.48,1.98-4.68-3.63-6.23-11.78-10.89-14.88.74-1.73,1.21-3.48,2.48-4.95,2.77,2.64,9.15,13.85,10.89,17.85Z"/>
                <path class="cls-31" d="M37.73,159.81c6.15,6.36,12.76,19.03,11.38,27.27-2.72-15.88-18.22-22.11-11.38-27.27Z"/>
                <path class="cls-36" d="M22.08,199.45c-.02.16-.27.64-.5,1.98-1.78,10.72-3.73,21.41-4.98,32.22-.1-.02-.89,1.14-1.98.25-.88-1.54,4.16-30.61,5.48-34.94,1.07-.22,1.4.28,1.98.5Z"/>
                <path class="cls-46" d="M22.08,199.45c.13-.86,1-3.76.99-3.96q9.17,5.09,18.33,10.18c.15,3.53-12.98-3.89-19.33-6.21Z"/>
                <path class="cls-43" d="M17.59,242.07v-3.97c11.04-2.84,16.92,4.19,15.86,6.21-7.85-4.06-8.63-2.78-15.86-2.24Z"/>
                <path class="cls-5" d="M34.48,198.96c1.83-.62,3.03-1.77,4.46-2.97.8-.67,1.61-1.4,2.48-1.98,4.64,10.68,3.42,10.28-6.94,4.95Z"/>
                <path class="cls-2" d="M30.53,176.16c-1.28,1.47-1.74,3.23-2.48,4.95-1.97,4.6-2.78,8.87-4.47,10.9-1.8-2.33,3.68-14.32,5.71-17.34.73.5,1.17,1.42,1.24,1.49Z"/>
                <path class="cls-31" d="M23.29,243.07c12.33-.33-7.27,4.99-8.18,2.72-1.45-1.56,7.25-2.69,8.18-2.72Z"/>
                <path class="cls-21" d="M17.59,238.11v3.97c-.15.01-.2,1.1-2.98.25-.44-5.64,1.11-3.73,2.98-4.21Z"/>
                <path class="cls-55" d="M35,167.24q-1.74,3.22-3.47,6.44c-.62-1.18-3.07.25,2.24-7.43l1.24.99Z"/>
                <path class="cls-21" d="M23.08,195.48c0,.2-.86,3.11-.99,3.96-.59-.21-.92-.72-1.98-.5,1.16-3.82,2.81-7.95,2.98-3.47Z"/>
              </g>
            </g>
            <g>
              <path class="cls-31" d="M192.6,200.58c.08,5.18-10.74,9.07.98,8.43,0,.29,1.1,4.52.49,5.7-.58,1.13-12.32,2.33-.25,2.23,2.74,9.34-18.29,5.51-.75,7.93-2.02,2.07-10.29,3.73-11.65,4.95-1.65,1.48-.95,2.24-1.74,3.96-2.11.24-.4-6.63-.98-11.15-.52-4.02-4.05-10.4-3.46-14.13,5.55-2.98,11.69-5.15,17.36-7.92Z"/>
              <path class="cls-31" d="M181.71,182.72c-5.71,5.12-11.75,9.85-17.11,15.35-1.08.5-3.21-3-3.22-3.22-.12-2.04,12.81-20.23,15.38-23.04q2.47,5.45,4.95,10.91Z"/>
              <path class="cls-31" d="M186.66,193.14c-2.4,1.59-18.47,11.51-19.84,10.64l-1.48-2.98c5.83-4.75,11.02-10.38,16.87-15.1l4.46,7.44Z"/>
              <path class="cls-5" d="M190.87,193.64c7.98,5.29-15.92,10.83-20.34,14.85-10.45-.82,17.18-11.92,20.34-14.85Z"/>
              <path class="cls-25" d="M181.71,182.72q-2.47-5.45-4.95-10.91c1.54-1.68,3.01-3.42,4.71-4.95,1.02,1.21,6.14,9.57,6.19,10.17.22,2.45-4.58,4.46-5.95,5.7Z"/>
              <path class="cls-5" d="M178.69,234.77c.05-.73.63-.2.99-.99.79-1.72.08-2.49,1.74-3.96,1.36-1.21,9.64-2.88,11.65-4.95,4.8,6.97-7.37,11.47-14.38,9.9Z"/>
              <path class="cls-38" d="M179.68,233.78c-.36.79-.95.26-.99.99-.72-.16-2.57.31-2.97-.25-.42-.59.51-8.75-.48-14.38-1.82-10.32-7-7.89,0-11.65-.6,3.72,2.94,10.11,3.46,14.13.59,4.53-1.12,11.39.98,11.15Z"/>
              <path class="cls-5" d="M186.66,193.14l-4.46-7.44c2.66-2.15,5.45-5.17,6.45-4.21.94,5.97,4.94,7.87-.26,11.65-.24.18-1.48-.17-1.73,0Z"/>
              <path class="cls-20" d="M180.67,242.7v1.98c-1.24-.18-5.57-.42-5.95-1.24-.42-8.71,2.82-4.2,16.36-5.44-3.16.64-20.28,3.85-10.41,4.7Z"/>
              <path class="cls-43" d="M180.67,244.68v-1.98c10.08.87,10.85-3.96,11.9-.73-.99,4.55-7.69,3.33-11.9,2.72Z"/>
              <path class="cls-5" d="M193.58,209c-11.72.64-.91-3.25-.98-8.43,1.98,1.27,1,6.73.98,8.43Z"/>
              <path class="cls-23" d="M193.31,233.79c3.14.42-4.06,2.33-4.21,1.73l4.21-1.73Z"/>
            </g>
            <path class="cls-43" d="M80,291.2c-1.45,4.91-1.71,11.22-2.99,15.86l-8.92-1.74c4.61-14.95,1.01-19.03,11.91-14.12Z"/>
            <path class="cls-41" d="M150.9,271.92c1.6-2.42,2.77-5.63,4.47-7.93,5.17-7.01-.17,4.32-4.47,7.93Z"/>
            <g>
              <path class="cls-11" d="M57.52,206.42c19.87-4.43,23.87,34.79,4.93,32.22-13.92-1.89-16.34-29.68-4.93-32.22Z"/>
              <g>
                <path class="cls-6" d="M59.5,208.4c1.66-.06,6.05,1.83,7.18,3.23.45.55,3.9,10.33,3.96,10.91.1,1.11-2.66,8.66-3.48,9.91-5.36,8.23-10.09-4.5-11.15-5.21-.33-.22-2.12.22-2.48,0-3.92-2.44.22-5.83.25-6.2.33-3.37-2.3-12.37,5.71-12.64Z"/>
                <path class="cls-19" d="M58.01,211.37c6.14,4.77,6.05,1.19,6.69,1.74,1.01.88.13,4.81.49,5.95.46,1.43,2.96,3.72,2.97,3.97.06,1.14-2.43-.8-5.21,9.17-3.47-4.35-2.9-7.15-9.16-7.69,5.07-4.62.17-10.32,4.22-13.13Z"/>
              </g>
            </g>
            <g>
              <path class="cls-49" d="M69.44,179.16c2.23-.48,10.56,8.47,10.65,9.18.05.45-4.3,7.51-4.72,7.68-10.8,4.24-20.61-14.34-5.93-16.86Z"/>
              <path class="cls-53" d="M65.71,184.61v.25c8.5,8.75,1.32-1.47,0-.25,4.26-4.24,1.56-.31,7.93,5.21-2.19,4.89-12.29-5.28-7.93-5.21Z"/>
              <path class="cls-34" d="M65.71,184.61c1.32-1.22,8.5,8.99,0,.25v-.25Z"/>
            </g>
            <g>
              <path class="cls-28" d="M134.12,189.63c2.87,5.67,3.17,10,4.45,15.87-.74-.56-1.42-.46-1.49-.5-11.6-7.21-18.3,8.86-9.43,16.35h-.5c-.55-.88-10.34-8.73-8.41-18.1,1.18-5.71,18.28-10.75,13.15-13.62-4.53,2.37-28.54-.67-29,.72-.09.27,2.27,3.63-1,4.71-4.18-.47-17.17-.18-18.84,4.69-.4,1.17,1.05,16.05.97,24.79-.06,6.38-5.39,12.69,17.83,13.4-4.43,4.27-7.12,9.42-7.69,9.66-1.95.83-23.09-3.29-27.01-5.23,19.17-4.56,9.64-38.64,10.94-46.09.08-.46,4.55-7.71,4.96-7.93,2.28-1.16,46.85-.11,51.05,1.28Z"/>
              <path class="cls-21" d="M127.15,221.34c4.77,7.62-4.1,11.24-10.42,11.89-3.02-.39-3.51.77-6.44-1l-.49-1.24c6.68.59.15-3.17,6.94-5.45-1.35-1.39-2.85-1.62-2.97-1.74l-.24-4.46c-.45-.24-1.32,1.01-2.73,1.48-3.73,1.27-2.87.49-6.44.49-12.93.01-21.46.43-17.1-5.96,3.91,1.57,19.5,1.53,21.56-1.22.74-.98,6.68-17.55-6.92-19.09,3.26-1.07.91-4.43,1-4.71.45-1.39,24.47,1.65,29-.72,5.14,2.87-11.97,7.91-13.15,13.62-1.93,9.37,7.86,17.22,8.41,18.1Z"/>
              <path class="cls-28" d="M146.48,222.35c-1.7,3.52-3.11,5.81-5.46,8.92-6.04,1.98-9.99,2.87-16.36,3.46-2.53-.83-5.32-1.15-7.93-1.49,6.32-.65,15.19-4.27,10.42-11.89h.5c5.37,4.13,14.95,2.21,18.34-3.45.12,2.64-1.57,5.74.49,4.46Z"/>
              <path class="cls-28" d="M105.33,229.75c5.27-.18.94.07,4.95,2.48,2.94,1.77,3.42.6,6.44,1,2.61.34,5.4.66,7.93,1.49-5.49.51-30.37,1.1-33.95-.03-5.17-1.63-5.37-6.45-3.71-10.91l6.19,7.44c2.75-3.45,6.51-3.94,4.22-8.42,1.71.19,3.12-.04,4.96,1.74-12.39,12.11-6.83,5.55,2.97,5.21Z"/>
              <path class="cls-30" d="M141.53,213.42l-.99-.5c.86-4.48-1.81-6.66-1.98-7.44-1.27-5.87-1.58-10.19-4.45-15.87,9.27,3.07,9.81,16.1,7.42,23.8Z"/>
              <path class="cls-26" d="M97.41,222.81c2.29,4.49-1.47,4.98-4.22,8.42l-6.19-7.44c-1.53-1.32,8.06-1.25,10.41-.98Z"/>
              <g>
                <path class="cls-37" d="M113.76,223.81c.12.12,1.63.35,2.97,1.74-6.79,2.28-.27,6.03-6.94,5.45l.49,1.24c-4.02-2.42.32-2.67-4.95-2.48l-3.47-.75c6.84-5.94,1.99-3.92,2.48-7.68,3.58,0,2.71.78,6.44-.49,3.44.19.75.84,2.97,2.98Z"/>
                <path class="cls-54" d="M113.76,223.81c-2.22-2.14.47-2.79-2.97-2.98,1.41-.48,2.28-1.73,2.73-1.48l.24,4.46Z"/>
              </g>
              <g>
                <path class="cls-51" d="M91.73,196.53c1.98-.41,14.86.16,16.11,3.23.14,2.41-.07,12.4-1.75,13.63-1.14.84-18.67,1.03-19.58-.76-.38-5.94-2.99-14.42,5.22-16.11Z"/>
                <g>
                  <path class="cls-6" d="M92.72,197.52c14.06,1,17.31,1.03,10.89,13.39-13.02.73-12.53.44-10.89-13.39Z"/>
                  <path class="cls-27" d="M94.7,199.51c9.63,1.08,12.63,1.69,6.44,9.42-8.5-.33-6.89-.65-6.44-9.42Z"/>
                </g>
              </g>
              <g>
                <path class="cls-22" d="M136.08,205.98c-15.64,8.8-4.73,18.59,4.46,6.94l.99.5c-1,3.22-1.95,6.75-5.71,7.93-11.86,3.72-15.72-18.52.26-15.37Z"/>
                <g>
                  <path class="cls-6" d="M138.56,205.49c.17.78,2.84,2.95,1.98,7.44-9.18,11.65-20.09,1.85-4.46-6.94.31-.17,1.18,1.48.99-.99.07.04.75-.07,1.49.5Z"/>
                  <g>
                    <path class="cls-33" d="M134.84,208.46q1.24,0,2.48,0c4.44,8.75-10.71,9.58-2.48,0Z"/>
                    <path class="cls-29" d="M134.84,212.43c2.62.64.35,3.22-1.24,1.24l1.24-1.24Z"/>
                  </g>
                </g>
              </g>
            </g>
          </g>
        </g>
      </g>
    </g>
  </g>
</svg>