<!-- Generator: Adobe Illustrator 24.1.2, SVG Export Plug-In  -->
<svg version="1.1" xmlns="http://www.w3.org/2000/svg" xmlns:xlink="http://www.w3.org/1999/xlink" x="0px" y="0px" width="223.4px"
	 height="376.65px" viewBox="0 0 223.4 376.65" style="overflow:visible;enable-background:new 0 0 223.4 376.65;"
	 xml:space="preserve">
<style type="text/css">
	.st0{fill:#FFFFFF;}
	.st1{fill:#25C1BC;}
</style>
<defs>
</defs>
<g>
	<path class="st0" d="M221.45,38.46c-1.93-3.33-5.03-5.71-8.75-6.7l-9.7-2.59c-7.67-2.05-15.57,2.53-17.62,10.2l-4.55,17.05
		L118.28,36.6l4.25-15.9c2.05-7.67-2.53-15.57-10.2-17.62l-9.7-2.59c-3.71-0.99-7.59-0.48-10.92,1.45c-3.33,1.93-5.71,5.03-6.7,8.75
		L0.49,327.26c-0.99,3.72-0.48,7.59,1.45,10.92c1.93,3.33,5.03,5.71,8.75,6.7l9.7,2.59c3.72,0.99,7.59,0.48,10.92-1.45
		c3.33-1.93,5.71-5.03,6.7-8.75l2.26-8.46l62.33,20.64l-1.73,6.48c-2.05,7.67,2.53,15.57,10.2,17.62l9.7,2.59
		c1.24,0.33,2.49,0.49,3.74,0.49c2.5,0,4.96-0.66,7.19-1.94c3.33-1.93,5.71-5.03,6.7-8.75L222.9,49.38
		C223.89,45.67,223.38,41.79,221.45,38.46z M120.55,282.24l-11.02,41.27L46.97,303.7l11.24-42.1L120.55,282.24z M138.24,215.96
		l-10.77,40.34l-62.56-19.81l10.99-41.17L138.24,215.96z M156.13,148.95L145.17,190l-62.56-19.81L93.8,128.3L156.13,148.95z
		 M173.9,82.38l-10.84,40.6l-62.56-19.81l11.06-41.44L173.9,82.38z"/>
	<g>
		<g>
			<path class="st1" d="M11.72,341.02l9.7,2.59c5.55,1.48,11.25-1.82,12.73-7.36l84.51-316.58c1.48-5.55-1.82-11.25-7.36-12.73
				l-9.7-2.59c-5.55-1.48-11.25,1.82-12.73,7.36L4.36,328.3C2.88,333.84,6.17,339.54,11.72,341.02z"/>
			<g>
				<polygon class="st1" points="189.16,83.21 90.23,50.45 89.86,44.02 194.14,68.18 				"/>
				<polygon class="st1" points="188.41,76.17 89.49,43.41 109.57,38.04 195.61,65.29 				"/>
			</g>
			<g>
				<polygon class="st1" points="170.99,149.65 72.07,116.89 71.69,110.46 175.97,134.62 				"/>
				<polygon class="st1" points="170.25,142.62 71.32,109.85 91.41,104.48 177.45,131.73 				"/>
			</g>
			<g>
				<polygon class="st1" points="153.55,216.81 54.62,184.05 54.25,177.62 158.53,201.78 				"/>
				<polygon class="st1" points="152.8,209.77 53.88,177.01 73.96,171.64 160,198.89 				"/>
			</g>
			<g>
				<polygon class="st1" points="137.06,283.49 38.13,250.73 37.75,244.3 142.04,268.46 				"/>
				<polygon class="st1" points="136.31,276.45 37.39,243.69 57.47,238.32 143.51,265.57 				"/>
			</g>
			<g>
				<polygon class="st1" points="118.18,350.41 19.25,317.65 18.87,311.22 123.15,335.38 				"/>
				<polygon class="st1" points="117.43,343.37 18.51,310.61 38.59,305.24 124.63,332.49 				"/>
			</g>
			<path class="st1" d="M112.1,369.7l9.7,2.59c5.55,1.48,11.25-1.82,12.73-7.36l84.51-316.58c1.48-5.55-1.82-11.25-7.36-12.73
				l-9.7-2.59c-5.55-1.48-11.25,1.82-12.73,7.36l-84.51,316.58C103.26,362.52,106.55,368.22,112.1,369.7z"/>
		</g>
	</g>
</g>
</svg>
