<?xml version="1.0" encoding="UTF-8"?>
<svg id="Capa_2" data-name="Capa 2" xmlns="http://www.w3.org/2000/svg" viewBox="0 0 299.59 364.77"><metadata><c2pa:manifest xmlns:c2pa="http://c2pa.org/manifest">AAA0RWp1bWIAAAAeanVtZGMycGEAEQAQgAAAqgA4m3EDYzJwYQAAADQfanVtYgAAAEdqdW1kYzJtYQARABCAAACqADibcQN1cm46dXVpZDpjN2MzMzVlNC1jMTFkLTQwYWItOWE4Zi1jOGE3ODk2NWZiZGUAAAABtGp1bWIAAAApanVtZGMyYXMAEQAQgAAAqgA4m3EDYzJwYS5hc3NlcnRpb25zAAAAANdqdW1iAAAAJmp1bWRjYm9yABEAEIAAAKoAOJtxA2MycGEuYWN0aW9ucwAAAACpY2JvcqFnYWN0aW9uc4GjZmFjdGlvbmtjMnBhLmVkaXRlZG1zb2Z0d2FyZUFnZW50bUFkb2JlIEZpcmVmbHlxZGlnaXRhbFNvdXJjZVR5cGV4U2h0dHA6Ly9jdi5pcHRjLm9yZy9uZXdzY29kZXMvZGlnaXRhbHNvdXJjZXR5cGUvY29tcG9zaXRlV2l0aFRyYWluZWRBbGdvcml0aG1pY01lZGlhAAAArGp1bWIAAAAoanVtZGNib3IAEQAQgAAAqgA4m3EDYzJwYS5oYXNoLmRhdGEAAAAAfGNib3KlamV4Y2x1c2lvbnOBomVzdGFydBjJZmxlbmd0aBlFtGRuYW1lbmp1bWJmIG1hbmlmZXN0Y2FsZ2ZzaGEyNTZkaGFzaFggOHWSAPeh5HT2gOys2Azk1KqFDAHBYkJYKavgrniof+9jcGFkSQAAAAAAAAAAAAAAAgxqdW1iAAAAJGp1bWRjMmNsABEAEIAAAKoAOJtxA2MycGEuY2xhaW0AAAAB4GNib3KoaGRjOnRpdGxlb0dlbmVyYXRlZCBJbWFnZWlkYzpmb3JtYXRtaW1hZ2Uvc3ZnK3htbGppbnN0YW5jZUlEeCx4bXA6aWlkOjU3NDIzMTE4LTcxN2ItNGEwZi04YTdhLWM2YTIxYzgxOTlkMW9jbGFpbV9nZW5lcmF0b3J4N0Fkb2JlX0lsbHVzdHJhdG9yLzI5LjUgYWRvYmVfYzJwYS8wLjEyLjIgYzJwYS1ycy8wLjMyLjV0Y2xhaW1fZ2VuZXJhdG9yX2luZm+Bv2RuYW1lcUFkb2JlIElsbHVzdHJhdG9yZ3ZlcnNpb25kMjkuNf9pc2lnbmF0dXJleBlzZWxmI2p1bWJmPWMycGEuc2lnbmF0dXJlamFzc2VydGlvbnOComN1cmx4J3NlbGYjanVtYmY9YzJwYS5hc3NlcnRpb25zL2MycGEuYWN0aW9uc2RoYXNoWCBKacG9/6jeQTB4viTtzPgxOsHRZJU0VnGgDWsGszfUr6JjdXJseClzZWxmI2p1bWJmPWMycGEuYXNzZXJ0aW9ucy9jMnBhLmhhc2guZGF0YWRoYXNoWCCiO9LYCZG7ZlyI9KWSKSwxto9DVsa/KgkFdDXE0Cs/CWNhbGdmc2hhMjU2AAAwEGp1bWIAAAAoanVtZGMyY3MAEQAQgAAAqgA4m3EDYzJwYS5zaWduYXR1cmUAAAAv4GNib3LShFkM76IBOCQYIYJZBj0wggY5MIIEIaADAgECAhAVjf8nrCPSuCVLTmM3Hh2eMA0GCSqGSIb3DQEBCwUAMHUxCzAJBgNVBAYTAlVTMSMwIQYDVQQKExpBZG9iZSBTeXN0ZW1zIEluY29ycG9yYXRlZDEdMBsGA1UECxMUQWRvYmUgVHJ1c3QgU2VydmljZXMxIjAgBgNVBAMTGUFkb2JlIFByb2R1Y3QgU2VydmljZXMgRzMwHhcNMjQxMDE1MDAwMDAwWhcNMjUxMDE1MjM1OTU5WjCBqzETMBEGA1UEAwwKQWRvYmUgQzJQQTEoMCYGA1UECwwfQ29udGVudCBBdXRoZW50aWNpdHkgSW5pdGlhdGl2ZTETMBEGA1UECgwKQWRvYmUgSW5jLjERMA8GA1UEBwwIU2FuIEpvc2UxEzARBgNVBAgMCkNhbGlmb3JuaWExCzAJBgNVBAYTAlVTMSAwHgYJKoZIhvcNAQkBFhFjYWktb3BzQGFkb2JlLmNvbTCCASIwDQYJKoZIhvcNAQEBBQADggEPADCCAQoCggEBAMMQwYHQfT1y6TFz8OaDYGJBVgzz9Wkn7YfU2TyDTrTkJYadb+IfoTMWVhY5Gd0SUbqEga7EkmAWhH4gzCorIv7DsbhRygVf/5da790q464sQDVyJaoxnSGMnWjGhWv+aLxc/5uPklM9HHGM6sPr0gM7kckhp6YJvBpo/khCXC/xiB86lPW1MtzbIs2NqGNvMo99q25DqngA0jOdTqiCSpaBARRXsczLp86VPitrC6oXqEfBSTGkdHxl2v4Kkc4ZIgRYcFISz0vbOvkwp89PVGTJV23Rv4hSo91DxVA46odMLRYHM9uA61JWlnopbSh6LspgR7oq875jhtFbUj3qcTkCAwEAAaOCAYwwggGIMAwGA1UdEwEB/wQCMAAwDgYDVR0PAQH/BAQDAgeAMB4GA1UdJQQXMBUGCSqGSIb3LwEBDAYIKwYBBQUHAwQwgY4GA1UdIASBhjCBgzCBgAYJKoZIhvcvAQIDMHMwcQYIKwYBBQUHAgIwZQxjWW91IGFyZSBub3QgcGVybWl0dGVkIHRvIHVzZSB0aGlzIExpY2Vuc2UgQ2VydGlmaWNhdGUgZXhjZXB0IGFzIHBlcm1pdHRlZCBieSB0aGUgbGljZW5zZSBhZ3JlZW1lbnQuMF0GA1UdHwRWMFQwUqBQoE6GTGh0dHA6Ly9wa2ktY3JsLnN5bWF1dGguY29tL2NhXzdhNWMzYTBjNzMxMTc0MDZhZGQxOTMxMmJjMWJjMjNmL0xhdGVzdENSTC5jcmwwNwYIKwYBBQUHAQEEKzApMCcGCCsGAQUFBzABhhtodHRwOi8vcGtpLW9jc3Auc3ltYXV0aC5jb20wHwYDVR0jBBgwFoAUVyl6Mk3M/uQ1TsAfJHPOc1Or32owDQYJKoZIhvcNAQELBQADggIBAKq5ehS0PnPS2Gn9IoMk4BKzS/V5ponok96IShXrydwTe5FpGQ9c521cN151+bYEGiqvgIkgpXTcWBCqlPkavS69uhhoJQUgNLPw7NpMPti5Z05qIwBwh9wr1UW4Rhx62rIZp34MJhdU0pGlpOzcRIW7fcEKIhDJC0kHjOEuArvte+hcxHcvs85A5EVqnkjkDv6htlkbaP7yKt9BAn+r+hbWsySNQliKoQSuaCYqEjWy7AlSYWq91HGvQ9dbo3mVuJNozwrJ864k5halX7Xd5Nkl1EIO8EHEHF3ygSLVmbfM7Z9CGKGcyWtcfZfXb1ygCbzbA6M+Lg3q0vM/a8y7BEL8y9cj206ePv+pk0wFrKGg7ZpGYJt1/rH3z1918zBZn8yB4mH1I2uZyitm7OD+9bYrf9VPxQ9sXZac2UrqUagjBs/lE3lyPCKzeWUf/hfK0rJkQErY54IM/8A7nMHA5SW2OP0SqtwawIuC2pizCH8KP3Wy+eUw5SDnexwn5koGm3NVjtCo4ty1v1WZz/VRvFolBvlqrTdTkCAGZhVDlnV0Bi2oPiNTmmdQVyQzbCYl3INkxjQUhD6OOAJH5/TMxRisgeVLqzDeDR9KpWpoa4SoldPm+9xY8d99D/368QZs8eTaQEITSpLMfheM9UvAMtaNkwSJJHgBWw88vH/xcbsrWQalMIIGoTCCBImgAwIBAgIQDKi2VHuJ5tIGiXXNi5uJ4jANBgkqhkiG9w0BAQsFADBsMQswCQYDVQQGEwJVUzEjMCEGA1UEChMaQWRvYmUgU3lzdGVtcyBJbmNvcnBvcmF0ZWQxHTAbBgNVBAsTFEFkb2JlIFRydXN0IFNlcnZpY2VzMRkwFwYDVQQDExBBZG9iZSBSb290IENBIEcyMB4XDTE2MTEyOTAwMDAwMFoXDTQxMTEyODIzNTk1OVowdTELMAkGA1UEBhMCVVMxIzAhBgNVBAoTGkFkb2JlIFN5c3RlbXMgSW5jb3Jwb3JhdGVkMR0wGwYDVQQLExRBZG9iZSBUcnVzdCBTZXJ2aWNlczEiMCAGA1UEAxMZQWRvYmUgUHJvZHVjdCBTZXJ2aWNlcyBHMzCCAiIwDQYJKoZIhvcNAQEBBQADggIPADCCAgoCggIBALcfLr29CbNcSGz+DIOubAHqUXglpIA+iaexsohk2vaJdoH5+R3zlfx4mI2Yjs/k7hxVPg1zWnfOsRKoFXhlTJbyBxnvxB3CgcbxA13ZU1wecyBJH5dP0hp+yer01/DDcm30oveXkA1DmfX4wmqvjwRY0uWX3jZs4v8kfjLANIyiqFmq0kQhRRQaVBUFnwIC8lzssTp10DkLnY8TY+lrtF9CAdd/iB9dVnCnFhFlzOI+I4eoS8tvQndxKFRt6MXFXpzBfxDIA9rV48eDVG0zQdf4PfjEejcOTIaeZP4N2rTRMQMYbboAvk90g0oUhCX7NqrookVB7V90YTnCtbNTiYE+bNrPcRsuf7sVaXACGitiogyV1t8cTfJ1z5pNTUlbv5sbX2qa+E70iW4a1O1AN6oUGPZ+Dp9rGx9V9U8Puy03pPCggOWQ4IThET4iKfybfPd6qL9WxOayZGoHFYNFqo4fPTYQmgQPFckbd6L5RsginTVdlC925+b3RbE5O6qpqfZmpM9f0rlV2MSH+i+vvEVzmrV1mj5JrnLixNUzznj+0tTeSU6BQrPNJdg9hLcaEFxgkePCv3E1Eec1f30PoXSDs6KNJxZ++2PGHXdpO/8fQRO/KZqHjJ8OlV2H1wrlhII+qe46Wy6MUDKFjAlc5YO9llTYSRZUsOGg/H3Ons3hAgMBAAGjggE0MIIBMDASBgNVHRMBAf8ECDAGAQH/AgEAMDUGA1UdHwQuMCwwKqAooCaGJGh0dHA6Ly9jcmwuYWRvYmUuY29tL2Fkb2Jlcm9vdGcyLmNybDAOBgNVHQ8BAf8EBAMCAQYwFAYDVR0lBA0wCwYJKoZIhvcvAQEHMFcGA1UdIARQME4wTAYJKoZIhvcvAQIDMD8wPQYIKwYBBQUHAgEWMWh0dHBzOi8vd3d3LmFkb2JlLmNvbS9taXNjL3BraS9wcm9kX3N2Y2VfY3BzLmh0bWwwJAYDVR0RBB0wG6QZMBcxFTATBgNVBAMTDFNZTUMtNDA5Ni0zMzAdBgNVHQ4EFgQUVyl6Mk3M/uQ1TsAfJHPOc1Or32owHwYDVR0jBBgwFoAUphzhbVQkTKiPSHK/bqmM1eTsMdQwDQYJKoZIhvcNAQELBQADggIBAHHO5QeMptwt3MjgO2VeAJKBleuVICSvn2k4Xcl88bjapU0AZTslwRhcnr5Zt9wbBjtZgyX6M7si8k9vuyFcVhb1ucmDFfuUtTXgoTFyGZws1jV57oiEEnZjw/NkxFQpJ3kKRRE+DQ8EsaPP8pH8Oh8fH4bis9MI4Y5FjF5it3TWVyLmFXG8pxy8iTswPr1lN7B9k9Iz7RaexTd/RmZ3uGBtGlTJZx4bR4cWl1Qor9kVaEeMNULbyh0Kc3zzm0edwpe+Ii0rRlRSj8Ai2EUqWEReyer1Uv18VuC87zdm+lRCjnLyZjdy4acRUZd2GM1vncJ8LW7h1uliZZo332y5tTMSxRpRveWgs99V/MM6mDbL2/fuQF3L/C5evbS15jtTrbGP98CCzVBKeFS2UxN8Kpt5/ITJwpWYoismQkuy+BNJgpW8fgUUjB93laOo4L3uNf3ytxUDOEAjSJKRrOxY4y8vqbQvicslqnH7zkaxVfxjoAeYQ/huYISXCKXooA/5R7AkWLDmubBXakRIcCFi5klrTcHy2XSd3ZAnO8kaZt4GpeqkX05GKcUzccSsrym5GiQ6MUfb7Vqwt4ja0HfVb8Qt017bs6B26rpnqoHAKnn1hfburJ0OEPRZF83riQKzbkrzyIYAY1bYIB9MNL5v5ZgkGIgv2NdhngsX4GJS9927o2ZzaWdUc3ShaXRzdFRva2Vuc4GhY3ZhbFkOOTCCDjUwAwIBADCCDiwGCSqGSIb3DQEHAqCCDh0wgg4ZAgEDMQ8wDQYJYIZIAWUDBAIBBQAwgYIGCyqGSIb3DQEJEAEEoHMEcTBvAgEBBglghkgBhv1sBwEwMTANBglghkgBZQMEAgEFAAQgO7ZoKhHYIEjYKgrjxyvjPpyV7jOgPcHpti9M1av7HtMCEQCOwgFQstC72xCdmjkNMyZVGA8yMDI1MDUwNjAzMTMzOVoCCGxWgdxED2zNoIILwDCCBQowggLyoAMCAQICEAwLL8d6eM+67WVWVMGaJAMwDQYJKoZIhvcNAQELBQAwYzELMAkGA1UEBhMCVVMxFzAVBgNVBAoTDkRpZ2lDZXJ0LCBJbmMuMTswOQYDVQQDEzJEaWdpQ2VydCBUcnVzdGVkIEc0IFJTQTQwOTYgU0hBMjU2IFRpbWVTdGFtcGluZyBDQTAeFw0yNDExMjAwMDAwMDBaFw0zNjAyMTkyMzU5NTlaMFsxCzAJBgNVBAYTAlVTMREwDwYDVQQKEwhEaWdpQ2VydDE5MDcGA1UEAxMwRUNDMjU2X1NIQTI1Nl9UaW1lc3RhbXBfUmVzcG9uZGVyX0Fkb2JlX05PVl8yMDI0MFkwEwYHKoZIzj0CAQYIKoZIzj0DAQcDQgAE0PwehfiBmKYqkEC8Tn6pFJnk5kkVmc8UgrcDPNrIlv0m12s5LUchFpsCFbPvDyY4VfQuH1CdtyBkcbH8yTPJXqOCAYswggGHMA4GA1UdDwEB/wQEAwIHgDAMBgNVHRMBAf8EAjAAMBYGA1UdJQEB/wQMMAoGCCsGAQUFBwMIMCAGA1UdIAQZMBcwCAYGZ4EMAQQCMAsGCWCGSAGG/WwHATAfBgNVHSMEGDAWgBS6FtltTYUvcyl2mi91jGogj57IbzAdBgNVHQ4EFgQU7NEcb3znoE3kMT+HAAjUrdR9NrswWgYDVR0fBFMwUTBPoE2gS4ZJaHR0cDovL2NybDMuZGlnaWNlcnQuY29tL0RpZ2lDZXJ0VHJ1c3RlZEc0UlNBNDA5NlNIQTI1NlRpbWVTdGFtcGluZ0NBLmNybDCBkAYIKwYBBQUHAQEEgYMwgYAwJAYIKwYBBQUHMAGGGGh0dHA6Ly9vY3NwLmRpZ2ljZXJ0LmNvbTBYBggrBgEFBQcwAoZMaHR0cDovL2NhY2VydHMuZGlnaWNlcnQuY29tL0RpZ2lDZXJ0VHJ1c3RlZEc0UlNBNDA5NlNIQTI1NlRpbWVTdGFtcGluZ0NBLmNydDANBgkqhkiG9w0BAQsFAAOCAgEAouzBIPJ5Ly2riyO3AI9tQ4JzBK4dJp7QreHOLbFvciUGXWb9Z/BNXbnmsm+iImfJmGpmyJq03rlSsBqlEiE2U4lYbRUT980Q/Q6RZPhMeD9NdCErR/3g9ZYCum1X2mNIL83CEUD9wsCM6gWQBPNXOUCDYz7PNXLySzhSnf3F+8zoaEL684jQ8teVDU+X7lEXtn4qADULETWDplVwHYNkyuzpLWA/hB/w/IFq+5x0IUSTLg+eBjY4mZzT52F8+hd4+wbtmlZYq70BgALK1tuy6oYPZLFufmi/oPf5cqkaDK1i0suCg0Gs7TwfjyrJHnDtUe3WyW8O1ARVZfhmxmlHOMeh71SzTS+YR44i63/QOM8XudnvWaqUlO5A7u3bEV75vriyzF4xxUsf49LLSHMZ0B8Di+AOUUblB9V8NcM9gohryBzXKGK5Kn5G+k7CiVO57Q6jShSmd+PbARK03V8FaCHeM0v3FfwOaztSsOWjTv81EwrUJG3DIPPFxlqiJmmJiB4SLx2hNZ0XT1gmtEIa8b4qHj+OaeP86nfya1WzbKBLhAUkSDwd/lYi2qBZYpmUVHj88CmL8k63eoO9plbReD62278tZKglJrGQzBap99w0dDfEM6pM4q927nzciOZPeUatzV3G3zWA8famfIIwruDR7UsQHSSrMM2/YIuo8hUwggauMIIElqADAgECAhAHNje3JFR82Ees/ShmKl5bMA0GCSqGSIb3DQEBCwUAMGIxCzAJBgNVBAYTAlVTMRUwEwYDVQQKEwxEaWdpQ2VydCBJbmMxGTAXBgNVBAsTEHd3dy5kaWdpY2VydC5jb20xITAfBgNVBAMTGERpZ2lDZXJ0IFRydXN0ZWQgUm9vdCBHNDAeFw0yMjAzMjMwMDAwMDBaFw0zNzAzMjIyMzU5NTlaMGMxCzAJBgNVBAYTAlVTMRcwFQYDVQQKEw5EaWdpQ2VydCwgSW5jLjE7MDkGA1UEAxMyRGlnaUNlcnQgVHJ1c3RlZCBHNCBSU0E0MDk2IFNIQTI1NiBUaW1lU3RhbXBpbmcgQ0EwggIiMA0GCSqGSIb3DQEBAQUAA4ICDwAwggIKAoICAQDGhjUGSbPBPXJJUVXHJQPE8pE3qZdRodbSg9GeTKJtoLDMg/la9hGhRBVCX6SI82j6ffOciQt/nR+eDzMfUBMLJnOWbfhXqAJ9/UO0hNoR8XOxs+4rgISKIhjf69o9xBd/qxkrPkLcZ47qUT3w1lbU5ygt69OxtXXnHwZljZQp09nsad/ZkIdGAHvbREGJ3HxqV3rwN3mfXazL6IRktFLydkf3YYMZ3V+0VAshaG43IbtArF+y3kp9zvU5EmfvDqVjbOSmxR3NNg1c1eYbqMFkdECnwHLFuk4fsbVYTXn+149zk6wsOeKlSNbwsDETqVcplicu9Yemj052FVUmcJgmf6AaRyBD40NjgHt1biclkJg6OBGz9vae5jtb7IHeIhTZgirHkr+g3uM+onP65x9abJTyUpURK1h0QCirc0PO30qhHGs4xSnzyqqWc0Jon7ZGs506o9UD4L/wojzKQtwYSH8UNM/STKvvmz3+DrhkKvp1KCRB7UK/BZxmSVJQ9FHzNklNiyDSLFc1eSuo80VgvCONWPfcYd6T/jnA+bIwpUzX6ZhKWD7TA4j+s4/TXkt2ElGTyYwMO1uKIqjBJgj5FBASA31fI7tk42PgpuE+9sJ0sj8eCXbsq11GdeJgo1gJASgADoRU7s7pXcheMBK9Rp6103a50g5rmQzSM7TNsQIDAQABo4IBXTCCAVkwEgYDVR0TAQH/BAgwBgEB/wIBADAdBgNVHQ4EFgQUuhbZbU2FL3MpdpovdYxqII+eyG8wHwYDVR0jBBgwFoAU7NfjgtJxXWRM3y5nP+e6mK4cD08wDgYDVR0PAQH/BAQDAgGGMBMGA1UdJQQMMAoGCCsGAQUFBwMIMHcGCCsGAQUFBwEBBGswaTAkBggrBgEFBQcwAYYYaHR0cDovL29jc3AuZGlnaWNlcnQuY29tMEEGCCsGAQUFBzAChjVodHRwOi8vY2FjZXJ0cy5kaWdpY2VydC5jb20vRGlnaUNlcnRUcnVzdGVkUm9vdEc0LmNydDBDBgNVHR8EPDA6MDigNqA0hjJodHRwOi8vY3JsMy5kaWdpY2VydC5jb20vRGlnaUNlcnRUcnVzdGVkUm9vdEc0LmNybDAgBgNVHSAEGTAXMAgGBmeBDAEEAjALBglghkgBhv1sBwEwDQYJKoZIhvcNAQELBQADggIBAH1ZjsCTtm+YqUQiAX5m1tghQuGwGC4QTRPPMFPOvxj7x1Bd4ksp+3CKDaopafxpwc8dB+k+YMjYC+VcW9dth/qEICU0MWfNthKWb8RQTGIdDAiCqBa9qVbPFXONASIlzpVpP0d3+3J0FNf/q0+KLHqrhc1DX+1gtqpPkWaeLJ7giqzl/Yy8ZCaHbJK9nXzQcAp876i8dU+6WvepELJd6f8oVInw1YpxdmXazPByoyP6wCeCRK6ZJxurJB4mwbfeKuv2nrF5mYGjVoarCkXJ38SNoOeY+/umnXKvxMfBwWpx2cYTgAnEtp/Nh4cku0+jSbl3ZpHxcpzpSwJSpzd+k1OsOx0ISQ+UzTl63f8lY5knLD0/a6fxZsNBzU+2QJshIUDQtxMkzdwdeDrknq3lNHGS1yZr5Dhzq6YBT70/O3itTK37xJV77QpfMzmHQXh6OOmc4d0j/R0o08f56PGYX/sr2H7yRp11LB4nLCbbbxV7HhmLNriT1ObyF5lZynDwN7+YAN8gFk8n+2BnFqFmut1VwDophrCYoCvtlUG3OtUVmDG0YgkPCr2B2RP+v6TR81fZvAT6gt4y3wSJ8ADNXcL50CN/AAvkdgIm2fBldkKmKYcJRyvmfxqkhQ/8mJb2VVQrH4D6wPIOK+XW+6kvRBVK5xMOHds3OBqhK/bt1nz8MYIBuDCCAbQCAQEwdzBjMQswCQYDVQQGEwJVUzEXMBUGA1UEChMORGlnaUNlcnQsIEluYy4xOzA5BgNVBAMTMkRpZ2lDZXJ0IFRydXN0ZWQgRzQgUlNBNDA5NiBTSEEyNTYgVGltZVN0YW1waW5nIENBAhAMCy/HenjPuu1lVlTBmiQDMA0GCWCGSAFlAwQCAQUAoIHRMBoGCSqGSIb3DQEJAzENBgsqhkiG9w0BCRABBDAcBgkqhkiG9w0BCQUxDxcNMjUwNTA2MDMxMzM5WjArBgsqhkiG9w0BCRACDDEcMBowGDAWBBT3EwJUZBucztJRLWLFv58phIz8+DAvBgkqhkiG9w0BCQQxIgQgvP7DGy+7sFYKRTUNF1E8mJ847DE9dKx9fZjPB8OjbrAwNwYLKoZIhvcNAQkQAi8xKDAmMCQwIgQguXomaB0Y6bl8Yz74SDlkVXWXltpQQ0Qsj4zN5SfgAKkwCgYIKoZIzj0EAwIERzBFAiB0/tLwt4tsSDyDS/OLmO5eUE3yiWUN0AFo/IU6iSdNCQIhAOr8p8w4pVdjYlkcxX+xOSYo8xxJ2nPRuq5YQEf9XWnsZXJWYWxzoWhvY3NwVmFsc4FZCNgwggjUCgEAoIIIzTCCCMkGCSsGAQUFBzABAQSCCLowggi2MIGeohYEFMCJ1oeHPK/pFZB7d3KcDut+3NK0GA8yMDI1MDUwMzIxMDc0M1owczBxMEkwCQYFKw4DAhoFAAQUu99zJXvbI6LHTold3/wRhaibiwEEFFcpejJNzP7kNU7AHyRzznNTq99qAhAVjf8nrCPSuCVLTmM3Hh2egAAYDzIwMjUwNTAzMjEwNzQzWqARGA8yMDI1MDUxMDIxMDc0M1owDQYJKoZIhvcNAQELBQADggIBACdQ3AXA0boEA2+CNziZ0q63OB4uCdQX31BIsMxwLCzf1KLlP3Y3AOZNA/0liCafh4Y7rZRLz4DeO9Cizn5oHZSjTjL1UDV3LMjV7jkLyh4FqwwKHGNShLl/fdtbqtLyVI99VUHg3/5ImXbvGNztyRsKj/JSePOue1zWRU+cpzGY3nYMjtaLWLpURELmm9w5jtLlZsnWypCa7tcchJ0+LKjD2kz7s5j7fDwxpj6z+7BwmdYytnv7NLSo3V0YUYuxWoZytoUVu2GanRlVx8a14dwLRpQ+RE9QbTJgjiY0G42wc1epoariAiraW13VjAmCEOABoP9NzAGqxdkwnCY2YBzGDzMAkHOi6UtERxMfu1lcgP/cqfu4tFom5uNVX2hgKquJwRaXni4kzsoaCXfp+ZXNF1ghLB7+74bNLCllrjkACByX3qftU6p759jhA6gmnacBPcfhm492P05MCcVOy7yVCL2jousy4jw4ZFVfr36d9WmS9W/aiGTsgYwQ/5W9O8bsXFkGgDXkGYP4K1jCxswMpSbIL+D72+Ktvnsio8MHKbOsp1OtcrGg6Qe+G8fmaDyO4mnwoW5XE3ApRIe9u0F3EjistGIBpyqBAY1NZy99zQ+zurTN7c6b1BXjWyd/ujByMWXrSTWxOGlHn5/+iZOxSYeaRpPnXRijmd9Oi0NWoIIF/TCCBfkwggX1MIID3aADAgECAhQ347gR30e1EGqILcKthISuTXkb1zANBgkqhkiG9w0BAQsFADB1MQswCQYDVQQGEwJVUzEjMCEGA1UEChMaQWRvYmUgU3lzdGVtcyBJbmNvcnBvcmF0ZWQxHTAbBgNVBAsTFEFkb2JlIFRydXN0IFNlcnZpY2VzMSIwIAYDVQQDExlBZG9iZSBQcm9kdWN0IFNlcnZpY2VzIEczMB4XDTI1MDQzMDIwMjgwOVoXDTI1MDcyOTIwMjgwOVowejELMAkGA1UEBhMCVVMxIzAhBgNVBAoTGkFkb2JlIFN5c3RlbXMgSW5jb3Jwb3JhdGVkMUYwRAYDVQQDEz1BZG9iZSBQcm9kdWN0IFNlcnZpY2VzIEczIE9DU1AgUmVzcG9uZGVyIDIwMjUtMDQtMzBUMjA6Mjg6MDlaMIICIjANBgkqhkiG9w0BAQEFAAOCAg8AMIICCgKCAgEA4vz/HntTTUqeDC2CrlNQODpqeh9dm5XYqSqm7fk3yOlNMb/62UBTmJhY/0dZ6n8f5qZzHtKdCogNVH7YqyVQy9SWIisydXSqcWB2tHx6Wi3LfXTY0yBf5lcqQ8+8gxtzefFoZk0Z6dbv+7tWAws2tm0bESVGRGxMFMpAnCFt42NT0PJYByrB4GZNdwnk2OMc3pyxSXYFuVuXg31PZbh9qz9RlrWeGs7295bOlOmDqSsSRTPrx/iKA4RsORjmdtoZ85tqaTk4iJzwnEaOQCR27dCuYVAQfSm68pJIX1vLCy3ACWO70WXE7BAu7o0g5a/gjIuwZHQYm9e6Q1zrqHwTZA/+6BsEo3FOmifnciL3FVPNfFC9+hnKH3imkR6Z3AQBKVQCsY1ZX9LIZtB7Q02GbAXlrDXlovp5cIf0DXd4dZ8rXNx8g7X3B3LYmz/yW0ODY0R+f5SLrRlXFd9ESvOdf5nJSNaPYMSUFwGmJozFCXy/sO1oxH4oKFJGbGdgBjLLM1sNs7aXIdCVSX/hZsuSTeTSVvA0Yn+XEdRztm81Z2vybfT9KsBzj8ZFPuqaTYH1ru0bysISs499/obwt83cD3GIvoGmODqxKp4kGVKRC1bjaD/tQL10Vmq02KChxiMUwHV7Nz84QXJuJFuWcdhG2JkAaRwZb+TjgDf2VZxWBMECAwEAAaN4MHYwHQYDVR0OBBYEFMCJ1oeHPK/pFZB7d3KcDut+3NK0MB8GA1UdIwQYMBaAFFcpejJNzP7kNU7AHyRzznNTq99qMA4GA1UdDwEB/wQEAwIHgDATBgNVHSUEDDAKBggrBgEFBQcDCTAPBgkrBgEFBQcwAQUEAgUAMA0GCSqGSIb3DQEBCwUAA4ICAQBu86vXEXhUFctVXY6+wmTFVwXUdLR/oO9zfyGDlBqsqMcq6Z3fZ5Ow7N7OFfRzyumDKvLkls9rEMbXtLcz/fkzdbSO3aMeSKyRs38XiUgN7F50cT3EsaToCSkLavBu7gkC3cuHXUa/tZTp6Py5dl8WUqsi/xQtPKFogwf2xqhWxddTx20LksgEQ0HwBfyP2R2KbTlYVUIAb7OSFy2S/uvrP0J0BnERXnndwtbzH4mq0pJ+n52x96WG+x0GsO3v85txnGwGQtR7MKLZ23TxPasBWc7lSZcW7Wm3PSLsMi8iB2JsZ82loIIATweb/zHTWXj9g7h6BC7yYiqBl8bjfDveRldpg3opY8gvPxGKDJ6V60bLeWFsa1rYMiokNH0uOsjrWX/MVF4bo8DDLNM65ExxqekFWl7Rsvk3jJzkWbAplm563IEz0UDE+L6feSf7ECP2NCoUmasr520kRhBAkvzsBY3jBJ638mUKz3o7YpeWoFDenyII/XMKTF4k0rEc3xga88OYWbjVExRL3/WeHOiT7f846Gsa/8ODX9kqKD0t9rJ88vTm2u6qQ2CqjpeHb9g+KfE8L4oVL3xluMbwRaBHQxEjEXybRn1b+Uv+14Zc/Le2lGZDJx4JjsdfAolkupLEHw8f4+TGWe0TobOK1EWyPI4H4ipjV/ohjL9Xd+XbBWNwYWRZCpgAAAAAAAAAAAAAAAAAAAAAAAAAAAAAAAAAAAAAAAAAAAAAAAAAAAAAAAAAAAAAAAAAAAAAAAAAAAAAAAAAAAAAAAAAAAAAAAAAAAAAAAAAAAAAAAAAAAAAAAAAAAAAAAAAAAAAAAAAAAAAAAAAAAAAAAAAAAAAAAAAAAAAAAAAAAAAAAAAAAAAAAAAAAAAAAAAAAAAAAAAAAAAAAAAAAAAAAAAAAAAAAAAAAAAAAAAAAAAAAAAAAAAAAAAAAAAAAAAAAAAAAAAAAAAAAAAAAAAAAAAAAAAAAAAAAAAAAAAAAAAAAAAAAAAAAAAAAAAAAAAAAAAAAAAAAAAAAAAAAAAAAAAAAAAAAAAAAAAAAAAAAAAAAAAAAAAAAAAAAAAAAAAAAAAAAAAAAAAAAAAAAAAAAAAAAAAAAAAAAAAAAAAAAAAAAAAAAAAAAAAAAAAAAAAAAAAAAAAAAAAAAAAAAAAAAAAAAAAAAAAAAAAAAAAAAAAAAAAAAAAAAAAAAAAAAAAAAAAAAAAAAAAAAAAAAAAAAAAAAAAAAAAAAAAAAAAAAAAAAAAAAAAAAAAAAAAAAAAAAAAAAAAAAAAAAAAAAAAAAAAAAAAAAAAAAAAAAAAAAAAAAAAAAAAAAAAAAAAAAAAAAAAAAAAAAAAAAAAAAAAAAAAAAAAAAAAAAAAAAAAAAAAAAAAAAAAAAAAAAAAAAAAAAAAAAAAAAAAAAAAAAAAAAAAAAAAAAAAAAAAAAAAAAAAAAAAAAAAAAAAAAAAAAAAAAAAAAAAAAAAAAAAAAAAAAAAAAAAAAAAAAAAAAAAAAAAAAAAAAAAAAAAAAAAAAAAAAAAAAAAAAAAAAAAAAAAAAAAAAAAAAAAAAAAAAAAAAAAAAAAAAAAAAAAAAAAAAAAAAAAAAAAAAAAAAAAAAAAAAAAAAAAAAAAAAAAAAAAAAAAAAAAAAAAAAAAAAAAAAAAAAAAAAAAAAAAAAAAAAAAAAAAAAAAAAAAAAAAAAAAAAAAAAAAAAAAAAAAAAAAAAAAAAAAAAAAAAAAAAAAAAAAAAAAAAAAAAAAAAAAAAAAAAAAAAAAAAAAAAAAAAAAAAAAAAAAAAAAAAAAAAAAAAAAAAAAAAAAAAAAAAAAAAAAAAAAAAAAAAAAAAAAAAAAAAAAAAAAAAAAAAAAAAAAAAAAAAAAAAAAAAAAAAAAAAAAAAAAAAAAAAAAAAAAAAAAAAAAAAAAAAAAAAAAAAAAAAAAAAAAAAAAAAAAAAAAAAAAAAAAAAAAAAAAAAAAAAAAAAAAAAAAAAAAAAAAAAAAAAAAAAAAAAAAAAAAAAAAAAAAAAAAAAAAAAAAAAAAAAAAAAAAAAAAAAAAAAAAAAAAAAAAAAAAAAAAAAAAAAAAAAAAAAAAAAAAAAAAAAAAAAAAAAAAAAAAAAAAAAAAAAAAAAAAAAAAAAAAAAAAAAAAAAAAAAAAAAAAAAAAAAAAAAAAAAAAAAAAAAAAAAAAAAAAAAAAAAAAAAAAAAAAAAAAAAAAAAAAAAAAAAAAAAAAAAAAAAAAAAAAAAAAAAAAAAAAAAAAAAAAAAAAAAAAAAAAAAAAAAAAAAAAAAAAAAAAAAAAAAAAAAAAAAAAAAAAAAAAAAAAAAAAAAAAAAAAAAAAAAAAAAAAAAAAAAAAAAAAAAAAAAAAAAAAAAAAAAAAAAAAAAAAAAAAAAAAAAAAAAAAAAAAAAAAAAAAAAAAAAAAAAAAAAAAAAAAAAAAAAAAAAAAAAAAAAAAAAAAAAAAAAAAAAAAAAAAAAAAAAAAAAAAAAAAAAAAAAAAAAAAAAAAAAAAAAAAAAAAAAAAAAAAAAAAAAAAAAAAAAAAAAAAAAAAAAAAAAAAAAAAAAAAAAAAAAAAAAAAAAAAAAAAAAAAAAAAAAAAAAAAAAAAAAAAAAAAAAAAAAAAAAAAAAAAAAAAAAAAAAAAAAAAAAAAAAAAAAAAAAAAAAAAAAAAAAAAAAAAAAAAAAAAAAAAAAAAAAAAAAAAAAAAAAAAAAAAAAAAAAAAAAAAAAAAAAAAAAAAAAAAAAAAAAAAAAAAAAAAAAAAAAAAAAAAAAAAAAAAAAAAAAAAAAAAAAAAAAAAAAAAAAAAAAAAAAAAAAAAAAAAAAAAAAAAAAAAAAAAAAAAAAAAAAAAAAAAAAAAAAAAAAAAAAAAAAAAAAAAAAAAAAAAAAAAAAAAAAAAAAAAAAAAAAAAAAAAAAAAAAAAAAAAAAAAAAAAAAAAAAAAAAAAAAAAAAAAAAAAAAAAAAAAAAAAAAAAAAAAAAAAAAAAAAAAAAAAAAAAAAAAAAAAAAAAAAAAAAAAAAAAAAAAAAAAAAAAAAAAAAAAAAAAAAAAAAAAAAAAAAAAAAAAAAAAAAAAAAAAAAAAAAAAAAAAAAAAAAAAAAAAAAAAAAAAAAAAAAAAAAAAAAAAAAAAAAAAAAAAAAAAAAAAAAAAAAAAAAAAAAAAAAAAAAAAAAAAAAAAAAAAAAAAAAAAAAAAAAAAAAAAAAAAAAAAAAAAAAAAAAAAAAAAAAAAAAAAAAAAAAAAAAAAAAAAAAAAAAAAAAAAAAAAAAAAAAAAAAAAAAAAAAAAAAAAAAAAAAAAAAAAAAAAAAAAAAAAAAAAAAAAAAAAAAAAAAAAAAAAAAAAAAAAAAAAAAAAAAAAAAAAAAAAAAAAAAAAAAAAAAAAAAAAAAAAAAAAAAAAAAAAAAAAAAAAAAAAAAAAAAAAAAAAAAAAAAAAAAAAAAAAAAAAAAAAAAAAAAAAAAAAAAAAAAAAAAAAAAAAAAAAAAAAAAAAAAAAAAAAAAAAAAAAAAAAAAAAAAAAAAAAAAAAAAAAAAAAAAAAAAAAAAAAAAAAAAAAAAAAAAAAAAAAAAAAAAAAAAAAAAAAAAAAAAAAAAAAAAAAAAAAAAAAAAAAAAAAAAAAAAAAAAAAAAAAAAAAAAAAAAAAAAAAAAAAAAAAAAAAAAAAAAAAAAAAAAAAAAAAAAAAAAAAAAAAAAAAAAAAAAAAAAAAAAAAAAAAAAAAAAAAAAAAAAAAAAAAAAAAAAAAAAAAAAAAAAAAAAAAAAAAAAAAAAAAAAAAAAAAAAAAAAAAAAAAAAAAAAAAAAAAAAAAAAAAAAAAAAAAAAAAAAAAAAAAAAAAAAAAAAAAAAAAAAAAAAAAAAAAAAAAAAAAAAAAAAAAAAAAAAAAAAAAAAAAAAAAAAAAAAAAAAAAAAAAAAAAAAAAAAAAAAAAAAAAAAAAAAAAAAAAAAAAAAAAAAAAAAAAAAAAAAAAAAAAAAAAAAAAAAAAAAAAAAAAAAAAAAAAAAAAAAAAAAAAAAAAAAAAAAAAAAAAAAAAAAAAAAAAAAAAAAAAAAAAAAAAAAAAAAAAAAAAAAAAAAAAAAAAAAAAAAAAAAAAAAAAAAAAAAAAAAAAAAAAAAAAAAAAAAAAAAAAAAAAAAAAAAAAAAAAAAAAAAAAAAAAAAAAAAAAAAAAAAAAAAAAAAAAAAAAAAAAAAAAAAAAAAAAAAAAAAAAAAAAAAAAAAAAAAAAAAAAAAAAAAAAAAAAAAAAAAAAAAAAAAAAAAAAAAAAAAAAAAAAAAAAAAAAAAAAAAAAAAAAAAAAAAAAAAAAAAAAAAAAAAAAAAD2WQEAVBaX/PIr5E+We1OmstuR0U3HZG+19bTbypw9pIJsknNThVfXem87a6zJBZThj5m72gmnuZkPnRQiCgEMxFG9IFYD6qNdf7mH2j2UvPE71xn2E6vU3U9ELCWfBlIGnTHbHho/yAw/8Z1zbO+AKTeQf5hHL80tHomgdQoDtZjmQ9aBzCv1tRgTss2Wxx89VJQ+2ZPURegYc60rsVUFu4rqM2cgrHC9oXAVhjX4WGI0j5Pp6AYUl6V0d8/h9/h5vIODiOTJFdflchzSi3YRprnl0L3WEQ7o8T1O+1H7KzfXElm8SaE2aJLfYIXm0vYrclB4xhpWoUjcfb/fgI+WXRMSLA==</c2pa:manifest></metadata>
  <defs>
    <style>
      .cls-1 {
        fill: #0c7cb5;
      }

      .cls-2 {
        fill: #f1db2f;
      }

      .cls-3 {
        fill: #29b1ba;
      }

      .cls-4 {
        fill: #fba047;
      }

      .cls-5 {
        fill: #b6d0d8;
      }

      .cls-6 {
        fill: #f57a3e;
      }

      .cls-7 {
        fill: #e76944;
      }

      .cls-8 {
        fill: #0b8a98;
      }

      .cls-9 {
        fill: #92b8c9;
      }

      .cls-10 {
        fill: #fff;
      }

      .cls-11 {
        fill: #f59e0f;
      }

      .cls-12 {
        fill: #c5e4f2;
      }

      .cls-13 {
        fill: #fbbbaa;
      }

      .cls-14 {
        fill: #fed307;
      }

      .cls-15 {
        fill: #b3520b;
      }

      .cls-16 {
        fill: #222221;
      }

      .cls-17 {
        fill: #57abd2;
      }

      .cls-18 {
        fill: #0f98a3;
      }

      .cls-19 {
        fill: #a7d0e1;
      }

      .cls-20 {
        fill: #ea3e2c;
      }

      .cls-21 {
        fill: #87c7e5;
      }

      .cls-22 {
        fill: #f9b75f;
      }

      .cls-23 {
        fill: #108184;
      }

      .cls-24 {
        fill: #f0ff6a;
      }

      .cls-25 {
        fill: #f15a24;
      }

      .cls-26 {
        fill: #fdf5d8;
      }

      .cls-27 {
        fill: #0c8dcd;
      }

      .cls-28 {
        fill: #f7931e;
      }

      .cls-29 {
        fill: #cd1d16;
      }

      .cls-30 {
        fill: #fdbf29;
      }

      .cls-31 {
        fill: #ff0;
      }

      .cls-32 {
        fill: #57c1ca;
      }

      .cls-33 {
        fill: #f7aaf5;
      }
    </style>
  </defs>
  <g id="Capa_16" data-name="Capa 16">
    <g id="utiles">
      <g>
        <g>
          <path class="cls-10" d="M36.33,343.85c-19.76,0-21.06-.61-22.2-1.15-8.52-4.04-8-15.19-7.66-22.57.07-1.56.14-3.04.12-4.22-.01-.71-.01-1.44-.01-2.16,0-.58,0-1.17,0-1.75,0-.39,0-1.88,0-2.22-.01-1-.01-2.01-.02-3.03,0-.85,0-1.7-.01-2.54-.01-1.15-.01-2.3-.02-3.45,0-1.08,0-2.15-.01-3.22-.18-21-.24-42.36-.31-63.02-.03-10.5-.06-21-.11-31.49-.04-9.85-.03-19.86-.02-29.54.02-23.54.05-47.87-.7-71.76,0-.05,0-.1,0-.16,0-7.56-.06-15.26-.11-22.71-.07-8.96-.14-18.22-.11-27.33,0-1.05-.02-2.92-.05-5.28-.32-25.98.16-31.18,1.45-33.6,1.89-3.55,4.87-5.75,9.12-6.72.37-.08.74-.13,1.12-.13.33,0,.66.03.98.1.71.14,2.25.31,5.55.31,4.33,0,9.89-.28,15.78-.58,6.05-.31,12.31-.62,17.36-.62,6.09,0,9.45.44,11.62,1.52,3.77,1.88,6.41,5.19,7.26,9.08.07.34.11.69.11,1.04l1.66,312.92c0,.21-.01.41-.04.62-.65,5.46-3.52,9.75-8.07,12.08-.93.47-3.1,1.58-32.66,1.58h0Z"/>
          <path class="cls-10" d="M56.45,10c4.45,0,7.9.25,9.38.99,2.3,1.15,4.07,3.2,4.61,5.68l1.66,312.92c-.42,3.53-2.11,6.55-5.38,8.22-1.28.66-16.86,1.03-30.39,1.03-10.11,0-19.08-.21-20.05-.67-6.85-3.25-4.58-15.55-4.68-22.35-.02-1.28,0-2.6-.02-3.89,0-.74,0-1.49,0-2.22-.02-1.84,0-3.71-.02-5.56-.02-2.22-.01-4.45-.03-6.67-.27-31.48-.28-63-.42-94.49-.15-33.8.34-67.64-.73-101.43,0-16.67-.28-33.36-.22-50.02.02-5.54-.7-33.7.81-36.55,1.29-2.42,3.19-3.59,5.82-4.19,1.48.3,3.75.41,6.53.41,9.05,0,23.46-1.2,33.14-1.2M56.45,0c-5.18,0-11.5.32-17.61.63-5.83.29-11.33.57-15.53.57-3.4,0-4.46-.19-4.57-.22-.65-.13-1.3-.19-1.96-.19-.75,0-1.5.08-2.23.25C8.88,2.34,4.7,5.45,2.13,10.3.37,13.6-.26,17.56.1,46.3c.03,2.26.05,4.21.05,5.2-.03,9.14.04,18.42.11,27.39.06,7.44.11,15.13.11,22.66,0,.1,0,.21,0,.31.75,23.8.72,48.09.7,71.58-.01,9.69-.02,19.71.02,29.58.05,10.5.08,21.01.11,31.52.06,20.65.13,42.01.31,63.01,0,1.06.01,2.12.01,3.18,0,1.17,0,2.33.02,3.49,0,.83,0,1.67,0,2.51,0,1.03,0,2.05.01,3.07,0,.33,0,.67,0,1.01,0,.41,0,.81,0,1.21,0,.56,0,1.13,0,1.7,0,.75,0,1.49.01,2.23.02,1.03-.05,2.43-.12,3.92-.38,8.18-1,21.86,10.52,27.32,2.08.99,3.45,1.64,24.33,1.64,7.07,0,14.39-.1,20.09-.28,10.96-.34,12.7-.75,14.86-1.86,5.99-3.07,9.91-8.88,10.75-15.94.05-.41.07-.82.07-1.24l-1.66-312.92c0-.7-.08-1.39-.23-2.07-1.17-5.38-4.78-9.93-9.91-12.49-2.95-1.48-6.83-2.05-13.85-2.05h0Z"/>
        </g>
        <g>
          <path class="cls-10" d="M131.38,280.14c-1.74-.02-3.34-.94-4.23-2.43l-21.44-35.83c-.47-.79-.72-1.7-.71-2.62l1.63-157.78c-2.01-1.7-3.25-4.25-3.22-7.02l.16-15.8c.02-2.3.9-4.47,2.47-6.13l.14-13.63c.06-6.07,5.06-11.02,11.13-11.02.02,0,32.8.34,32.8.34,6.14.06,11.08,5.11,11.02,11.25l-.14,13.63c1.54,1.7,2.37,3.88,2.34,6.18l-.16,15.8c-.01,1.38-.35,2.76-.97,3.98-.58,1.16-1.41,2.16-2.4,2.96l-1.64,158.68c0,.92-.28,1.83-.77,2.61l-21.72,34.49c-.92,1.45-2.51,2.33-4.23,2.33h-.06Z"/>
          <path class="cls-10" d="M117.31,32.88s.04,0,.06,0l32.68.34c3.39.04,6.1,2.81,6.07,6.2l-.17,16.08c.44.2.85.48,1.2.84.76.78,1.17,1.81,1.16,2.89l-.16,15.8c0,.64-.16,1.25-.43,1.79-.57,1.12-1.64,1.94-2.9,2.17l-1.67,161.67-1.27,2.02-14.12,22.42-6.33,10.04-6.39-10.68-11.41-19.06-3.64-6.09,1.66-160.77c-1.87-.38-3.28-2.05-3.26-4.03l.16-15.8c.01-1.09.45-2.11,1.22-2.87.36-.35.78-.62,1.22-.81l.17-16.08c.03-3.36,2.77-6.07,6.13-6.07M109.4,58.53c.36-.84.91-1.57,1.6-2.15v-.45c-.23.13-.45.29-.64.48-.58.57-.91,1.31-.96,2.11M157.51,59.03c-.04-.8-.35-1.56-.92-2.13-.19-.2-.41-.35-.64-.49v.45c.68.59,1.21,1.33,1.55,2.18M111.67,77.71v-.2c-1.1-.63-1.96-1.61-2.44-2.8.07,1.45,1.08,2.65,2.44,3M154.84,78.15c1.37-.32,2.4-1.5,2.5-2.95-.5,1.18-1.38,2.14-2.5,2.75v.2M117.31,22.88c-8.8,0-16.04,7.16-16.13,15.97l-.12,11.91c-1.59,2.29-2.46,5-2.49,7.85l-.16,15.8c-.04,3.4,1.16,6.58,3.2,9.07l-1.61,155.73c-.02,1.84.47,3.66,1.42,5.24l3.64,6.08,11.41,19.06,6.39,10.68c1.78,2.98,4.99,4.83,8.47,4.86.04,0,.08,0,.11,0,3.43,0,6.63-1.76,8.46-4.67l6.33-10.04,14.12-22.42,1.27-2.02c.99-1.57,1.52-3.37,1.54-5.23l1.62-156.62c.74-.85,1.37-1.8,1.89-2.82.96-1.91,1.48-4.04,1.5-6.18l.16-15.8c.03-2.85-.78-5.58-2.33-7.9l.12-11.91c.04-4.31-1.59-8.38-4.61-11.46-3.02-3.08-7.05-4.8-11.36-4.84l-32.68-.34h-.17Z"/>
        </g>
        <g>
          <path class="cls-10" d="M205.67,109.86c-1.33,0-2.61-.53-3.56-1.49-.53-.54-.94-.97-1.49-1.67l-.27-.34c-1.4-1.77-3.32-4.18-3.91-7.79-.45-2.75-1.37-39.33-1.38-42.72,0-.41.04-.72.07-.91.02-.17.1-.67.11-2.04,0-.86-.01-1.79-.03-2.76-.14-7.81-.38-20.88,11.51-26.44,4.45-2.08,11.39-2.52,16.43-2.52,5.64,0,13.39.61,18.23,2.34,2.59.92,3.2,1.34,5.19,3.06,1.54,1.34,2.81,2.55,4.03,5,2.8,5.62,2.84,11.16,2.88,16.52,0,1.32.02,2.58.07,3.83.37.64.6,1.37.66,2.16.59,7.92.79,15.96.98,23.74.14,5.65.29,11.48.58,17.16.01.26,0,.53-.02.79-.41,3.83-3.75,9.51-7.6,11.36-2.95,1.42-9.01,1.63-23.16,1.82-7.24.09-15.45.2-18.28.8-.34.07-.69.11-1.04.11Z"/>
          <path class="cls-10" d="M223.15,26.17c6.38,0,12.97.77,16.55,2.05,1.93.69,2,.75,3.6,2.14,1.27,1.1,2.02,1.82,2.83,3.45,3.18,6.38,2,13.19,2.54,20.18.04.5.54.21.56.46,1,13.53.85,27.24,1.55,40.79-.27,2.53-2.83,6.44-4.8,7.39-4.18,2.01-33.14.71-40.31,2.23-.44-.44-.73-.75-1.13-1.25-1.34-1.7-2.76-3.35-3.17-5.85-.34-2.06-1.3-36.89-1.31-41.93,0-.15.17-.72.18-2.9.05-7.6-1.55-19.95,8.61-24.71,3.06-1.43,8.59-2.05,14.31-2.05M223.15,16.17c-8.07,0-14.31,1.01-18.55,2.99-4.62,2.16-10.66,6.72-13.15,16.15-1.41,5.34-1.32,10.64-1.24,14.91.02.96.03,1.86.03,2.64,0,.94-.05,1.29-.05,1.3-.04.3-.14.91-.13,1.7,0,1.97.88,40.05,1.45,43.52.8,4.89,3.28,8.01,4.93,10.08l.26.33c.7.89,1.26,1.47,1.85,2.08,1.9,1.93,4.48,2.99,7.13,2.99.69,0,1.39-.07,2.08-.22,2.34-.5,11.34-.61,17.3-.69,15.57-.2,21.36-.44,25.26-2.31,5.71-2.75,9.85-10.1,10.41-15.34.06-.52.07-1.05.04-1.57-.29-5.61-.43-11.42-.57-17.03-.2-7.84-.4-15.95-.99-23.99-.08-1.05-.31-2.05-.68-2.99-.02-.87-.03-1.76-.03-2.67-.04-5.65-.09-12.06-3.41-18.71-1.63-3.27-3.48-5.02-5.22-6.54-2.44-2.11-3.56-2.85-6.8-4-6.84-2.44-16.97-2.63-19.91-2.63h0Z"/>
        </g>
        <g>
          <path class="cls-10" d="M196.43,359.77c-2.43,0-4.91-.25-7.38-.75-14.94-3.02-26.49-16.32-28.09-32.34-.98-9.82,2.28-19.67,8.94-27.03,6.59-7.28,15.91-11.48,25.6-11.56.28-.94.58-1.98.87-3.01,2.16-7.61,4.39-15.45,9.63-17.99.32-1.35.59-2.65.56-3.22-.04-.45-.02-.87.05-1.32l3.27-18.7c-.13-1.5-.27-3.03-.4-4.5-.48-5.31-.78-8.65-.82-10.12-.89-26.86-1.29-74.7,5.92-93.3.88-2.27,2.36-6.07,5.68-8.32.84-.57,1.82-.86,2.81-.86.69,0,1.39.14,2.04.43,1.58.71,2.68,2.18,2.92,3.89l.14,1.06c.05-.09.1-.18.15-.27,1.04-1.74,2.84-2.78,4.81-2.78,4.77,0,7.54,6.21,8.27,8.12,0,0,0,0,0,0,3.85,9.98,4.38,29.92,4.58,47.82l.03,2.28c.25,20.4-.54,41.04-2.3,59.72l2.54,13.52c.13.71.11,1.43-.06,2.12.02.77.38,2.5.7,3.95.59.31,1.1.61,1.36.82,2.69,2.09,4.72,6.84,8.25,16.68.22.62.46,1.29.69,1.92.95-.09,1.91-.13,2.86-.13,8.93,0,17.83,3.86,24.42,10.58,6.61,6.74,10.29,15.78,10.11,24.8-.34,16.72-11.21,31.16-26.43,35.1-2.9.75-5.88,1.13-8.87,1.13h0c-7.16,0-14.16-2.16-20.23-6.25-4.38-2.95-8.02-6.82-10.71-11.2-2.37,4.52-5.72,8.61-9.92,11.91-6.49,5.1-14.1,7.79-21.98,7.79ZM226.84,299.09c-.44,1.93-.74,3.69-.59,4.77.07.37.42,1.14.83,1.97.36-.91.64-1.73.68-2.14.04-1.13-.36-2.78-.93-4.61Z"/>
          <path class="cls-10" d="M223.08,131.75l4.6,33.83c1.66-10.38,3.34-20.76,4.94-31.14.14-.24.32-.35.52-.35,1.25,0,3.34,4.22,3.61,4.93l1.55,25.79-1.55-25.79c4.09,10.6,4.12,36.21,4.27,48.36.24,19.5-.49,40.46-2.34,59.89l2.67,14.21c-.52,1.4.47,5.25,1.22,8.69.03,0,.07,0,.1,0,.26.05,2.25,1,2.51,1.21,3.17,2.47,8.01,19.64,8.97,20.2,1.98-.45,3.96-.66,5.91-.66,15.84,0,29.86,14.07,29.53,30.28-.28,13.75-9.07,26.83-22.69,30.36-2.52.65-5.08.97-7.62.97-6.15,0-12.21-1.87-17.44-5.4-9.88-6.65-15.91-19.31-13.34-31.13.74-3.4,4.17-9.17,4.27-12.09.24-6.85-7.32-17.97-4.7-25.42-.37-.83-.83-1.54-1.33-2.25-.27.16-.49.34-.7.55h0c-.8.83-1.13,2.04-1.41,3.32,1.78,7.22-4.18,18.29-3.32,24.45.38,2.73,4.06,7.98,5.01,11.21,3.5,11.81-1.45,24.79-10.99,32.28-5.64,4.43-12.06,6.73-18.89,6.73-2.09,0-4.23-.22-6.38-.65-13.34-2.69-22.79-14.77-24.1-27.93-1.77-17.75,12.35-33.1,29.85-33.1,1.04,0,2.1.05,3.17.17,2.28-4.64,4.61-20.26,9.69-21.84.07-.02.95-.05,1.44-.07.8-3,1.64-6.18,1.47-7.92l3.38-19.35c-.55-6.27-1.2-13.06-1.27-14.99-.71-21.45-1.6-72.81,5.59-91.33.85-2.18,1.89-4.68,3.82-5.99M238.18,178.12c-.05,1.47-.1,2.93-.15,4.4.05-1.47.1-2.93.15-4.4.05-1.47.09-2.93.12-4.4-.03,1.47-.07,2.93-.12,4.4M237.82,191.27s0,.06,0,.09c0,.47,0,.94,0,1.41,0-.47,0-.94,0-1.41,0-.03,0-.06,0-.09,0-.91-.02-1.83,0-2.73.03-.96.06-1.92.09-2.87-.03.96-.06,1.92-.09,2.87-.03.9-.02,1.82,0,2.73M223.08,121.75c-1.97,0-3.93.58-5.61,1.72-4.61,3.13-6.51,8.02-7.53,10.65-7.16,18.46-7.36,62-6.26,95.28.05,1.61.34,4.84.84,10.42.11,1.25.23,2.54.34,3.82l-3.15,18.06c-.13.73-.17,1.47-.14,2.2,0,.02,0,.05,0,.07-5.46,4.1-7.81,12.07-9.87,19.33-9.7,1.02-18.82,5.63-25.49,12.99-7.61,8.4-11.33,19.66-10.21,30.88,1.81,18.19,15,33.3,32.07,36.74,2.79.56,5.61.85,8.36.85,9.02,0,17.68-3.06,25.07-8.86,2.69-2.12,5.08-4.52,7.13-7.14,2.24,2.5,4.79,4.74,7.62,6.65,6.9,4.65,14.86,7.1,23.03,7.1,3.41,0,6.81-.43,10.12-1.29,17.38-4.5,29.79-20.88,30.18-39.83.21-10.35-3.99-20.71-11.53-28.4-7.38-7.53-17.32-11.91-27.38-12.08-3.47-9.57-5.65-14.53-9.31-17.4-.05-.24-.08-.46-.11-.65.15-1.07.13-2.16-.07-3.23l-2.41-12.83c1.72-18.67,2.5-39.23,2.25-59.55l-.03-2.27c-.2-18.34-.76-38.81-4.91-49.57,0-.02-.02-.05-.03-.07-.46-1.17-1.38-2.95-2.26-4.35-2.86-4.58-6.44-6.91-10.65-6.91-1.07,0-2.12.16-3.11.47-.82-.8-1.79-1.45-2.87-1.93-1.3-.58-2.69-.87-4.08-.87h0Z"/>
        </g>
      </g>
      <g>
        <g id="Objeto_generativo" data-name="Objeto generativo">
          <g>
            <path class="cls-23" d="M65.83,10.99c2.3,1.15,4.07,3.2,4.61,5.68l1.66,312.92c-.42,3.53-2.11,6.55-5.38,8.22-2.24,1.15-48.16,1.44-50.44.36-6.85-3.25-4.58-15.55-4.68-22.35-.02-1.28,0-2.6-.02-3.89,0-.74,0-1.49,0-2.22-.02-1.84,0-3.71-.02-5.56-.02-2.22-.01-4.45-.03-6.67-.27-31.48-.28-63-.42-94.49-.15-33.8.34-67.64-.73-101.43,0-16.67-.28-33.36-.22-50.02.02-5.54-.7-33.7.81-36.55,1.29-2.42,3.19-3.59,5.82-4.19,8.52,1.7,43.36-2.65,49.05.2Z"/>
            <path class="cls-18" d="M58.09,333.68l-1.41-318.48c1.79.05,7.46-.85,8.48.66l1.12,316.81c-1.55,1.95-5.91.91-8.19,1.01Z"/>
            <g>
              <path class="cls-18" d="M56.68,15.2l1.41,318.48c-4.67.21-39.01,1.15-40.71.04-2.15-1.41-1.54-7.03-1.29-9.58l17.64-1.05c.24-.89-15.96-1.1-16.82-.9-.74-.66-.77-.07-1.12-1.11.97.1,7.37.38,7.64.11,1.53-1.54-5.59-1.87-6.54-1.78-.72-.67-.79-.05-1.12-1.11,1.02-.01,11.71,1.16,8.47-1.57-2.11-.3-5.78.62-7.64-.38-.53-.28-.6-.35-.84-.83,1.21-.6,10.4.82,8.47-1.57-.47-.58-7.28-.21-8.48-.1-.12-1.21.22-1.04.27-1.39,2.4-.43,9.32,1.6,8.19-1.84-2.05.71-5.78-.29-7.37-.11-.77-.62-.73-.13-1.12-1.11,1.27.01,10.4,1.01,8.47-1.57l-8.48-.1c-.05-.44.02-.75,0-1.11,3.74-.8,13.12.46,16.25-.77.64-.25.99-.29.83-1.12l-17.09-.34c0-.37-.03-.69,0-1.11,1.07-.07,7.36.67,7.64.11,1.11-2.18-5.81-1-7.09-1.78-.05-.03-.46-.83-.56-1.11,1.49-.27,10.54,1.46,8.75-1.29-.47-.72-7.51.1-8.76-.38-.06-.46.02-.74,0-1.11,10.59.39,11.92-2.24.27-1.95,0-.06-.38-.07-.28-.83,1.1-.47,8.18.13,8.48-.18,1.81-1.85-6.48-2.14-7.37-2.05-.77-.62-.73-.13-1.12-1.11,1.06.04,7.88.36,8.2.1,3.15-2.57-7.2-1.32-8.21-1.77-.05-.44.02-.75,0-1.11l17.09-1.33-17.1-.9c0-.17-.01-.35,0-.56,1.01-.52,7.77.41,7.92-.73.26-2.02-5.98-.45-7.37-1.5-.8-.6-.49-.94-.56-1.11,1.46.07,10.47,1.34,8.75-1.29-.47-.72-7.51.1-8.76-.38-.06-.44.02-.77,0-1.11l8.48-.18c.48-3.24-6.01-.88-8.21-1.77,0-.04-.25-.09-.28-.83,1.21-.6,10.4.82,8.47-1.57-.47-.58-7.28-.21-8.48-.1-.02-.55.01-1.11,0-1.67l8.48.38c.42-3.64-6.21-1.13-8.49-2.05-.01-.38,0-.75,0-1.11,1.99-.24,16.27-.13,16.81-.77.31-.37-.09-.88-.56-1.11-2.04-1-13.08.6-15.98-.07,0-.04-.27-.08-.28-.83,10.62.5,10.54-2.74,0-1.67,0-.38,0-.73,0-1.11,1.14-.46,11.39.78,8.47-2.12-.3-.3-7.38.36-8.48-.1,0-.37,0-.75,0-1.11,2.82.25,5.69.21,8.48-.18v-1.39s-8.76.18-8.76.18c0-.64.28-1.06.27-1.39,1.21-.6,10.4.82,8.47-1.57-.47-.58-7.28-.21-8.48-.1,0-.37,0-.74,0-1.11l8.48-.18c.42-3.64-6.21-1.13-8.49-2.05,0-.37,0-.75,0-1.11,1.94.21,16.31-.09,16.81-.77.14-.19.05-1.25-.56-1.11l-15.98-.07s-.27-.07-.28-.83c10.61.49,10.5-2.68,0-1.67,0-.37,0-.74,0-1.11l8.48-.18c.42-3.64-6.21-1.13-8.49-2.05,0-.37,0-.74,0-1.11,1.27.01,10.39,1.01,8.47-1.57l-8.75.18c0-.55,0-1.11,0-1.67,1.08,0,8.47.44,8.75.1,2.09-2.51-7.32-1.57-8.48-1.49v-1.11s8.47-.18,8.47-.18c.42-3.64-6.21-1.13-8.49-2.05,0-.37,0-.74,0-1.11l17.09-1.05-16.82-.9c0-.1-.56-.18-.56-1.11,10.36,1.17,11.78-2.36.27-1.39,0-.37,0-.74,0-1.11l8.48-.18c.24-3.73-6.13-.93-8.49-2.05,0-.37,0-.74,0-1.11,11.29,1.13,11.23-2.55,0-1.67,0-.34-.28-.75-.28-1.39l8.75.1c2.06-2.8-7.28-.86-8.48-1.49,0-.37,0-.74,0-1.11l8.48-.18c.42-3.64-6.21-1.13-8.49-2.05,0-.36,0-.74,0-1.11l16.81-1.05-17.09-.34c.01-.64.25-.99.27-1.39,10.77.3,10.85-1.95,0-1.67.07-.39-.15-.75.55-1.11,12.13.03,9.13-2.02-.57-2.22-.06-.45.03-.78,0-1.11,11.29,1.13,11.23-2.55,0-1.67-.02-.38-.26-.76-.28-1.39l8.48.38c3.33-2.71-7.53-1.74-8.48-1.49-.02-.65.28-1.07.27-1.39l8.48-.18c.34-3.84-6.18-.87-8.49-2.05,0-.38,0-.75,0-1.11,1.57.17,17.04.44,16.53-1.32l-16.81-.06c0-.55,0-1.11,0-1.67,11.07,1.29,11.2-2.33,0-1.11,0-.64.27-1.05.27-1.39,11.5.14,11.13-1.9,0-2.22,0-.36,0-.74,0-1.11,12.01,1.2,10.55-2.95-.28-1.39,0-.55-.04-1.12,0-1.67l8.48.38c3.39-2.77-7.56-1.65-8.48-1.49.15-.7.16-.92.83-1.39l7.92-.17c.57-3.86-6.2-.82-7.93-2.05-.82-.58-.53-1.05-.56-1.11l17.09-1.33-17.37-.06c-.07-.39-.04-1.23,0-1.67,10.32,1.13,11.89-1.8.27-1.39.08-.34-.16-.76.55-1.11,12.14,0,9.13-2-.57-2.22-.07-.46.03-.77,0-1.11,11.99,1.18,10.59-2.91-.28-1.39-.03-.55.01-1.12,0-1.67l8.48.38c3.39-2.77-7.56-1.65-8.48-1.49-.02-.65.28-1.07.27-1.39l8.48-.18c.34-3.84-6.18-.87-8.49-2.05,0-.38,0-.75,0-1.11,3.29-.3,13.11.77,15.7-.21.46-.17,1.67-.8,1.11-1.39s-15.15-.29-17.09.21c0-.55,0-1.11,0-1.67,11.07,1.29,11.2-2.33,0-1.11,0-.64.28-1.06.27-1.39,11.51.13,11.12-1.88,0-2.22,0-.37,0-.75,0-1.11,11.96,1.1,10.67-2.74-.28-1.39,0-.55,0-1.11,0-1.67,1.25-.11,8.3.73,8.75.1,2.12-2.89-7.12-.64-8.21-1.77,0-.04-.27-.07-.28-.83l8.48-.18c.34-3.84-6.18-.87-8.49-2.05,0-.34-.28-.75-.28-1.39l17.36-1.05-17.37-.06c0-.55,0-1.11,0-1.67,11.07,1.29,11.2-2.33,0-1.11,0-.64.27-1.05.27-1.39,11.51.13,11.12-1.88,0-2.22,0-.37,0-.74,0-1.11,11.99,1.18,10.59-2.91-.28-1.39,0-.55,0-1.11,0-1.67,1.2-.07,8.37.62,8.75.1,2.12-2.89-7.12-.64-8.21-1.77,0-.04-.28-.07-.28-.83l8.48-.18c.34-3.84-6.18-.87-8.49-2.05,0-.34-.28-.75-.28-1.39,2.97.26,13.76.94,15.98.07.34-.13,1.3-.6.83-1.12-.6-.66-14.89-.84-16.81-.06,0-.55,0-1.11,0-1.67,1.3-.11,7.93.77,8.48-.18,1.25-2.18-7.49-.2-8.21-1.77,0-.19,0-.37,0-.56,1.21-.6,10.4.82,8.47-1.57-.47-.58-7.28-.21-8.48-.1,0-.55,0-1.12,0-1.67,11.96,1.1,10.67-2.74-.28-1.39,0-.55,0-1.11,0-1.67,2.07-.5,10.21,2.03,8.47-1.57l-7.92-.1s-.28-.07-.28-.83l8.48-.18c.44-3.79-6.26-.73-8.49-2.05,0-.37,0-.74,0-1.11,3.18-.29,13.26.75,15.7-.21.34-.13,1.3-.6.83-1.12-.57-.62-14.92-.85-16.81-.06,0-.55,0-1.11,0-1.67,9.66,1.03,12.41-1.28.55-1.67,0-.04-.28-.07-.28-.83l8.2.1c1.6-3.76-6.15-.87-8.21-2.33,0-.37,0-.74,0-1.11,11.97,1.13,10.34-2.67-.28-1.39,0-.55,0-1.11,0-1.67,1.25-.11,8.3.73,8.75.1,2.18-2.97-7.18-.53-8.21-1.77,0-.04-.28-.07-.28-.83l7.92-.17c2.21-3.69-6.22-.86-7.93-2.05,0-.34-.28-.75-.28-1.39,3.63.25,12.22.98,15.42.07.7-.2,1.63-.14,1.38-1.12l-16.81-.06c0-.55,0-1.11,0-1.67,10.96,1.3,10.91-2.35,0-1.11,0-.64.27-1.05.27-1.39,11.51.13,11.12-1.88,0-2.22,0-.34-.28-.75-.28-1.39,11.41,1.92,11.51-2.52,0-1.11,0-.55,0-1.11,0-1.67,11.72,1.51,11.69-2.74,0-1.11,0-.64.27-1.05.27-1.39,1.15-.56,10.21.85,8.19-1.84l-8.2-.38c0-.34-.28-.75-.28-1.39l16.53-.77-16.54-.34c0-.55,0-1.12,0-1.67,10.96,1.3,10.91-2.35,0-1.11,0-.64.27-1.05.27-1.39,12.11.26,10.56-2.38-.29-1.94,0-.55,0-1.11,0-1.67,11.41,1.92,11.51-2.52,0-1.11,0-.55,0-1.11,0-1.67,1.11.03,8.47.54,8.75.1,1.88-2.94-6.99-.49-8.21-1.77,0-.04-.28-.07-.28-.83,1.15-.56,10.21.85,8.19-1.84-.58-.78-6.86.78-8.2-.38,0-.34-.28-.75-.28-1.39l16.53-.77-16.54-.34c0-.55,0-1.11,0-1.67,10.98,1.37,10.91-2.38,0-1.11,0-.64.27-1.05.27-1.39,11.51.13,11.12-1.88,0-2.22,0-.34-.29-.75-.28-1.39,11.41,1.92,11.51-2.52,0-1.11,0-.55-.02-1.12,0-1.67,11.72,1.49,11.68-2.67,0-1.11.01-.63.26-1.02.27-1.39,1.15-.57,10.2.86,8.19-1.84l-8.2-.38c.01-.32-.35-.74-.28-1.39l16.4.21c5.58,13.51,25.52,8.01,22.62-5.8-3.4-16.2-25.62-9.26-22.91,4.41-2.93-1.4-12.81.63-15.01-.49-.18-.09-.36-.4-.56-.55,2.08-1.68,8.24,1.55,7.63-1.84l-8.2.18c-.11-.63.3-1.11.27-1.39l8.48-.18v-1.39s-8.49-.66-8.49-.66c-.02-.41-.27-.75-.28-1.39,11.33,2.14,11.5-3.26,0-1.11,0-.55-.02-1.12,0-1.67l8.48.38c2.33-2.35-7.5-1.71-8.48-1.49.23-3.91-.56-10.03,3.14-11.55,1.82-.74,34.68-.18,39.32-.03Z"/>
              <g>
                <path class="cls-2" d="M16.9,322.19c.85-.2,17.06,0,16.82.9l-17.64,1.05c0-.09-.78-1.13-.42-1.8.45.07.82-.04,1.25-.14Z"/>
                <path class="cls-2" d="M14.74,146.28c0-.37,0-.74,0-1.11l17.37.06-17.36,1.05Z"/>
                <path class="cls-2" d="M15.1,164.35c0-.3-.28-1.09-.28-1.39,1.94-.5,16.5-.83,17.09-.21s-.64,1.22-1.11,1.39c-2.59.98-12.41-.09-15.7.21Z"/>
                <path class="cls-2" d="M15.17,182.13c-.19-.41-.2-.94-.28-1.39l17.37.06-17.09,1.33Z"/>
                <path class="cls-2" d="M15.68,233.54l16.82.9-17.09,1.05c0-.94.27-1.83.27-1.95Z"/>
                <path class="cls-2" d="M15.37,37.9c2.2,1.12,12.08-.91,15.01.49.05.23.26,1.32.28,1.39l-16.4-.21c.08-.8-.01-1.56,1.1-1.67Z"/>
                <path class="cls-2" d="M15.33,217.71c0-.27-.29-1.13-.28-1.39l17.09.34-16.81,1.05Z"/>
                <path class="cls-2" d="M14.66,128.5c0-.37,0-.74,0-1.11,1.92-.77,16.21-.59,16.81.06.47.52-.49.98-.83,1.12-2.22.87-13.01.19-15.98-.07Z"/>
                <path class="cls-2" d="M15.72,306.64c-.05-.82-.03-1.42,0-2.22l17.09.34c.17.82-.19.86-.83,1.12-3.13,1.23-12.52-.03-16.25.77Z"/>
                <path class="cls-2" d="M15.76,251.33l15.98.07c.61-.14.7.92.56,1.11-.5.68-14.87.97-16.81.77-.01-.95.27-1.85.27-1.95Z"/>
                <path class="cls-2" d="M15.25,199.92c0-.3-.28-1.1-.28-1.39l16.81.06c.51,1.76-14.96,1.5-16.53,1.32Z"/>
                <path class="cls-2" d="M14.86,110.99c0-.29-.28-1.1-.28-1.39,1.9-.79,16.25-.56,16.81.06.47.52-.49.98-.83,1.12-2.44.96-12.52-.08-15.7.21Z"/>
                <path class="cls-2" d="M14.5,92.93c0-.37,0-.74,0-1.11l16.81.06c.25.98-.68.92-1.38,1.12-3.21.91-11.79.18-15.42-.07Z"/>
                <path class="cls-2" d="M15.65,288.85c-.05-.82-.03-1.42,0-2.22l17.1.9-17.09,1.33Z"/>
                <path class="cls-2" d="M14.34,57.35c0-.37,0-.75,0-1.11l16.54.34-16.53.77Z"/>
                <path class="cls-2" d="M14.42,75.14c0-.37,0-.74,0-1.11l16.54.34-16.53.77Z"/>
                <path class="cls-2" d="M15.84,269.12c2.9.67,13.94-.94,15.98.07.47.23.88.74.56,1.11-.54.64-14.82.53-16.81.77-.02-1,.27-1.85.27-1.95Z"/>
                <path class="cls-2" d="M15.54,265.5c-.01-.74,0-1.49,0-2.22,1.1.46,8.18-.2,8.48.1,2.92,2.9-7.33,1.66-8.47,2.12Z"/>
                <path class="cls-2" d="M15.45,244.38c0-.29-.28-1.1-.28-1.39l8.75-.18c1.93,2.58-7.2,1.58-8.47,1.57Z"/>
                <path class="cls-2" d="M15.46,247.72c0-.74,0-1.49,0-2.22,2.28.91,8.91-1.6,8.49,2.05l-8.48.18Z"/>
                <path class="cls-2" d="M15.35,221.04c0-.74-.01-1.47,0-2.22,2.28.91,8.91-1.6,8.49,2.05l-8.48.18Z"/>
                <path class="cls-2" d="M15.11,167.68c-.02-.75,0-1.49,0-2.22,2.31,1.18,8.83-1.79,8.49,2.05l-8.48.18Z"/>
                <path class="cls-2" d="M14.95,132.11c0-.74,0-1.49,0-2.22,2.31,1.18,8.83-1.79,8.49,2.05l-8.48.18Z"/>
                <path class="cls-2" d="M15.73,183.24c1.73,1.23,8.5-1.81,7.93,2.05l-7.92.17c-1.06-.03-1.07-2.18,0-2.22Z"/>
                <path class="cls-2" d="M15.27,203.25c-.02-.76,0-1.49,0-2.22,2.31,1.18,8.83-1.79,8.49,2.05l-8.48.18Z"/>
                <path class="cls-2" d="M15.03,149.9c0-.74,0-1.49,0-2.22,2.31,1.18,8.83-1.79,8.49,2.05l-8.48.18Z"/>
                <path class="cls-2" d="M15.53,262.17c0-.3-.28-1.09-.28-1.39l8.75-.18v1.39c-2.78.38-5.65.43-8.47.18Z"/>
                <path class="cls-2" d="M15.42,238.83c0-.74,0-1.49,0-2.22,2.28.91,8.91-1.6,8.49,2.05l-8.48.18Z"/>
                <path class="cls-2" d="M15.38,229.93c0-.74,0-1.48,0-2.22,2.35,1.12,8.73-1.68,8.49,2.05l-8.48.18Z"/>
                <path class="cls-2" d="M14.71,76.53l8.2.38c2.02,2.7-7.04,1.28-8.19,1.84,0-.74,0-1.49,0-2.22Z"/>
                <path class="cls-2" d="M15.5,256.61c0-.74,0-1.49,0-2.22,2.28.91,8.91-1.6,8.49,2.05l-8.48.18Z"/>
                <path class="cls-2" d="M15.88,278.01c2.2.89,8.68-1.46,8.21,1.77l-8.48.18c-.1-1.17.28-1.85.27-1.95Z"/>
                <path class="cls-2" d="M14.8,96.54c0-.74,0-1.49,0-2.22,1.71,1.19,10.14-1.64,7.93,2.05l-7.92.17Z"/>
                <path class="cls-2" d="M15.62,282.74c-.32-.76.04-1.3,0-1.67,1.25.48,8.29-.34,8.76.38,1.72,2.63-7.29,1.36-8.75,1.29Z"/>
                <path class="cls-2" d="M14.87,114.32c0-.74,0-1.49,0-2.22,2.22,1.32,8.93-1.74,8.49,2.05l-8.48.18Z"/>
                <path class="cls-2" d="M14.23,30.68c0-.35,0-.75,0-1.11,11.51-2.15,11.34,3.25,0,1.11Z"/>
                <path class="cls-2" d="M15.37,226.6c0-.55,0-1.11,0-1.67,11.24-.88,11.3,2.8,0,1.67Z"/>
                <path class="cls-2" d="M16.85,310.52c1.58-.18,5.31.82,7.37.11,1.13,3.44-5.79,1.42-8.19,1.84.01-.09-.78-1.13-.42-1.8l1.25-.14Z"/>
                <path class="cls-2" d="M15.29,208.81c-.06-.62.02-1.11,0-1.67,11.24-.88,11.3,2.8,0,1.67Z"/>
                <path class="cls-2" d="M16.6,316.36c1.86,1,5.54.09,7.64.38,3.24,2.72-7.45,1.55-8.47,1.57-.32-1.03-.38-1.81.83-1.95Z"/>
                <path class="cls-2" d="M15.7,300.52c-.28-.8.04-1.29,0-1.67,1.25.48,8.29-.34,8.76.38,1.8,2.75-7.26,1.02-8.75,1.29Z"/>
                <path class="cls-2" d="M15.74,309.41c-.31-.78.04-1.26,0-1.67l8.48.1c1.93,2.58-7.2,1.58-8.47,1.57Z"/>
                <path class="cls-2" d="M14.63,58.74c1.34,1.16,7.62-.4,8.2.38,2.02,2.7-7.04,1.28-8.19,1.84,0-.74,0-1.48,0-2.22Z"/>
                <path class="cls-2" d="M14.68,69.86c0-.11-.28-1-.29-1.94,10.85-.44,12.39,2.21.29,1.94Z"/>
                <path class="cls-2" d="M14.83,105.43c0-.74,0-1.49,0-2.22,2.06,1.46,9.81-1.43,8.21,2.33l-8.2-.1Z"/>
                <path class="cls-2" d="M14.59,49.85c11.13.34,11.52,2.35,0,2.22,0-.73-.01-1.48,0-2.22Z"/>
                <path class="cls-2" d="M15.21,191.03c0-.27-.29-1.11-.28-1.39,10.83-1.56,12.3,2.59.28,1.39Z"/>
                <path class="cls-2" d="M15.58,273.84c-.02-.57,0-1.12,0-1.67,2.28.91,8.91-1.6,8.49,2.05l-8.48-.38Z"/>
                <path class="cls-2" d="M14.76,87.65c0-.74,0-1.49,0-2.22,11.13.34,11.52,2.35,0,2.22Z"/>
                <path class="cls-2" d="M14.52,34.29c-.09-.81.04-1.49,0-2.22l8.48.66v1.39s-8.47.18-8.47.18Z"/>
                <path class="cls-2" d="M16.77,292.73c.9-.09,9.19.2,7.37,2.05-.3.3-7.38-.3-8.48.18.04-.29-.35-1.84-.15-2.08.43.11.87-.11,1.25-.14Z"/>
                <path class="cls-2" d="M14.98,137.67c0-.29-.28-1.1-.28-1.39,10.87-1.52,12.27,2.57.28,1.39Z"/>
                <path class="cls-2" d="M14.56,43.18c.02-.73-.04-1.45,0-2.22l8.2.38c2.01,2.7-7.04,1.28-8.19,1.84Z"/>
                <path class="cls-2" d="M15.86,212.14c-1.31-.03-.45-1.41-.57-2.22,9.7.2,12.7,2.25.57,2.22Z"/>
                <path class="cls-2" d="M15.23,194.36c0-.74-.01-1.47,0-2.22,11.14.32,11.51,2.37,0,2.22Z"/>
                <path class="cls-2" d="M15.13,173.24c-.04-.41-.26-.98-.28-1.39,10.87-1.52,12.27,2.57.28,1.39Z"/>
                <path class="cls-2" d="M15.07,158.79c0-.74,0-1.49,0-2.22,11.13.34,11.52,2.35,0,2.22Z"/>
                <path class="cls-2" d="M15.16,241.33c0-.28.27-1.11.27-1.39,1.16-.08,10.58-1.02,8.48,1.49-.28.34-7.67-.1-8.75-.1Z"/>
                <path class="cls-2" d="M14.99,141c0-.74,0-1.49,0-2.22,11.13.34,11.52,2.35,0,2.22Z"/>
                <path class="cls-2" d="M15.7,176.57c-1.33-.03-.44-1.42-.57-2.22,9.7.22,12.7,2.23.57,2.22Z"/>
                <path class="cls-2" d="M15.95,295.8c11.65-.3,10.32,2.34-.27,1.95-.07-1.26.23-1.45.27-1.95Z"/>
                <path class="cls-2" d="M15.59,277.18c-.03-.58.01-1.12,0-1.67,1.19-.11,8.01-.47,8.48.1,1.93,2.39-7.26.96-8.47,1.57Z"/>
                <path class="cls-2" d="M14.9,119.88c0-.29-.28-1.1-.28-1.39,10.95-1.36,12.24,2.48.28,1.39Z"/>
                <path class="cls-2" d="M15.76,315.53c-.35-.71.03-1.27,0-1.67,1.19-.11,8.01-.47,8.48.1,1.93,2.39-7.26.96-8.47,1.57Z"/>
                <path class="cls-2" d="M15.06,155.45c0-.29-.28-1.1-.28-1.39,10.95-1.36,12.24,2.48.28,1.39Z"/>
                <path class="cls-2" d="M15.52,259.39c0-.56,0-1.12,0-1.67,1.19-.11,8.01-.47,8.48.1,1.93,2.39-7.26.96-8.47,1.57Z"/>
                <path class="cls-2" d="M14.91,123.22c0-.55,0-1.12,0-1.67,1.19-.11,8.01-.47,8.48.1,1.93,2.39-7.26.96-8.47,1.57Z"/>
                <path class="cls-2" d="M15.66,291.63c-.31-.78.04-1.26,0-1.67,1,.45,11.36-.8,8.21,1.77-.32.26-7.14-.06-8.2-.1Z"/>
                <path class="cls-2" d="M14.38,66.25c0-.37,0-.74,0-1.11,11.51-1.41,11.42,3.03,0,1.11Z"/>
                <path class="cls-2" d="M14.31,48.46c0-.37,0-.75,0-1.11,11.51-1.41,11.42,3.03,0,1.11Z"/>
                <path class="cls-2" d="M14.82,102.1c0-.29-.28-1.1-.28-1.39,10.62-1.29,12.26,2.52.28,1.39Z"/>
                <path class="cls-2" d="M14.46,84.03c0-.37,0-.74,0-1.11,11.51-1.41,11.42,3.03,0,1.11Z"/>
                <path class="cls-2" d="M14.29,45.68c0-.35-.01-.76,0-1.11,11.68-1.56,11.72,2.61,0,1.11Z"/>
                <path class="cls-2" d="M15.31,150.73c1.09,1.13,10.33-1.12,8.21,1.77-.46.63-7.5-.21-8.75-.1,0-.68.55-1.58.55-1.67Z"/>
                <path class="cls-2" d="M15.08,97.37c1.03,1.24,10.39-1.2,8.21,1.77-.46.63-7.5-.21-8.75-.1,0-.68.55-1.58.55-1.67Z"/>
                <path class="cls-2" d="M15,205.76c-.01-.35,0-.73,0-1.11.95-.25,11.81-1.22,8.48,1.49l-8.48-.38Z"/>
                <path class="cls-2" d="M15.23,132.94c1.09,1.13,10.33-1.12,8.21,1.77-.38.52-7.55-.17-8.75-.1,0-.68.55-1.58.55-1.67Z"/>
                <path class="cls-2" d="M14.92,61.8c1.22,1.28,10.09-1.17,8.21,1.77-.28.44-7.65-.07-8.75-.1,0-1.43.55-1.58.55-1.67Z"/>
                <path class="cls-2" d="M14.45,81.25c0-.37,0-.74,0-1.11,11.69-1.63,11.73,2.62,0,1.11Z"/>
                <path class="cls-2" d="M15.16,115.16l7.92.1c1.74,3.6-6.4,1.07-8.47,1.57,0-.68.55-1.58.55-1.67Z"/>
                <path class="cls-2" d="M14.92,187.97c.02-.35-.02-1.06,0-1.11.92-.16,11.87-1.27,8.48,1.49l-8.48-.38Z"/>
                <path class="cls-2" d="M14.84,170.18c-.01-.35,0-.73,0-1.11.92-.16,11.87-1.27,8.48,1.49l-8.48-.38Z"/>
                <path class="cls-2" d="M15.08,223.54c0-.29.27-1.1.27-1.39,1.21.63,10.54-1.31,8.48,1.49l-8.75-.1Z"/>
                <path class="cls-2" d="M15.55,268.28c0-.56,0-1.12,0-1.67,10.55-1.07,10.63,2.16,0,1.67Z"/>
                <path class="cls-2" d="M15.48,250.5c0-.56,0-1.12,0-1.67,10.5-1.01,10.62,2.16,0,1.67Z"/>
                <path class="cls-2" d="M15.12,232.44c0-.29.27-1.11.27-1.39,11.51-.97,10.09,2.56-.27,1.39Z"/>
                <path class="cls-2" d="M16.18,283.84c1.39,1.05,7.63-.53,7.37,1.5-.15,1.14-6.91.21-7.92.73.03-.88-.72-2.14.55-2.23Z"/>
                <path class="cls-2" d="M14.81,37.34c-1.1-.58-.48-1.21-.56-1.66l8.2-.18c.61,3.39-5.55.16-7.63,1.84Z"/>
                <path class="cls-2" d="M14.21,27.9c0-.37-.03-.7,0-1.11.99-.22,10.82-.86,8.48,1.49l-8.48-.38Z"/>
                <path class="cls-2" d="M14.92,123.77c.72,1.57,9.46-.41,8.21,1.77-.54.95-7.17.06-8.48.18,0-.48.27-1.8.27-1.95Z"/>
                <path class="cls-2" d="M14.33,54.58c0-.37,0-.74,0-1.11,10.91-1.27,10.98,2.49,0,1.11Z"/>
                <path class="cls-2" d="M15.12,106.26c11.86.38,9.11,2.7-.55,1.67,0-.68.55-1.58.55-1.67Z"/>
                <path class="cls-2" d="M14.96,196.86c0-.37,0-.75,0-1.11,11.21-1.22,11.07,2.4,0,1.11Z"/>
                <path class="cls-2" d="M14.73,143.51c0-.37,0-.74,0-1.11,11.21-1.22,11.07,2.4,0,1.11Z"/>
                <path class="cls-2" d="M14.8,161.29c0-.36,0-.74,0-1.11,11.21-1.22,11.07,2.4,0,1.11Z"/>
                <path class="cls-2" d="M14.88,179.08c.03-.42.18-.97.27-1.39,11.62-.41,10.05,2.52-.27,1.39Z"/>
                <path class="cls-2" d="M15.32,214.93c.03-.59-.14-.98,0-1.67,10.85-.29,10.77,1.97,0,1.67Z"/>
                <path class="cls-2" d="M14.41,72.36c0-.37,0-.74,0-1.11,10.92-1.24,10.97,2.41,0,1.11Z"/>
                <path class="cls-2" d="M14.49,90.15c0-.37,0-.74,0-1.11,10.92-1.24,10.97,2.41,0,1.11Z"/>
                <path class="cls-2" d="M16.26,301.63c1.28.78,8.21-.41,7.09,1.78-.29.56-6.58-.18-7.64-.11.05-.77-.68-1.58.55-1.67Z"/>
                <path class="cls-2" d="M16.89,319.41c.95-.09,8.06.24,6.54,1.78-.27.27-6.68,0-7.64-.11-.18-.53-.16-.99-.15-1.53.43.11.87-.11,1.25-.14Z"/>
              </g>
            </g>
          </g>
        </g>
        <g>
          <g>
            <path class="cls-25" d="M124.8,227.79l7.49,15.08c.61,1.24,2.42,1.11,2.85-.2l4.77-14.39c.54-1.63,2.75-1.84,3.6-.35l8.38,14.74,1.27-2.02,1.73-167.33-43.17-.45-1.72,166.44,3.64,6.08,7.14-17.46c.72-1.76,3.17-1.85,4.02-.15Z"/>
            <path class="cls-16" d="M125.05,264.46l6.39,10.68,6.33-10.04c-3.83-1.48-8.24-2.13-12.71-.63Z"/>
            <path class="cls-22" d="M143.51,227.93c-.85-1.49-3.06-1.27-3.6.35l-4.77,14.39c-.43,1.31-2.24,1.44-2.85.2l-7.49-15.08c-.84-1.7-3.3-1.61-4.02.15l-7.14,17.46,11.41,19.06c4.47-1.5,8.88-.85,12.71.63l14.12-22.42-8.38-14.74Z"/>
          </g>
          <path class="cls-28" d="M141.11,220.14c-.2.4-.62.67-1.1.67-.67,0-1.21-.56-1.2-1.23l1.35-130.84c0-.67.56-1.21,1.23-1.2.67,0,1.21.56,1.2,1.22l-1.35,130.84c0,.19-.05.37-.13.53Z"/>
          <path class="cls-28" d="M125.09,219.97c-.2.4-.62.67-1.1.67-.67,0-1.21-.56-1.2-1.23l1.35-130.84c0-.67.56-1.21,1.23-1.2.67,0,1.21.56,1.2,1.22l-1.35,130.84c0,.19-.05.37-.13.53Z"/>
          <rect class="cls-33" x="111.07" y="33.04" width="44.95" height="35.16" rx="6.13" ry="6.13" transform="translate(.53 -1.38) rotate(.59)"/>
          <g>
            <rect class="cls-24" x="108.89" y="55.3" width="48.95" height="23.14" rx="5.62" ry="5.62" transform="translate(.7 -1.38) rotate(.59)"/>
            <path class="cls-31" d="M157.74,76.81c-.68,1.34-2.08,2.26-3.68,2.25l-41.61-.43c-2.25-.02-4.06-1.87-4.03-4.12l.16-15.8c.01-1.09.45-2.11,1.22-2.87s1.81-1.18,2.89-1.16l41.61.43c1.09.01,2.11.45,2.87,1.22.76.78,1.17,1.81,1.16,2.89l-.16,15.8c0,.64-.16,1.25-.43,1.79ZM154.06,78.25c1.8.02,3.28-1.43,3.3-3.23l.16-15.8c0-.87-.32-1.7-.93-2.32-.61-.62-1.43-.97-2.3-.98l-41.61-.43c-.87,0-1.7.32-2.32.93-.62.61-.97,1.43-.98,2.3l-.16,15.8c-.02,1.8,1.43,3.28,3.23,3.3l41.61.43Z"/>
          </g>
        </g>
        <g>
          <g>
            <g>
              <path class="cls-4" d="M239.99,54.58l2.19.41c-11.62,16.85-25.13,31.72-36.25,49.05l-1.37-.44c-1.34-1.7-2.76-3.35-3.17-5.85-.34-2.06-1.3-36.89-1.31-41.93,13.31-.43,26.62-.81,39.93-1.25Z"/>
              <g>
                <path class="cls-6" d="M205.68,104.86c-.44-.44-.73-.75-1.13-1.25l1.37.44c11.12-17.33,24.64-32.2,36.25-49.05l-2.19-.41c.45-.01.91-.03,1.36-.04,2.42-.08,4.95.11,7.32-.55.04.5.54.21.56.46,1,13.53.85,27.24,1.55,40.79-.27,2.53-2.83,6.44-4.8,7.39-4.18,2.01-33.14.71-40.31,2.23Z"/>
                <path class="cls-7" d="M244.48,54.76l1.77.11c.51,13.7,1.49,27.42,1.29,41.12-1.16,3.33-2.71,4.04-5.12,5.79-1.49-1.88,2.96-2.11,3.48-6.06.65-4.94-1.97-32.29-1.42-40.96Z"/>
              </g>
            </g>
            <g>
              <path class="cls-18" d="M243.31,30.36c-2.66,4.21.09,22.36-.62,23.66-.24.44-1.3-.14-1.34.52-.45.02-.91.03-1.36.04-13.31.44-26.62.82-39.93,1.25,0-.15.17-.72.18-2.9,1.12.2,2.35-2.54,3.66-4.62,10.88-17.21,13.82-17.81,35.33-17.83,0-1.07-.31-1.63.47-2.27,1.93.69,2,.75,3.6,2.14Z"/>
              <path class="cls-3" d="M239.71,28.22c-.78.63-.48,1.19-.47,2.27-10.38-2.39-23.22-3.41-30.5,7.23-1.04,1.53-4.83,8.74-4.83,10.6-1.31,2.08-2.54,4.82-3.66,4.62.05-7.6-1.55-19.95,8.61-24.71,6.47-3.03,24.07-2.42,30.86,0Z"/>
              <path class="cls-8" d="M246.13,33.81c3.18,6.38,2,13.19,2.54,20.18-2.38.66-4.9.47-7.32.55.04-.67,1.1-.09,1.34-.52.7-1.29-2.05-19.44.62-23.66,1.27,1.1,2.02,1.82,2.83,3.45Z"/>
              <path class="cls-32" d="M239.23,30.49c-21.51.02-24.45.62-35.33,17.83,0-1.87,3.79-9.08,4.83-10.6,7.28-10.64,20.12-9.62,30.5-7.23Z"/>
            </g>
          </g>
          <g>
            <g id="Objeto_generativo-2" data-name="Objeto generativo">
              <g>
                <g>
                  <polygon class="cls-1" points="212.23 268.83 211.57 263.42 218.16 225.65 228.15 207.29 238.81 234.01 238.18 250.68 237.2 255.99 226.04 276.79 212.38 269.54 212.23 268.83"/>
                  <path class="cls-27" d="M220.24,229.93c.68.8,1.34,1.98,2.21,2.96.52.59,1.21,1.12,1.59,1.53,3.19,3.54,6.19,7.22,9.77,10.39,1.62,1.44,2.52,2.58,4.79,3.34-.21,2.15-1.62,7.55-1.47,9.08l-11.51-15.49-7.88-11.74c-.19-.34.18-.49.14-.81-.07-.55.1-.63.1-.96.51-.01,2,1.4,2.25,1.7Z"/>
                  <path class="cls-19" d="M224.42,197.41c.69,1.94-2.07,13.14-.94,13.66.47.22,1.6-.78,2.18-.79-1.34,1.88-1.3,19.23-3.22,22.61-.87-.99-1.53-2.16-2.21-2.96l2.9-18.31-2.66.73c.72-4.88,1.71-9.75,2.45-14.62.49-.12,1-.2,1.49-.33Z"/>
                  <path class="cls-17" d="M220.24,229.93c-.25-.3-1.74-1.71-2.25-1.7.05-4.55,1.79-11.15,2.49-15.88l2.66-.73-2.9,18.31Z"/>
                  <path class="cls-17" d="M224.96,196.98c-.28.07-.25.35-.53.43-.49.13-1,.2-1.49.33.5-3.29.77-6.68,1.27-9.98,3.59-.38-.15,6.73.76,9.22Z"/>
                  <g>
                    <path class="cls-21" d="M236.75,139.02l1.55,25.79c.21,7.92-.24,15.82-.47,23.73l-9.33-.47c-.61.32-.99,7.24-1.15,8.39-.81.21-1.81.37-2.39.52-.91-2.5,2.83-9.61-.76-9.22,2.71-17.78,5.68-35.54,8.42-53.31,1.06-1.77,3.81,3.76,4.13,4.58Z"/>
                    <path class="cls-19" d="M232.96,136.71c-.3,13.89-1.65,28.43-3.48,42.22-.16,1.23-.79,7.99-1,8.35-.41.74-.81.66-1.55.81l-.84-.29,6.87-51.1Z"/>
                  </g>
                  <path class="cls-17" d="M237.83,188.54c-.05,1.87.05,3.78-.02,5.64-3.46.84-7.01,1.4-10.46,2.28.16-1.15.54-8.07,1.15-8.39l9.33.47Z"/>
                  <path class="cls-19" d="M227.35,196.46c-.61,4.45-1.32,8.95-1.45,13.46.13.33-.21.34-.23.36-.57,0-1.7,1-2.18.79-1.13-.52,1.62-11.72.94-13.66.28-.07.25-.35.53-.43.58-.15,1.58-.31,2.39-.52Z"/>
                  <path class="cls-17" d="M236.75,139.02l1.55,25.79c.21,7.92-.24,15.82-.47,23.73-.05,1.87.05,3.77-.02,5.64-.15,3.75-.48,7.39-.71,11.11l-11.2,4.63c.13.33-.21.34-.23.36-1.34,1.88-1.3,19.23-3.22,22.61.52.59,1.21,1.12,1.59,1.53,3.19,3.54,6.19,7.22,9.77,10.39,1.62,1.44,2.52,2.58,4.79,3.34,1.91-19.67,2.66-40.98,2.42-60.77-.15-12.15-.18-37.76-4.27-48.36Z"/>
                  <path class="cls-21" d="M237.8,194.18c-.15,3.75-.48,7.39-.71,11.11l-11.2,4.63c.13-4.51.84-9.01,1.45-13.46,3.45-.87,7-1.43,10.46-2.28Z"/>
                </g>
                <g>
                  <path class="cls-1" d="M219.79,271.02c2.7,1.84,5.71,3.07,8.54,4.71-3.56.43-3.41,3.8-4.21,6.55-.98-.99-2.8-1.82-4-2.57l-7.29-14.06-2.12,11.1c-.37.02-1.77.06-1.86.09.36-3.31,3-10.46,2.71-13.42,2.89,2.89,4.81,5.27,8.23,7.6Z"/>
                  <path class="cls-17" d="M220.12,279.71c-.05-.03-.52-.17-.66-.17-1.39-1.26-6.84-2.88-8.74-2.79l2.12-11.1,7.29,14.06Z"/>
                  <g>
                    <path class="cls-12" d="M233.39,207.6l-2.38-.58c-2.52-24.15-5.29-48.34-7.99-72.45-.21,16.6,1.86,33.57,3.33,50.23l-9.72,5.03c-.2-17.4.84-34.76,2.63-52.08.85-2.18,1.89-4.68,3.82-5.99l10.3,75.85Z"/>
                    <path class="cls-9" d="M235.5,276.42c-.27.09-1.65.82-2.14,1.05-.86.4-4.19,2.13-4.73,2.62-.61-2.51-1.97-3.86-3.3-5.84-1.82-2.71-3.99-5.14-5.61-7.98l15.78,10.14Z"/>
                    <path class="cls-5" d="M231.01,207.02c.94,9.01,4.09,25.69,3.72,33.8-.05,1.15-.54,3.35-2.25,2.13-.57-.41-.35-2.99-.54-3.59-.13-.4-.1-.66-.38-1.04-.53-10.73-2.46-21.36-3.52-32.02-.37-3.67-.38-7.49-.73-11.19-.33-3.43-.65-6.87-.95-10.3-1.47-16.66-3.55-33.62-3.33-50.23,2.7,24.11,5.46,48.3,7.99,72.45Z"/>
                    <path class="cls-12" d="M228.04,206.3l-11.21-2.42c-.12-2.98-.25-6-.16-9.01l10.64.23c.35,3.7.37,7.52.73,11.19Z"/>
                    <g>
                      <path class="cls-19" d="M226.36,184.8c.3,3.44.62,6.87.95,10.3l-10.64-.23c-.08,3.01.04,6.03.16,9.01l11.21,2.42c1.06,10.66,3.9,33.06,3.9,33.06.19.6-.03,3.18.54,3.59,1.71,1.22,2.2-.97,2.25-2.13.37-8.11-2.78-24.78-3.72-33.8l2.38.58,2.94,20.23c-.1.3-.5.28-.48.67l1.94,14.01,3.56,18.97c-.85,2.29,2.31,11.04,1.94,14.01-1.76-.53-5.98.34-7.78.94l-15.78-10.14c-2.05-3.59-2.73-6.57-4.07-10.43.47-1.26-1.85-23.04-1.97-26.76-.71-21.45-1.6-72.81,5.59-91.33-1.78,17.32-2.83,34.68-2.63,52.08l9.72-5.03Z"/>
                      <g>
                        <path class="cls-15" d="M228.45,251.72c8.53.73,6.63,13.11-.52,12.46-8.62-.78-6.98-13.11.52-12.46Z"/>
                        <path class="cls-14" d="M233.17,258.85c-1.26,5.65-9.37,5.34-9.94-.54l9.94.54Z"/>
                        <path class="cls-14" d="M233.16,257.59l-9.72-.17c1.11-6.77,9.27-5.02,9.72.17Z"/>
                        <path class="cls-11" d="M233.17,258.85l-9.94-.54c-.05-.51.21-.84.22-.89l9.72.17c.03.35.08.94,0,1.26Z"/>
                      </g>
                    </g>
                  </g>
                </g>
              </g>
            </g>
            <g>
              <path class="cls-29" d="M289.59,321.2c-.28,13.75-9.07,26.83-22.69,30.36-8.64,2.24-17.66.55-25.06-4.43-9.88-6.65-15.91-19.31-13.34-31.13.74-3.4,4.17-9.17,4.27-12.09.27-7.78-9.53-21.07-3.02-28.24.45-.5,3.32-2.37,4.07-2.81-.42,1.02-1.84,2.21-2.15,3.22-2.4,7.66,6.97,21.12,4.39,30.55-.7,2.56-2.94,5-3.64,7.67-5.71,22.01,18.11,41.22,38.74,32.21,10.19-4.45,16.05-14.87,18.44-25.32Z"/>
              <g>
                <path class="cls-20" d="M242.67,270.17c.26.05,2.25,1,2.51,1.21,3.17,2.47,8.01,19.64,8.97,20.2,18.09-4.09,35.81,11.42,35.43,29.62-2.39,10.44-8.25,20.87-18.44,25.32-20.62,9.01-44.44-10.2-38.74-32.21.69-2.67,2.93-5.1,3.64-7.67,2.58-9.43-6.79-22.89-4.39-30.55.32-1.01,1.73-2.2,2.15-3.22.43-.25,1.62-1.04,1.86-1.15,1.58-.7,5.35-1.87,7-1.54Z"/>
                <path class="cls-13" d="M261.94,292.4c3.23-.48,11.42,4.43,14.03,6.52,9.6,7.67,15.08,21.38,8.58,32.84,4.8-13.88-1.77-28.68-14.74-35.14-1.32-.66-8.3-2.84-8.58-3.2-.43-.56.32-.97.71-1.03Z"/>
                <path class="cls-13" d="M245.06,274.18c1.04,2.07,8.57,17.03,8.3,17.98-.14.49-1.85,1.08-2.29.24l-6.01-18.22Z"/>
                <g>
                  <path class="cls-29" d="M261.3,298.81c32.55,3.97,22.15,56.84-10.47,43.68-24.53-9.9-14.31-46.7,10.47-43.68Z"/>
                  <path class="cls-10" d="M259.96,302.29c24.99,2.12,22.75,40.1-1.62,39.01-27.4-1.23-23.29-41.13,1.62-39.01Z"/>
                </g>
              </g>
            </g>
            <g>
              <path class="cls-11" d="M218.95,274.04c1.1.69,2.76,1.45,3.66,2.35,6.39,6.44-2.33,20.8-1.3,28.17.38,2.73,4.06,7.98,5.01,11.21,3.5,11.81-1.45,24.79-10.99,32.28-7.37,5.79-16.07,7.93-25.28,6.07-13.34-2.69-22.79-14.77-24.1-27.93,3.43,10.04,9.67,19.69,20.1,23.37,21.26,7.5,43.19-13.12,36.36-34.66-.91-2.87-3.38-5.25-4.24-7.66-3.38-9.39,6.99-27.2.17-33.36.13,0,.56.13.61.15Z"/>
              <g>
                <path class="cls-30" d="M210.35,271.33c1.74-.09,6.72,1.4,7.99,2.55,6.81,6.16-3.55,23.97-.17,33.36.87,2.41,3.33,4.79,4.24,7.66,6.83,21.54-15.1,42.16-36.36,34.66-10.43-3.68-16.67-13.33-20.1-23.37-1.87-18.81,14.09-34.92,33.02-32.93,2.28-4.64,4.61-20.26,9.69-21.84.08-.03,1.36-.07,1.7-.08Z"/>
                <path class="cls-26" d="M189.14,295.4c1.04-.28,2.01-.32,3.06-.38,1.3.77-7.04,3.89-7.66,4.24-11.39,6.53-18.11,19.7-14.46,32.75.34,1.23,1.66,2.79,1.6,4.08-6.72-11.08-3.5-24.27,5.42-32.93,2.64-2.56,8.55-6.84,12.04-7.77Z"/>
                <path class="cls-26" d="M206.56,275.59c1.54-.67-.1,4.21-.25,4.77-.43,1.58-3.8,12.93-4.21,13.5-.98,1.37-2.48.7-1.94-1.01l6.4-17.27Z"/>
                <g>
                  <path class="cls-11" d="M188.92,302.31c29.04-9.83,42.49,34.29,13.73,43.35-28.66,9.03-40.12-34.41-13.73-43.35Z"/>
                  <path class="cls-10" d="M190.24,305.74c25.34-8.59,36.23,29.21,12.85,36.67-25.54,8.15-35.53-28.99-12.85-36.67Z"/>
                </g>
              </g>
            </g>
          </g>
        </g>
      </g>
    </g>
  </g>
</svg>