<!-- Generator: Adobe Illustrator 24.1.2, SVG Export Plug-In  -->
<svg version="1.1" xmlns="http://www.w3.org/2000/svg" xmlns:xlink="http://www.w3.org/1999/xlink" x="0px" y="0px"
	 width="162.99px" height="383.4px" viewBox="0 0 162.99 383.4" style="overflow:visible;enable-background:new 0 0 162.99 383.4;"
	 xml:space="preserve">
<style type="text/css">
	.st0{fill:#FFFFFF;}
	.st1{fill:#7A2C0C;}
	.st2{fill:#1A80C4;}
	.st3{fill:#FB8D00;}
	.st4{fill:#965820;}
	.st5{fill:#EABFAD;}
	.st6{fill:#D57F31;}
	.st7{fill:#F1D8C5;}
	.st8{fill:#5E3D1B;}
	.st9{fill:#006837;}
	.st10{fill:#009245;}
	.st11{opacity:0.2;}
</style>
<defs>
</defs>
<g>
	<path class="st0" d="M159.25,276.19l-0.48-10.92c3.04-2.85,4.45-7.31,4.19-13.31c-0.68-15.72-4.5-31.06-10.77-43.2
		c-6.42-12.43-14.41-19.37-21.95-19.04c-0.86,0.04-1.68,0.19-2.44,0.45c-1.71-1.3-3.47-2.54-5.28-3.69
		C138.6,173.52,148,154.39,148,133.9c0-11.79-3.14-23.33-9.1-33.55c0.58-1.7,0.73-3.47,0.45-5.24c-0.73-8.06-10.01-13.7-18.99-19.17
		c-2.08-1.26-4.04-2.46-5.77-3.61c-5.98-3.98-7.06-15.44-6.84-23.72c6.38,1.79,11.93-0.79,15.52-4.61c7.39-7.84,9.47-23.4,1.19-32.5
		C110.77-3.56,94.5-3.82,71.74,10.66c-25.5,16.23-56.93,55.4-61.25,85.67c-0.27,1.88-0.25,3.73,0.04,5.51
		c0.2,1.67,0.65,3.26,1.33,4.77C7.97,115.23,6,124.39,6,133.9c0,22.13,11.12,42.77,29.49,55.57c-1.32,0.98-2.62,2.01-3.88,3.08
		c-0.52-0.09-1.06-0.14-1.61-0.14c-15.7,0-30,30.31-30,63.6c0,5.1,1.09,8.95,3.33,11.67l-0.55,10.36c-0.06,0.99-0.04,1.98,0.08,2.95
		C1.09,282.68,0,285.06,0,287.64v8.53c0,2.72,1.17,5.16,3.04,6.85c-0.14,1.06-0.16,2.13-0.06,3.21c0.02,0.17,0.04,0.33,0.07,0.5
		l9.44,48.33c0.35,2.97,1.81,5.64,4.02,7.53c0.28,11.52,9.74,20.81,21.33,20.81h88.33c11.77,0,21.34-9.57,21.34-21.34v-0.62
		c1.65-1.84,2.69-4.17,2.95-6.69l8.69-48.25c0.03-0.17,0.05-0.33,0.06-0.5c0.1-1.36,0.02-2.71-0.25-4.03
		c1.3-1.6,2.05-3.63,2.05-5.81v-8.53c0-2.29-0.85-4.42-2.28-6.06C159.17,279.81,159.35,278,159.25,276.19z"/>
	<g>
		<path class="st1" d="M126.16,378.42H37.84c-9.02,0-16.34-7.31-16.34-16.34v-4.66h121v4.66
			C142.5,371.1,135.18,378.42,126.16,378.42z"/>
		<path class="st2" d="M138.67,360.42H24.12c-3.47,0-6.36-2.64-6.68-6.09l-9.48-48.54c-0.51-5.56,3.87-10.37,9.45-10.37h127.34
			c5.53,0,9.89,4.71,9.46,10.22l-8.73,48.47C145.21,357.67,142.24,360.42,138.67,360.42z"/>
		<path class="st3" d="M140.98,290.42H19.07c-6.54,0-11.72-5.52-11.31-12.05l1.63-30.85c2.02-38.18,33.56-68.1,71.79-68.1h0
			c38.48,0,70.14,30.3,71.82,68.74l1.24,28.26C154.66,284.03,148.6,290.42,140.98,290.42z"/>
		<g>
			<path class="st4" d="M85.64,285.25c-3.35-0.21-6.04-1.5-8-3.83c-5.87-6.98-4.23-22.13-2.77-35.49
				c0.59-5.39,1.14-10.48,1.14-14.51c0-19.96-0.99-38.76-1-38.95l2-0.11c0.01,0.19,1,19.03,1,39.05c0,4.14-0.56,9.28-1.15,14.72
				c-1.41,12.97-3,27.66,2.32,33.99c1.62,1.92,3.78,2.95,6.6,3.13L85.64,285.25z"/>
		</g>
		<path class="st5" d="M38.5,177.92c0,0,26.5,35.5,39.5,33.5s45-37,46-40S38.5,177.92,38.5,177.92z"/>
		<path class="st6" d="M151.77,300.42H9.23c-2.34,0-4.23-1.9-4.23-4.23v-8.53c0-2.34,1.9-4.23,4.23-4.23h142.53
			c2.34,0,4.23,1.9,4.23,4.23v8.53C156,298.52,154.1,300.42,151.77,300.42z"/>
		<path class="st7" d="M27.93,289.42h-2.72c-8.4,0-15.22-6.81-15.22-15.22v-12.56h25v20.71C35,286.25,31.83,289.42,27.93,289.42z"/>
		<path class="st6" d="M30.03,267.42H16.4c-6.3,0-11.4-1-11.4-11.4c0-32.6,14.16-58.6,25-58.6c5.06,0,4.75,7.94,6,27
			c0.72,10.99,0.87,25.02,1,36.03C37.04,264.3,33.88,267.42,30.03,267.42z"/>
		<path class="st7" d="M136.49,286.55l2.71-0.12c8.4-0.36,14.91-7.46,14.55-15.86l-0.54-12.55l-24.98,1.08l0.89,20.69
			C129.29,283.69,132.59,286.72,136.49,286.55z"/>
		<path class="st6" d="M133.44,264.66l13.62-0.59c6.29-0.27,11.35-1.49,10.9-11.88c-1.41-32.57-16.67-57.93-27.51-57.47
			c-5.06,0.22-4.4,8.13-4.83,27.23c-0.25,11.01,0.21,25.04,0.56,36.04C126.31,261.85,129.6,264.83,133.44,264.66z"/>
		<ellipse class="st7" cx="77" cy="133.92" rx="66" ry="63.5"/>
		<path class="st8" d="M70,156.42c-1.57,2.49-3.42,4.61-4.94,6.83c-0.38,0.55-0.72,1.11-0.98,1.65c-0.14,0.27-0.23,0.53-0.28,0.77
			c-0.03,0.12-0.03,0.22-0.04,0.33c0,0.08-0.01,0.18,0.05,0.35c0.31,1.22,0.81,2.47,2.19,3.06c-0.75,0.17-1.56-0.15-2.21-0.63
			c-0.63-0.51-1.12-1.18-1.45-1.9c-0.09-0.15-0.18-0.4-0.25-0.67c-0.04-0.25-0.06-0.5-0.04-0.74c0.03-0.47,0.13-0.9,0.26-1.28
			c0.27-0.78,0.66-1.45,1.08-2.08c0.85-1.25,1.87-2.31,2.97-3.26C67.48,157.91,68.66,157.06,70,156.42z"/>
		<path class="st8" d="M56,176.42c1.52,1.64,3.36,2.77,5.28,3.52c1.94,0.73,4.01,1.03,6.09,0.99c2.09,0.05,4.18-0.39,6.28-0.78
			c1.03-0.3,2.1-0.53,3.15-0.82c1.04-0.32,2.09-0.65,3.2-0.9c-0.9,0.65-1.86,1.23-2.83,1.81c-0.99,0.52-2.03,0.96-3.07,1.4
			c-0.53,0.19-1.08,0.35-1.63,0.51c-0.55,0.14-1.08,0.35-1.66,0.43c-1.13,0.19-2.27,0.37-3.44,0.36c-2.31,0.01-4.7-0.43-6.75-1.57
			C58.59,180.24,56.83,178.52,56,176.42z"/>
		<path class="st8" d="M80,173.42c-0.04,1.13-0.05,2.16,0.05,3.13c0.1,0.96,0.32,1.83,0.73,2.56c0.42,0.72,0.97,1.4,1.76,1.96
			c0.36,0.31,0.81,0.54,1.23,0.86c0.45,0.26,0.92,0.51,1.4,0.85c-0.56,0.09-1.12,0.09-1.7,0.08c-0.55-0.12-1.15-0.16-1.69-0.41
			c-1.12-0.4-2.14-1.27-2.76-2.39c-0.62-1.13-0.75-2.44-0.54-3.6C78.71,175.31,79.19,174.24,80,173.42z"/>
		<path class="st8" d="M56,170.42c0.84,0.88,1.27,2.09,1.41,3.31c0.14,1.23-0.05,2.5-0.47,3.66c-0.45,1.15-1.14,2.2-1.98,3.06
			c-0.41,0.44-0.91,0.78-1.37,1.15c-0.51,0.31-1.03,0.6-1.59,0.82c0.27-0.56,0.58-1.03,0.88-1.5c0.27-0.5,0.57-0.95,0.83-1.42
			c0.53-0.94,0.98-1.86,1.36-2.81C55.77,174.76,56.13,172.78,56,170.42z"/>
		<path class="st9" d="M103.39,40.7c0,0-4.21,27.39,8.43,35.81s36.34,18.43,12.11,30.02s-112.7,20.01-108.49-9.48
			S51.25,29.64,74.42,14.9s35.81-11.59,46.35,0S119.72,53.87,103.39,40.7z"/>
		<g>
			<g>
				<path class="st0" d="M107.19,155.41c-1.8,1.15-3.77,1.8-5.86,1.92c-7.66,0.45-14.32-6.48-14.85-15.46
					c-0.37-6.25,2.4-12.21,7.07-15.19c1.8-1.15,3.77-1.8,5.86-1.92c7.66-0.45,14.32,6.48,14.85,15.46
					C114.62,146.48,111.85,152.44,107.19,155.41z"/>
				<path d="M93.29,126.28l0.52,0.81l0,0c1.73-1.1,3.63-1.73,5.63-1.84c3.55-0.21,7,1.22,9.7,4.02c2.74,2.84,4.39,6.74,4.64,10.99
					c0.36,6.08-2.33,11.87-6.84,14.75c-1.73,1.11-3.63,1.73-5.63,1.84c-3.55,0.21-7-1.22-9.7-4.02c-2.74-2.84-4.39-6.74-4.64-10.99
					c-0.36-6.08,2.33-11.87,6.84-14.75L93.29,126.28 M93.29,126.29c-4.68,2.98-7.68,8.95-7.29,15.62
					c0.55,9.26,7.43,16.38,15.36,15.91c2.21-0.13,4.27-0.84,6.09-1.99c4.68-2.98,7.68-8.95,7.29-15.62
					c-0.55-9.26-7.43-16.38-15.36-15.91C97.16,124.42,95.1,125.13,93.29,126.29L93.29,126.29z"/>
			</g>
			<ellipse transform="matrix(0.9982 -0.0592 0.0592 0.9982 -8.4033 6.1915)" cx="100.28" cy="144.9" rx="8.32" ry="10.07"/>
			<circle class="st0" cx="103.1" cy="138.49" r="3.36"/>
		</g>
		<g>
			<g>
				<path class="st0" d="M49.19,155.41c-1.8,1.15-3.77,1.8-5.86,1.92c-7.66,0.45-14.32-6.48-14.85-15.46
					c-0.37-6.25,2.4-12.21,7.07-15.19c1.8-1.15,3.77-1.8,5.86-1.92c7.66-0.45,14.32,6.48,14.85,15.46
					C56.62,146.48,53.85,152.44,49.19,155.41z"/>
				<path d="M35.29,126.28l0.52,0.81l0,0c1.73-1.1,3.63-1.73,5.63-1.84c3.55-0.21,7,1.22,9.7,4.02c2.74,2.84,4.39,6.74,4.64,10.99
					c0.36,6.08-2.33,11.87-6.84,14.75c-1.73,1.11-3.63,1.73-5.63,1.84c-3.55,0.21-7-1.22-9.7-4.02c-2.74-2.84-4.39-6.74-4.64-10.99
					c-0.36-6.08,2.33-11.87,6.84-14.75L35.29,126.28 M35.29,126.29c-4.68,2.98-7.68,8.95-7.29,15.62
					c0.55,9.26,7.43,16.38,15.36,15.91c2.21-0.13,4.27-0.84,6.09-1.99c4.68-2.98,7.68-8.95,7.29-15.62
					c-0.55-9.26-7.43-16.38-15.36-15.91C39.16,124.42,37.1,125.13,35.29,126.29L35.29,126.29z"/>
			</g>
			<ellipse transform="matrix(0.9982 -0.0592 0.0592 0.9982 -8.505 2.7575)" cx="42.28" cy="144.9" rx="8.32" ry="10.07"/>
			<circle class="st0" cx="45.1" cy="138.49" r="3.36"/>
		</g>
		<path class="st10" d="M127.4,87.19c-9.44,4.83-67.35,32.36-110.68,4.68c-0.5,2.01-0.91,3.99-1.19,5.93
			c-4.21,29.49,84.26,21.07,108.49,9.48C139.35,99.94,135.5,93.25,127.4,87.19z"/>
		<g class="st11">
			<rect x="84" y="300.42" width="2" height="23"/>
		</g>
	</g>
</g>
</svg>
